<svg xmlns="http://www.w3.org/2000/svg" fill="none" viewBox="0 0 52 52">
  <rect width="52" height="52" fill="#175a5a" rx="26"/>
  <path fill="#fff" d="M34.75 16.3751h-17.5c-.4641 0-.9092.1843-1.2374.5125s-.5126.7733-.5126 1.2375v5.25c0 .4641.1844.9092.5126 1.2374s.7733.5126 1.2374.5126h17.5c.4641 0 .9092-.1844 1.2374-.5126s.5126-.7733.5126-1.2374v-5.25c0-.4642-.1844-.9093-.5126-1.2375s-.7733-.5125-1.2374-.5125m-3.0625 5.6875c-.2596 0-.5133-.077-.7292-.2212-.2158-.1443-.3841-.3492-.4834-.5891-.0993-.2398-.1253-.5037-.0747-.7583.0507-.2546.1757-.4885.3592-.672.1836-.1836.4174-.3086.672-.3592.2546-.0507.5185-.0247.7584.0747.2398.0993.4448.2675.589.4834.1442.2158.2212.4696.2212.7292 0 .3481-.1383.6819-.3844.928-.2462.2462-.58.3845-.9281.3845M34.75 26.8751h-17.5c-.4641 0-.9092.1843-1.2374.5125s-.5126.7733-.5126 1.2375v5.25c0 .4641.1844.9092.5126 1.2374s.7733.5126 1.2374.5126h17.5c.4641 0 .9092-.1844 1.2374-.5126s.5126-.7733.5126-1.2374v-5.25c0-.4642-.1844-.9093-.5126-1.2375s-.7733-.5125-1.2374-.5125m-3.0625 5.6875c-.2596 0-.5133-.077-.7292-.2212-.2158-.1443-.3841-.3492-.4834-.5891-.0993-.2398-.1253-.5037-.0747-.7583.0507-.2546.1757-.4885.3592-.672.1836-.1836.4174-.3086.672-.3592.2546-.0507.5185-.0247.7584.0747.2398.0993.4448.2675.589.4834.1442.2158.2212.4696.2212.7292 0 .3481-.1383.6819-.3844.928-.2462.2462-.58.3845-.9281.3845"/>
</svg>
