<svg xmlns="http://www.w3.org/2000/svg" fill="none" viewBox="0 0 28 28">
  <g fill="#175a5a" clip-path="url(#a)">
    <path d="M27.3098 9.28489c.3096-.2549.3896-.69623.1891-1.04349l-2.0608-3.56918c-.2005-.34732-.6227-.49864-.9982-.35804l-.7016.26288 2.993 5.18399zM16.0541 19.5266c-1.4724.4615-2.955 1.0601-4.3028 1.8378l-.7132.4117 3.0565 5.2941c.1519.2632.4276.4103.7111.4102.1392 0 .2802-.0354.4094-.11l3.3153-1.9141c.1884-.1088.3259-.2879.3822-.4981.0563-.2101.0268-.434-.082-.6224zM3.50222 15.1997c-.44281.2557-.7595.6684-.89184 1.1623-.05737.214-.07695.4322-.06011.6468L.416149 18.2171c-.190312.1078-.329765.2871-.387297.4982-.057531.211-.028273.4363.081047.6258L2.04168 22.687c.15181.263.42749.4103.71116.4103.13693 0 .27579-.0344.40343-.1066l2.09655-1.187c.34295.2769.77088.4267 1.20695.4267.32452 0 .65314-.0824.95375-.256l2.09366-1.2087-3.91152-6.7745zM27.8901 15.0493 19.7379.929578c-.1462-.253148-.416-.409336-.7084-.410047h-.002c-.2916 0-.5613.154821-.7084.406657-.0504.086292-5.1126 8.671082-11.3025 12.244712l3.9115 6.7744c3.4535-1.9938 7.6695-2.8845 10.5981-3.2807 3.1949-.4321 5.5972-.3858 5.6347-.385.2956.007.5733-.1468.7245-.4018.1511-.2551.1529-.5718.0047-.8285"/>
  </g>
  <defs>
    <clipPath id="a">
      <path fill="#fff" d="M0 0h28v28H0z"/>
    </clipPath>
  </defs>
</svg>
