<svg xmlns="http://www.w3.org/2000/svg" fill="none" viewBox="0 0 52 52">
  <rect width="52" height="52" fill="#175a5a" rx="26"/>
  <g fill="#efefef" clip-path="url(#a)">
    <path d="M39.3098 21.285c.3096-.2549.3896-.6962.1891-1.0435l-2.0608-3.5692c-.2005-.3473-.6227-.4986-.9982-.358l-.7016.2629 2.993 5.184zM28.0541 31.5266c-1.4724.4615-2.955 1.0601-4.3028 1.8378l-.7132.4117 3.0565 5.2941c.1519.2632.4276.4103.7111.4102.1392 0 .2802-.0354.4094-.11l3.3153-1.9141c.1884-.1088.3259-.2879.3822-.4981.0563-.2101.0268-.434-.082-.6224zM15.5022 27.1997c-.4428.2557-.7595.6684-.8918 1.1623-.0574.214-.077.4322-.0601.6468l-2.1342 1.2083c-.1903.1078-.3297.2871-.3872.4982-.0576.211-.0283.4363.081.6258l1.9318 3.3459c.1518.263.4275.4103.7111.4103.137 0 .2758-.0344.4035-.1066l2.0965-1.187c.343.2769.7709.4267 1.207.4267.3245 0 .6531-.0824.9537-.256l2.0937-1.2087-3.9115-6.7745zM39.8901 27.0493l-8.1522-14.1197c-.1462-.2532-.416-.4094-.7084-.4101h-.002c-.2916 0-.5613.1549-.7084.4067-.0504.0863-5.1126 8.6711-11.3025 12.2447l3.9115 6.7744c3.4535-1.9938 7.6695-2.8845 10.5981-3.2807 3.1949-.4321 5.5972-.3858 5.6347-.385.2956.007.5733-.1468.7245-.4018.1511-.2551.1529-.5718.0047-.8285"/>
  </g>
  <defs>
    <clipPath id="a">
      <path fill="#fff" d="M12 12h28v28H12z"/>
    </clipPath>
  </defs>
</svg>
