<svg xmlns="http://www.w3.org/2000/svg" fill="none" viewBox="0 0 52 52">
  <rect width="52" height="52" fill="#175a5a" rx="26"/>
  <path fill="#fff" d="M40 24.6337c0 2.8311-2.1645 5.1663-4.9257 5.437-.1006-2.7705-2.386-4.9935-5.1805-4.9935h-1.4329v-.041c.7864-.694 1.2579-1.7019 1.2579-2.7875 0-2.0507-1.668-3.7187-3.7188-3.7187s-3.7188 1.668-3.7188 3.7187c0 1.0856.4715 2.0935 1.2579 2.7875v.041h-1.4329c-2.7945 0-5.0799 2.2225-5.1805 4.9929C14.164 29.7967 12 27.461 12 24.6282c0-1.3781.5146-2.695 1.4487-3.7073.7208-.7809 1.6417-1.3278 2.6534-1.5881-.3708-3.1976 2.0918-6.1059 5.3255-6.0818 1.9583 0 3.6033 1.0511 4.5724 2.6972.9346-.5338 2.2504-.8209 3.3359-.8209 2.6316 0 4.952 1.6505 5.8385 4.0803C37.8852 19.5253 40 21.8419 40 24.6337M22.1061 35.446c-1.2786 0-2.4506-.4649-3.3551-1.2354.6699 2.6064 3.0401 4.5385 5.8526 4.5385h2.7924c2.8126 0 5.1827-1.9321 5.8526-4.5385-.9045.7705-2.0765 1.2354-3.355 1.2354z"/>
  <path fill="#fff" d="M22.1063 33.8053h7.7875c1.9539 0 3.5437-1.5892 3.5437-3.5437 0-1.954-1.5898-3.5438-3.5437-3.5438h-3.0735v-2.56c.739-.3189 1.2578-1.0545 1.2578-1.909 0-1.1463-.9324-2.0781-2.0781-2.0781s-2.0781.9318-2.0781 2.0781c0 .8545.5188 1.5901 1.2578 1.909v2.56h-3.0734c-1.954 0-3.5438 1.5898-3.5438 3.5438 0 1.9545 1.5898 3.5437 3.5438 3.5437m7.2296-4.364c.4528 0 .8203.3675.8203.8203s-.3675.8203-.8203.8203-.8203-.3675-.8203-.8203.3675-.8203.8203-.8203m-6.6718 0c.4528 0 .8203.3675.8203.8203s-.3675.8203-.8203.8203-.8203-.3675-.8203-.8203.3675-.8203.8203-.8203"/>
</svg>
