<svg xmlns="http://www.w3.org/2000/svg" fill="none" viewBox="0 0 52 52">
  <rect width="52" height="52" fill="#175a5a" rx="26"/>
  <path fill="#fff" d="M27.75 22.5v-1.75H26c-.2321 0-.4546.0922-.6187.2563s-.2563.3866-.2563.6187v8.75c0 .2321.0922.4546.2563.6187s.3866.2563.6187.2563h1.75V29.5c0-.4641.1844-.9092.5126-1.2374s.7733-.5126 1.2374-.5126h5.25c.4641 0 .9092.1844 1.2374.5126s.5126.7733.5126 1.2374v5.25c0 .4641-.1844.9092-.5126 1.2374s-.7733.5126-1.2374.5126H29.5c-.4641 0-.9092-.1844-1.2374-.5126s-.5126-.7733-.5126-1.2374V33H26c-.6962 0-1.3639-.2766-1.8562-.7688-.4922-.4923-.7688-1.16-.7688-1.8562v-3.5h-3.5v.875c0 .4641-.1844.9092-.5126 1.2374s-.7733.5126-1.2374.5126h-3.5c-.4641 0-.9092-.1844-1.2374-.5126s-.5126-.7733-.5126-1.2374v-3.5c0-.4641.1844-.9092.5126-1.2374s.7733-.5126 1.2374-.5126h3.5c.4641 0 .9092.1844 1.2374.5126s.5126.7733.5126 1.2374v.875h3.5v-3.5c0-.6962.2766-1.3639.7688-1.8562C24.6361 19.2766 25.3038 19 26 19h1.75v-1.75c0-.4641.1844-.9092.5126-1.2374S29.0359 15.5 29.5 15.5h5.25c.4641 0 .9092.1844 1.2374.5126s.5126.7733.5126 1.2374v5.25c0 .4641-.1844.9092-.5126 1.2374s-.7733.5126-1.2374.5126H29.5c-.4641 0-.9092-.1844-1.2374-.5126S27.75 22.9641 27.75 22.5"/>
</svg>
