<svg width="520" height="326" viewBox="0 0 520 326" fill="none" xmlns="http://www.w3.org/2000/svg">
<g clip-path="url(#clip0_534_4374)">
<g opacity="0.4">
<path d="M487 325L486 68" stroke="url(#paint0_linear_534_4374)"/>
<path d="M450 325L449 68" stroke="url(#paint1_linear_534_4374)"/>
<path d="M413 324L412 67" stroke="url(#paint2_linear_534_4374)"/>
<path d="M556.002 291H299" stroke="url(#paint3_linear_534_4374)"/>
<path d="M556.002 255H299" stroke="url(#paint4_linear_534_4374)"/>
<path d="M559.002 216H302" stroke="url(#paint5_linear_534_4374)"/>
</g>
<g opacity="0.4">
<path d="M110 155L109 -102" stroke="url(#paint6_linear_534_4374)"/>
<path d="M73 154L72 -103" stroke="url(#paint7_linear_534_4374)"/>
<path d="M36 154L35 -103" stroke="url(#paint8_linear_534_4374)"/>
<path d="M142.002 120L-115 120" stroke="url(#paint9_linear_534_4374)"/>
<path d="M142.002 84L-115 84" stroke="url(#paint10_linear_534_4374)"/>
<path d="M145.002 45L-112 45" stroke="url(#paint11_linear_534_4374)"/>
</g>
<path d="M269.22 275.279L212.472 275.171C202.531 275.152 194.484 267.078 194.5 257.137L194.639 168.137C194.654 158.196 186.608 150.122 176.667 150.103L122.542 150" stroke="url(#paint12_linear_534_4374)" stroke-width="6"/>
<path d="M269.22 274.555L212.472 274.447C202.531 274.428 194.484 266.354 194.5 256.413L194.76 90.1371C194.775 80.196 186.729 72.1218 176.788 72.1029L122.663 72.0001" stroke="url(#paint13_linear_534_4374)" stroke-width="6"/>
<g filter="url(#filter0_d_534_4374)">
<rect y="48.4233" width="118" height="48.9462" rx="16.9462" transform="rotate(-4.58048 0 48.4233)" fill="#FFEC00" shape-rendering="crispEdges"/>
<rect x="16.9453" y="59.5789" width="24" height="24" rx="4" transform="rotate(-4.58 16.9453 59.5789)" fill="white"/>
<g clip-path="url(#clip1_534_4374)">
<path d="M25.2506 70.5129L34.4088 69.7793C34.4666 69.7746 34.5202 69.7472 34.5578 69.703C34.5955 69.6589 34.614 69.6016 34.6094 69.5437L34.4871 68.0174C34.4825 67.9601 34.4667 67.9042 34.4406 67.8531C34.4145 67.8019 34.3785 67.7563 34.3348 67.719L31.0375 64.9109C30.9938 64.8736 30.9431 64.8454 30.8884 64.8277C30.8337 64.8101 30.7761 64.8034 30.7188 64.808L25.4855 65.2272C25.2542 65.2458 25.0397 65.3554 24.8893 65.5321C24.7388 65.7088 24.6647 65.938 24.6832 66.1693L25.0151 70.3123C25.0197 70.3701 25.0471 70.4238 25.0913 70.4614C25.1355 70.499 25.1928 70.5175 25.2506 70.5129ZM30.8061 65.8983L33.3968 68.1047L30.9983 68.2969L30.8061 65.8983ZM35.205 71.5002C35.2042 71.613 35.1608 71.7214 35.0834 71.8036C35.0061 71.8858 34.9005 71.9358 34.7879 71.9434L33.4932 72.0471L33.5631 72.9193L34.4205 72.8506C34.533 72.8401 34.6452 72.8725 34.7347 72.9414C34.8242 73.0102 34.8843 73.1104 34.9029 73.2218C34.9116 73.2811 34.9081 73.3416 34.8925 73.3995C34.8768 73.4574 34.8495 73.5115 34.8121 73.5584C34.7747 73.6053 34.728 73.644 34.675 73.6721C34.622 73.7002 34.5638 73.7171 34.504 73.7217L33.6329 73.7915L33.7016 74.649C33.7121 74.7614 33.6797 74.8737 33.6109 74.9632C33.542 75.0526 33.4418 75.1127 33.3304 75.1314C33.2711 75.1401 33.2106 75.1365 33.1527 75.1209C33.0948 75.1053 33.0407 75.0779 32.9938 75.0405C32.9469 75.0031 32.9083 74.9565 32.8802 74.9035C32.8521 74.8505 32.8352 74.7923 32.8305 74.7325L32.586 71.6809C32.5768 71.5652 32.6138 71.4506 32.6891 71.3623C32.7643 71.2739 32.8716 71.2191 32.9872 71.2098L34.7316 71.0701C34.7914 71.0652 34.8515 71.0726 34.9083 71.0919C34.9651 71.1112 35.0173 71.142 35.0617 71.1823C35.1061 71.2226 35.1417 71.2717 35.1664 71.3263C35.191 71.381 35.2042 71.4402 35.205 71.5002ZM26.4457 71.7339L25.5735 71.8037C25.4578 71.813 25.3506 71.8678 25.2753 71.9562C25.2001 72.0445 25.163 72.1591 25.1723 72.2748L25.4157 75.3128C25.4229 75.4256 25.4727 75.5316 25.555 75.6092C25.6372 75.6868 25.7459 75.7303 25.859 75.731C25.919 75.7301 25.9781 75.717 26.0328 75.6924C26.0875 75.6677 26.1365 75.6321 26.1768 75.5877C26.2172 75.5433 26.2479 75.4911 26.2672 75.4343C26.2865 75.3775 26.294 75.3174 26.289 75.2576L26.2541 74.8215L26.6575 74.7892C27.4883 74.7226 28.1394 74.0165 28.0975 73.1843C28.0873 72.9796 28.0361 72.7789 27.947 72.5943C27.8578 72.4097 27.7325 72.2449 27.5785 72.1096C27.4244 71.9743 27.2448 71.8714 27.0502 71.8068C26.8556 71.7423 26.65 71.7175 26.4457 71.7339ZM26.6013 73.9159L26.1842 73.9493L26.0794 72.641L26.5155 72.6061C26.607 72.5983 26.6991 72.6098 26.7858 72.6399C26.8725 72.6699 26.952 72.7178 27.0191 72.7805C27.0861 72.8431 27.1393 72.9192 27.1751 73.0037C27.211 73.0882 27.2287 73.1793 27.2272 73.271C27.2213 73.437 27.154 73.5948 27.0384 73.714C26.9227 73.8331 26.767 73.9051 26.6013 73.9159ZM29.9345 71.4544L29.0623 71.5242C28.9466 71.5335 28.8394 71.5883 28.7641 71.6767C28.6889 71.765 28.6519 71.8796 28.6611 71.9953L28.9057 75.048C28.9149 75.1637 28.9698 75.2709 29.0581 75.3461C29.1464 75.4214 29.261 75.4584 29.3767 75.4492L30.2118 75.3823C31.2836 75.2964 32.1181 74.3803 32.0574 73.3071C32.0428 73.045 31.9759 72.7884 31.8606 72.5525C31.7453 72.3166 31.5841 72.1062 31.3862 71.9335C31.1884 71.7609 30.9581 71.6296 30.7088 71.5473C30.4595 71.465 30.1962 71.4334 29.9345 71.4544ZM30.1523 74.5092L29.7429 74.542L29.5683 72.3615L30.0044 72.3266C30.1511 72.3147 30.2988 72.3326 30.4385 72.3792C30.5782 72.4258 30.707 72.5001 30.8173 72.5976C30.9276 72.6952 31.017 72.814 31.0802 72.947C31.1435 73.08 31.1792 73.2244 31.1853 73.3715C31.2097 73.9631 30.7427 74.4619 30.1523 74.5092Z" fill="#175A5A"/>
</g>
<path d="M55.3552 74.5592L51.4246 74.8741L50.4955 63.2749L54.5053 62.9536C55.657 62.8614 56.6648 63.0144 57.5289 63.4125C58.3965 63.8066 59.0877 64.4182 59.6025 65.2471C60.1173 66.0761 60.4229 67.0928 60.5194 68.2973C60.6162 69.5055 60.4747 70.5619 60.095 71.4663C59.719 72.3704 59.1286 73.0884 58.3238 73.6203C57.5228 74.1519 56.5333 74.4648 55.3552 74.5592ZM53.3802 72.8877L55.1076 72.7493C55.9157 72.6846 56.5778 72.4834 57.0942 72.1456C57.6102 71.8041 57.9806 71.3279 58.2053 70.7171C58.4296 70.1025 58.5063 69.3516 58.4352 68.4643C58.3641 67.5769 58.1692 66.8516 57.8505 66.2881C57.5314 65.7208 57.0941 65.3132 56.5384 65.0651C55.9862 64.8129 55.3174 64.7183 54.532 64.7812L52.7423 64.9246L53.3802 72.8877ZM70.9027 64.1082L72.2224 64.0025C72.2726 64.6293 72.2242 65.1633 72.0771 65.6044C71.9335 66.0415 71.6551 66.3849 71.2419 66.6346C70.8287 66.8843 70.2427 67.0396 69.4837 67.1004L69.4012 66.0696C69.9071 66.0291 70.2701 65.9354 70.4901 65.7886C70.7099 65.638 70.841 65.4242 70.8834 65.1472C70.9258 64.8702 70.9322 64.5238 70.9027 64.1082ZM68.1764 69.8499L67.7726 64.8093L69.8285 64.6446L70.5254 73.344L68.5318 73.5037L68.4079 71.9575L68.3173 71.9647C68.16 72.4676 67.8691 72.8918 67.4445 73.2374C67.0238 73.5827 66.4868 73.7815 65.8336 73.8338C65.2635 73.8795 64.7493 73.7934 64.291 73.5755C63.8362 73.3535 63.4666 73.0088 63.1822 72.5414C62.8974 72.0702 62.7272 71.4872 62.6716 70.7925L62.2279 65.2534L64.2781 65.0892L64.6964 70.3111C64.7443 70.8621 64.9305 71.288 65.2548 71.5888C65.5828 71.8893 65.9923 72.0199 66.4832 71.9806C66.7852 71.9564 67.0719 71.8593 67.3433 71.6894C67.6185 71.5191 67.835 71.2814 67.993 70.9761C68.1544 70.6668 68.2155 70.2914 68.1764 69.8499ZM64.2895 64.0224L63.0469 64.0934C62.9931 63.4213 63.1246 62.8807 63.4414 62.4715C63.7582 62.0623 64.1715 61.8373 64.6812 61.7965C64.9267 61.7768 65.1433 61.8013 65.3312 61.8698C65.5188 61.9346 65.6923 62.0138 65.8518 62.1074C66.0151 62.2007 66.1737 62.283 66.3276 62.3543C66.4812 62.4218 66.6468 62.4484 66.8242 62.4342C67.0395 62.417 67.2029 62.3222 67.3145 62.1498C67.4298 61.9772 67.4793 61.7642 67.4628 61.511L68.6845 61.4644C68.7349 62.1406 68.6014 62.6795 68.284 63.0811C67.9662 63.4789 67.5545 63.7 67.0489 63.7443C66.7773 63.7699 66.5457 63.7485 66.354 63.6803C66.1624 63.612 65.9925 63.5307 65.8443 63.4361C65.6999 63.3413 65.5547 63.2598 65.4086 63.1917C65.2622 63.1198 65.0947 63.0915 64.9059 63.1066C64.7058 63.1226 64.5479 63.2151 64.4322 63.3839C64.3165 63.5528 64.269 63.7656 64.2895 64.0224ZM78.8082 61.0068L79.7374 72.606L77.6871 72.7703L76.7579 61.1711L78.8082 61.0068ZM81.8457 72.4371L81.1488 63.7377L83.199 63.5735L83.8959 72.2729L81.8457 72.4371ZM82.0807 62.4205C81.7559 62.4465 81.4679 62.3613 81.2166 62.1648C80.9649 61.9646 80.8269 61.7115 80.8024 61.4057C80.7776 61.0961 80.8736 60.8243 81.0904 60.5903C81.307 60.3525 81.5776 60.2207 81.9024 60.1947C82.2308 60.1683 82.519 60.2555 82.7669 60.456C83.0182 60.6525 83.1563 60.9055 83.1811 61.2151C83.2056 61.521 83.1096 61.7928 82.893 62.0305C82.6799 62.2642 82.4092 62.3942 82.0807 62.4205ZM89.8691 71.9654C88.9969 72.0353 88.2291 71.9144 87.5658 71.6027C86.9059 71.287 86.3792 70.8086 85.9859 70.1675C85.5922 69.5226 85.3589 68.7452 85.286 67.8352C85.2144 66.9404 85.3214 66.1414 85.607 65.4383C85.8962 64.7311 86.3334 64.1641 86.9186 63.7372C87.5035 63.3066 88.2113 63.058 89.0419 62.9914C89.5781 62.9485 90.091 62.9948 90.5807 63.1304C91.0738 63.2619 91.5179 63.4923 91.9129 63.8217C92.3116 64.1507 92.639 64.5843 92.8949 65.1224C93.1505 65.6567 93.3088 66.3052 93.3699 67.068L93.4203 67.6966L86.2897 68.2678L86.179 66.8859L91.3443 66.4721C91.309 66.0797 91.1961 65.7373 91.0055 65.4448C90.8145 65.1484 90.5628 64.9235 90.2503 64.7699C89.9416 64.6161 89.5909 64.5549 89.1982 64.5863C88.7791 64.6199 88.4191 64.7513 88.1183 64.9806C87.8172 65.2062 87.591 65.4903 87.4399 65.833C87.2922 66.1716 87.232 66.5355 87.2594 66.9247L87.3561 68.1311C87.3966 68.6371 87.5239 69.0639 87.7379 69.4115C87.9517 69.7554 88.2324 70.0103 88.5801 70.1763C88.9275 70.3384 89.324 70.4017 89.7695 70.366C90.0678 70.3421 90.3344 70.2789 90.5694 70.1765C90.8041 70.0703 91.0035 69.927 91.1677 69.7467C91.3318 69.5663 91.4494 69.3498 91.5204 69.0971L93.4519 69.159C93.3716 69.6746 93.1767 70.1348 92.8671 70.5396C92.561 70.9404 92.1539 71.2656 91.6457 71.5153C91.1372 71.7612 90.545 71.9113 89.8691 71.9654ZM90.0606 61.975L88.7948 60.6172L87.7612 62.1592L85.9658 62.3031L85.9594 62.2238L87.91 59.6051L89.5128 59.4767L91.8497 61.7519L91.856 61.8312L90.0606 61.975ZM89.9422 74.9407C89.6137 74.967 89.3236 74.88 89.072 74.6798C88.8241 74.4792 88.6879 74.226 88.6634 73.9202C88.6389 73.6144 88.733 73.3427 88.9458 73.1053C89.1624 72.8675 89.433 72.7356 89.7577 72.7096C90.0862 72.6833 90.3744 72.7704 90.6223 72.971C90.8739 73.1712 91.012 73.4243 91.0365 73.7301C91.061 74.0359 90.965 74.3077 90.7484 74.5455C90.5356 74.7829 90.2669 74.9147 89.9422 74.9407ZM100.71 67.2438L100.306 62.2031L102.356 62.0389L103.053 70.7383L101.065 70.8975L100.941 69.3513L100.851 69.3586C100.694 69.8614 100.403 70.2856 99.9781 70.6312C99.5574 70.9765 99.0204 71.1753 98.3672 71.2277C97.797 71.2733 97.2828 71.1872 96.8246 70.9693C96.3698 70.7474 96.0002 70.4027 95.7157 69.9352C95.431 69.4641 95.2608 68.8811 95.2051 68.1863L94.7614 62.6473L96.8117 62.483L97.23 67.7049C97.2741 68.2562 97.4603 68.6821 97.7883 68.9826C98.1164 69.2831 98.5259 69.4137 99.0167 69.3744C99.3188 69.3502 99.6055 69.2531 99.8769 69.0832C100.148 68.9133 100.363 68.6757 100.521 68.3704C100.682 68.0611 100.745 67.6855 100.71 67.2438Z" fill="#175A5A"/>
</g>
<path d="M260.195 274.279L316.943 274.171C326.884 274.152 334.931 266.078 334.915 256.137L334.776 167.137C334.761 157.196 342.807 149.122 352.748 149.103L406.873 149" stroke="url(#paint14_linear_534_4374)" stroke-width="6"/>
<path d="M260.316 274.279L317.064 274.171C327.005 274.152 335.051 266.078 335.036 256.137L334.776 89.8607C334.761 79.9196 342.807 71.8454 352.748 71.8266L406.873 71.7237" stroke="url(#paint15_linear_534_4374)" stroke-width="6"/>
<rect x="212.5" y="213.5" width="112" height="112" rx="56" stroke="#0D3232"/>
<g clip-path="url(#clip2_534_4374)">
<path d="M268.5 302.367C277.889 302.367 285.5 287.652 285.5 269.5C285.5 251.348 277.889 236.633 268.5 236.633C259.111 236.633 251.5 251.348 251.5 269.5C251.5 287.652 259.111 302.367 268.5 302.367Z" fill="#FCFAE8"/>
<path fill-rule="evenodd" clip-rule="evenodd" d="M268.5 236.633C267.929 236.634 267.36 236.689 266.8 236.798C275.39 238.447 282.1 252.458 282.1 269.5C282.1 286.542 275.39 300.553 266.8 302.202C267.36 302.311 267.929 302.366 268.5 302.367C277.888 302.367 285.5 287.651 285.5 269.5C285.5 251.349 277.888 236.633 268.5 236.633Z" fill="#FFEC00"/>
<path fill-rule="evenodd" clip-rule="evenodd" d="M298.148 282.239C298.556 278.453 296.981 273.988 293.83 269.5C291.267 265.959 288.223 262.793 284.786 260.093C282.333 258.122 279.73 256.345 277 254.778C274.279 253.2 271.441 251.832 268.511 250.687H268.5C264.445 249.065 260.185 248.016 255.841 247.57C249.959 247.049 245.006 248.08 241.969 250.743L238.852 256.761C238.444 260.547 240.019 265.012 243.17 269.5C245.733 273.041 248.777 276.207 252.214 278.907C254.667 280.878 257.27 282.655 260 284.222C262.721 285.8 265.559 287.168 268.489 288.313H268.5C272.555 289.934 276.815 290.983 281.159 291.43C287.041 291.951 291.994 290.92 295.031 288.257L298.148 282.239Z" fill="#FCFAE8"/>
<path fill-rule="evenodd" clip-rule="evenodd" d="M293.83 269.5C291.267 265.959 288.223 262.793 284.786 260.093C282.333 258.122 279.729 256.345 277 254.778C274.279 253.2 271.441 251.832 268.511 250.687H268.5C264.445 249.065 260.184 248.016 255.84 247.57C254.317 247.432 252.785 247.41 251.258 247.503C251.652 247.523 252.038 247.535 252.44 247.57C256.784 248.016 261.045 249.065 265.1 250.687H265.111C268.041 251.832 270.879 253.2 273.6 254.778C276.329 256.345 278.933 258.122 281.386 260.093C284.823 262.793 287.867 265.959 290.43 269.5C293.58 273.988 295.156 278.453 294.748 282.239L291.631 288.257C289.423 290.192 286.191 291.255 282.338 291.497C287.695 291.785 292.198 290.737 295.031 288.257L298.148 282.239C298.556 278.453 296.98 273.988 293.83 269.5Z" fill="#FFEC00"/>
<path fill-rule="evenodd" clip-rule="evenodd" d="M298.148 256.761C298.556 260.547 296.981 265.012 293.83 269.5C291.267 273.041 288.223 276.207 284.786 278.907C282.333 280.878 279.73 282.655 277 284.222C274.275 285.8 271.433 287.168 268.5 288.313H268.489C264.437 289.933 260.181 290.982 255.841 291.43C249.959 291.951 245.006 290.92 241.969 288.257L238.852 282.239C238.444 278.453 240.019 273.988 243.17 269.5C245.733 265.959 248.777 262.793 252.214 260.093C254.667 258.122 257.27 256.345 260 254.778C262.725 253.2 265.567 251.832 268.5 250.687H268.511C272.563 249.067 276.819 248.018 281.159 247.57C287.041 247.049 291.994 248.08 295.031 250.743L298.148 256.761Z" fill="#FCFAE8"/>
<path fill-rule="evenodd" clip-rule="evenodd" d="M298.148 256.761L295.031 250.743C292.198 248.263 287.697 247.215 282.338 247.503C286.191 247.745 289.42 248.808 291.631 250.743L294.748 256.761C295.156 260.547 293.58 265.012 290.43 269.5C287.867 273.041 284.823 276.207 281.386 278.907C278.933 280.878 276.329 282.655 273.6 284.222C270.875 285.8 268.033 287.168 265.1 288.313H265.088C261.037 289.933 256.78 290.982 252.44 291.43C252.038 291.465 251.647 291.477 251.258 291.497C252.785 291.59 254.317 291.568 255.84 291.43C260.18 290.982 264.437 289.933 268.488 288.313H268.5C271.433 287.168 274.275 285.8 277 284.222C279.729 282.655 282.333 280.878 284.786 278.907C288.223 276.207 291.267 273.041 293.83 269.5C296.98 265.012 298.556 260.547 298.148 256.761Z" fill="#FFEC00"/>
<path d="M240.167 257.033C242.044 257.033 243.567 255.511 243.567 253.633C243.567 251.756 242.044 250.233 240.167 250.233C238.289 250.233 236.767 251.756 236.767 253.633C236.767 255.511 238.289 257.033 240.167 257.033Z" fill="#FCFAE8"/>
<path d="M296.833 288.767C298.711 288.767 300.233 287.245 300.233 285.367C300.233 283.489 298.711 281.967 296.833 281.967C294.955 281.967 293.433 283.489 293.433 285.367C293.433 287.245 294.955 288.767 296.833 288.767Z" fill="#FCFAE8"/>
<path d="M240.167 288.767C242.044 288.767 243.567 287.245 243.567 285.367C243.567 283.489 242.044 281.967 240.167 281.967C238.289 281.967 236.767 283.489 236.767 285.367C236.767 287.245 238.289 288.767 240.167 288.767Z" fill="#FCFAE8"/>
<path d="M296.833 257.033C298.711 257.033 300.233 255.511 300.233 253.633C300.233 251.756 298.711 250.233 296.833 250.233C294.955 250.233 293.433 251.756 293.433 253.633C293.433 255.511 294.955 257.033 296.833 257.033Z" fill="#FCFAE8"/>
<path fill-rule="evenodd" clip-rule="evenodd" d="M285.5 269.5C285.5 271.563 285.398 273.58 285.217 275.541C285.103 276.685 284.967 277.807 284.786 278.907C283.551 279.904 282.247 280.867 280.876 281.797C279.641 282.635 278.349 283.451 277 284.222C274.275 285.8 271.433 287.168 268.5 288.313H268.489C267.933 288.098 267.367 287.871 266.8 287.622C264.466 286.628 262.195 285.493 260 284.222C257.27 282.655 254.667 280.878 252.214 278.907C251.262 272.672 251.262 266.328 252.214 260.093C254.667 258.122 257.27 256.345 260 254.778C262.199 253.507 264.474 252.372 266.811 251.378C267.378 251.129 267.945 250.902 268.5 250.687H268.511C271.441 251.832 274.279 253.2 277 254.778C278.349 255.549 279.641 256.365 280.876 257.203C282.247 258.133 283.551 259.096 284.786 260.093C284.967 261.193 285.103 262.315 285.217 263.459C285.398 265.42 285.5 267.437 285.5 269.5Z" fill="#FCFAE8"/>
<path fill-rule="evenodd" clip-rule="evenodd" d="M285.217 263.459C285.103 262.315 284.967 261.193 284.786 260.093C283.551 259.096 282.247 258.133 280.876 257.203C279.641 256.365 278.349 255.549 277 254.778C274.279 253.2 271.441 251.832 268.511 250.687H268.5C267.945 250.902 267.378 251.129 266.811 251.378H266.802C269.135 252.374 271.406 253.509 273.602 254.778C274.951 255.549 276.243 256.365 277.478 257.203C278.85 258.133 280.153 259.096 281.388 260.093C281.57 261.193 281.706 262.315 281.819 263.459C282 265.42 282.102 267.437 282.102 269.5C282.102 271.563 282 273.58 281.819 275.541C281.706 276.685 281.57 277.807 281.388 278.907C280.153 279.904 278.85 280.867 277.478 281.797C276.243 282.635 274.951 283.451 273.602 284.222C271.404 285.491 269.13 286.627 266.794 287.622H266.802C267.369 287.871 267.936 288.098 268.491 288.313H268.5C271.434 287.168 274.275 285.8 277 284.222C278.349 283.451 279.641 282.635 280.876 281.797C282.247 280.867 283.551 279.904 284.786 278.907C284.967 277.807 285.103 276.685 285.217 275.541C285.398 273.58 285.5 271.563 285.5 269.5C285.5 267.437 285.398 265.42 285.217 263.459Z" fill="#FFEC00"/>
<path fill-rule="evenodd" clip-rule="evenodd" d="M285.541 247.513C285.201 247.495 284.861 247.475 284.508 247.469C284.525 247.504 284.543 247.537 284.559 247.572C284.892 247.541 285.216 247.528 285.541 247.513Z" fill="white"/>
<path fill-rule="evenodd" clip-rule="evenodd" d="M284.559 291.43C284.543 291.465 284.525 291.498 284.508 291.533C284.86 291.528 285.201 291.507 285.542 291.489C285.215 291.472 284.894 291.46 284.559 291.43Z" fill="white"/>
<path fill-rule="evenodd" clip-rule="evenodd" d="M298.431 250.743L298.438 250.757C298.469 250.738 298.503 250.723 298.533 250.705C298.386 250.618 298.233 250.542 298.074 250.478C298.193 250.573 298.32 250.647 298.431 250.743Z" fill="white"/>
<path fill-rule="evenodd" clip-rule="evenodd" d="M298.431 288.257C298.318 288.353 298.19 288.432 298.074 288.525C298.233 288.462 298.386 288.386 298.533 288.299C298.503 288.281 298.469 288.266 298.438 288.247L298.431 288.257Z" fill="white"/>
<path fill-rule="evenodd" clip-rule="evenodd" d="M236.766 285.367C236.766 287.245 238.289 288.767 240.166 288.767C240.765 288.764 241.352 288.601 241.866 288.295C240.748 287.653 240.091 286.431 240.173 285.143C240.255 283.856 241.061 282.727 242.252 282.231C241.846 278.453 243.421 273.985 246.57 269.5C243.421 265.014 241.846 260.552 242.252 256.769C241.061 256.273 240.255 255.144 240.173 253.857C240.091 252.57 240.748 251.347 241.866 250.705C241.352 250.399 240.765 250.237 240.166 250.233C238.547 250.233 237.152 251.375 236.832 252.963C236.513 254.551 237.358 256.144 238.852 256.769C238.446 260.552 240.021 265.014 243.17 269.5C240.021 273.985 238.446 278.453 238.852 282.231C237.588 282.761 236.766 283.997 236.766 285.367Z" fill="white"/>
<path fill-rule="evenodd" clip-rule="evenodd" d="M250.197 246.446L250.423 248.701C247.62 248.86 244.931 249.87 242.717 251.596L241.222 249.893C243.789 247.851 246.922 246.647 250.197 246.446Z" fill="white"/>
<path fill-rule="evenodd" clip-rule="evenodd" d="M245.899 249.651C245.273 249.654 244.763 249.149 244.76 248.523C244.757 247.897 245.262 247.387 245.888 247.384H245.899C246.525 247.384 247.033 247.891 247.033 248.517C247.033 249.143 246.525 249.651 245.899 249.651Z" fill="#175A5A"/>
<path d="M256.73 277.346C257.008 277.462 257.32 277.463 257.598 277.348C257.876 277.234 258.097 277.014 258.213 276.736L259.811 272.9H265.856L267.454 276.736C267.695 277.314 268.359 277.587 268.936 277.346C269.514 277.105 269.787 276.441 269.546 275.864L263.879 262.264C263.703 261.841 263.291 261.566 262.833 261.566C262.376 261.566 261.963 261.841 261.787 262.264L256.121 275.864C256.005 276.141 256.004 276.453 256.118 276.731C256.233 277.009 256.453 277.23 256.73 277.346ZM262.833 265.647L264.911 270.633H260.756L262.833 265.647Z" fill="#175A5A"/>
<path fill-rule="evenodd" clip-rule="evenodd" d="M271.9 275.167C271.274 275.167 270.767 275.674 270.767 276.3C270.767 276.926 271.274 277.433 271.9 277.433H278.7C279.326 277.433 279.833 276.926 279.833 276.3C279.833 275.674 279.326 275.167 278.7 275.167H276.433V263.833H278.7C279.326 263.833 279.833 263.326 279.833 262.7C279.833 262.074 279.326 261.567 278.7 261.567H271.9C271.274 261.567 270.767 262.074 270.767 262.7C270.767 263.326 271.274 263.833 271.9 263.833H274.167V275.167H271.9Z" fill="#175A5A"/>
<path d="M235.634 285.367C235.634 287.87 237.663 289.9 240.167 289.9C240.735 289.898 241.297 289.788 241.824 289.576C244.503 291.627 248.284 292.697 252.93 292.697C253.631 292.697 254.358 292.664 255.096 292.617C258.387 299.342 263.136 303.5 268.5 303.5C273.864 303.5 278.613 299.342 281.905 292.62C282.644 292.668 283.371 292.7 284.071 292.7C288.718 292.7 292.499 291.631 295.178 289.579C295.704 289.79 296.266 289.899 296.834 289.9C298.834 289.894 300.595 288.577 301.166 286.66C301.736 284.742 300.982 282.677 299.31 281.578C299.469 277.929 298.058 273.787 295.186 269.5C298.058 265.214 299.469 261.073 299.31 257.422C301.269 256.158 301.946 253.611 300.873 251.54C299.8 249.47 297.329 248.555 295.166 249.426C292.087 247.07 287.54 246.026 281.906 246.394C278.617 239.663 273.867 235.5 268.5 235.5C263.134 235.5 258.386 239.659 255.095 246.386C253.464 246.269 251.825 246.289 250.197 246.446C249.89 246.47 249.607 246.621 249.416 246.861C249.224 247.102 249.141 247.412 249.187 247.716C249.278 248.318 249.819 248.748 250.426 248.701C251.648 248.581 252.877 248.548 254.103 248.604C252.697 252.115 251.701 255.776 251.134 259.515C248.203 261.876 245.55 264.562 243.227 267.522C241.313 264.745 240.174 261.507 239.929 258.143C240.009 258.143 240.085 258.167 240.167 258.167C242.428 258.176 244.353 256.523 244.687 254.287C245.021 252.05 243.661 249.908 241.496 249.257C239.33 248.605 237.015 249.643 236.06 251.693C235.105 253.742 235.799 256.183 237.691 257.422C237.531 261.07 238.943 265.211 241.815 269.5C238.943 273.787 237.531 277.929 237.691 281.578C236.409 282.412 235.635 283.837 235.634 285.367ZM240.167 251.367C241.419 251.367 242.434 252.381 242.434 253.633C242.434 254.885 241.419 255.9 240.167 255.9C238.915 255.9 237.9 254.885 237.9 253.633C237.9 252.381 238.915 251.367 240.167 251.367ZM237.9 285.367C237.9 284.115 238.915 283.1 240.167 283.1C241.419 283.1 242.434 284.115 242.434 285.367C242.434 286.619 241.419 287.633 240.167 287.633C239.566 287.633 238.989 287.395 238.564 286.969C238.139 286.544 237.9 285.968 237.9 285.367ZM256.497 248.783C259.514 249.144 262.487 249.811 265.369 250.774C263.34 251.679 261.359 252.688 259.434 253.795C257.501 254.911 255.629 256.128 253.826 257.441C254.42 254.472 255.315 251.571 256.497 248.783ZM253.256 260.72C255.567 258.888 258.011 257.23 260.567 255.759C263.117 254.285 265.771 252.997 268.507 251.906C271.241 252.997 273.892 254.285 276.44 255.759C278.996 257.23 281.439 258.888 283.75 260.72C284.165 263.628 284.371 266.562 284.367 269.5C284.369 272.438 284.161 275.372 283.745 278.28C281.433 280.112 278.99 281.77 276.434 283.241C273.886 284.714 271.234 286.001 268.5 287.092C265.766 286.001 263.115 284.713 260.567 283.238C258.011 281.767 255.568 280.109 253.257 278.278C252.427 272.454 252.427 266.542 253.257 260.718L253.256 260.72ZM283.176 257.441C281.372 256.128 279.5 254.91 277.567 253.795C275.644 252.689 273.666 251.681 271.642 250.774C274.521 249.812 277.49 249.144 280.504 248.783C281.686 251.571 282.58 254.472 283.173 257.441H283.176ZM280.503 290.217C277.486 289.856 274.514 289.189 271.632 288.226C273.66 287.321 275.641 286.312 277.567 285.205C279.499 284.089 281.371 282.872 283.175 281.559C282.58 284.528 281.685 287.429 280.503 290.217ZM286.299 262.862C288.558 264.864 290.609 267.087 292.421 269.5C290.609 271.912 288.559 274.136 286.301 276.138C286.524 273.932 286.635 271.717 286.634 269.5C286.634 267.283 286.523 265.068 286.299 262.862ZM259.434 285.205C261.356 286.311 263.334 287.319 265.359 288.226C262.479 289.188 259.51 289.856 256.496 290.217C255.314 287.429 254.42 284.528 253.826 281.559C255.629 282.872 257.501 284.089 259.434 285.205ZM268.5 301.233C264.243 301.233 260.375 297.857 257.523 292.381C261.279 291.848 264.962 290.889 268.5 289.52C272.04 290.889 275.724 291.849 279.482 292.381C276.624 297.857 272.757 301.233 268.5 301.233ZM296.834 287.633C295.582 287.633 294.567 286.619 294.567 285.367C294.567 284.115 295.582 283.1 296.834 283.1C298.085 283.1 299.1 284.115 299.1 285.367C299.1 286.619 298.085 287.633 296.834 287.633ZM297.072 280.857C296.991 280.857 296.915 280.833 296.834 280.833C294.33 280.833 292.3 282.863 292.3 285.367C292.304 286.38 292.652 287.362 293.285 288.154C290.817 289.782 287.214 290.556 282.898 290.394C284.303 286.884 285.299 283.223 285.866 279.485C288.798 277.124 291.45 274.438 293.774 271.477C295.687 274.255 296.826 277.493 297.072 280.857ZM299.1 253.633C299.1 254.885 298.085 255.9 296.834 255.9C295.582 255.9 294.567 254.885 294.567 253.633C294.567 252.381 295.582 251.367 296.834 251.367C298.085 251.367 299.1 252.381 299.1 253.633ZM293.285 250.846C292.652 251.638 292.304 252.62 292.3 253.633C292.3 256.137 294.33 258.167 296.834 258.167C296.915 258.167 296.991 258.147 297.072 258.143C296.826 261.507 295.687 264.745 293.774 267.523C291.45 264.562 288.797 261.876 285.865 259.515C285.297 255.777 284.3 252.116 282.894 248.606C287.213 248.443 290.818 249.213 293.285 250.846ZM268.5 237.767C272.757 237.767 276.625 241.143 279.478 246.619C275.723 247.152 272.042 248.112 268.506 249.48C264.966 248.111 261.281 247.151 257.524 246.618C260.376 241.143 264.243 237.767 268.5 237.767ZM250.707 262.862C250.261 267.276 250.261 271.724 250.707 276.138C248.446 274.137 246.393 271.913 244.579 269.5C246.393 267.087 248.446 264.863 250.707 262.862ZM243.227 271.475C245.551 274.436 248.205 277.122 251.136 279.482C251.704 283.222 252.701 286.884 254.107 290.395C249.793 290.558 246.188 289.782 243.72 288.154C244.352 287.362 244.697 286.38 244.7 285.367C244.7 282.863 242.671 280.833 240.167 280.833C240.085 280.833 240.009 280.854 239.929 280.857C240.175 277.493 241.313 274.255 243.227 271.478V271.475Z" fill="#175A5A"/>
</g>
<path d="M369 64.9462C369 55.5871 376.587 48 385.946 48H470.054C479.413 48 487 55.5871 487 64.9462V80C487 89.3592 479.413 96.9462 470.054 96.9462H385.946C376.587 96.9462 369 89.3591 369 80V64.9462Z" fill="#EFEFF4"/>
<rect x="385" y="60.4731" width="24" height="24" rx="4" fill="#FFEC00"/>
<path d="M398.439 74.0547L397.538 75.3169L398.442 76.5824C398.508 76.6728 398.538 76.7847 398.526 76.8961C398.514 77.0075 398.46 77.1102 398.375 77.1839C398.329 77.2227 398.275 77.2515 398.218 77.2685C398.16 77.2854 398.099 77.2903 398.039 77.2827C397.979 77.2751 397.922 77.2552 397.87 77.2243C397.818 77.1934 397.773 77.1521 397.738 77.103L397 76.0694L396.263 77.1024C396.228 77.1515 396.183 77.1927 396.131 77.2237C396.08 77.2546 396.022 77.2745 395.962 77.2822C395.902 77.2898 395.842 77.285 395.784 77.2681C395.726 77.2512 395.672 77.2226 395.626 77.1839C395.542 77.1104 395.488 77.0077 395.475 76.8963C395.463 76.7848 395.493 76.6728 395.559 76.5824L396.463 75.3169L395.562 74.0547C395.493 73.9614 395.463 73.8452 395.478 73.7302C395.493 73.6153 395.551 73.5105 395.641 73.4378C395.688 73.4023 395.741 73.3765 395.798 73.3619C395.855 73.3474 395.914 73.3444 395.972 73.3531C396.03 73.3618 396.085 73.3821 396.135 73.4127C396.185 73.4433 396.229 73.4837 396.263 73.5313L397 74.5644L397.738 73.5313C397.772 73.4837 397.816 73.4433 397.866 73.4127C397.915 73.3821 397.971 73.3618 398.029 73.3531C398.087 73.3444 398.146 73.3474 398.203 73.3619C398.26 73.3765 398.313 73.4023 398.359 73.4378C398.45 73.5105 398.508 73.6153 398.523 73.7302C398.538 73.8452 398.508 73.9614 398.439 74.0547ZM394.594 73.3481H392.421C392.308 73.3465 392.199 73.3877 392.115 73.4635C392.031 73.5393 391.979 73.644 391.969 73.7567C391.965 73.8165 391.974 73.8765 391.994 73.933C392.014 73.9895 392.046 74.0412 392.087 74.0849C392.128 74.1287 392.177 74.1635 392.232 74.1873C392.287 74.2111 392.347 74.2233 392.407 74.2231H393.063V76.8334C393.061 76.9465 393.102 77.056 393.178 77.14C393.254 77.2239 393.359 77.276 393.471 77.2856C393.531 77.2896 393.591 77.2812 393.648 77.261C393.704 77.2408 393.756 77.2092 393.8 77.1682C393.844 77.1272 393.878 77.0776 393.902 77.0225C393.926 76.9675 393.938 76.9081 393.938 76.8481V74.2231H394.579C394.693 74.2248 394.802 74.1836 394.886 74.1078C394.97 74.032 395.022 73.9273 395.032 73.8146C395.036 73.7548 395.027 73.6948 395.007 73.6383C394.987 73.5818 394.955 73.5301 394.914 73.4864C394.873 73.4426 394.824 73.4078 394.769 73.384C394.714 73.3602 394.654 73.348 394.594 73.3481ZM401.594 73.3481H399.421C399.309 73.3468 399.199 73.3881 399.116 73.4638C399.032 73.5396 398.98 73.6442 398.97 73.7567C398.966 73.8165 398.975 73.8765 398.995 73.933C399.015 73.9895 399.047 74.0412 399.088 74.0849C399.129 74.1287 399.178 74.1635 399.233 74.1873C399.288 74.2111 399.348 74.2233 399.408 74.2231H400.064V76.8334C400.063 76.9463 400.104 77.0556 400.18 77.1393C400.255 77.223 400.36 77.2749 400.473 77.2846C400.532 77.2885 400.592 77.2802 400.649 77.26C400.705 77.2397 400.757 77.2082 400.801 77.1671C400.845 77.1261 400.879 77.0765 400.903 77.0215C400.927 76.9664 400.939 76.907 400.939 76.8471V74.2231H401.581C401.693 74.2245 401.803 74.1832 401.886 74.1074C401.97 74.0317 402.022 73.9271 402.032 73.8146C402.036 73.7548 402.027 73.6948 402.007 73.6383C401.987 73.5818 401.955 73.5301 401.914 73.4864C401.873 73.4426 401.824 73.4078 401.769 73.384C401.714 73.3602 401.654 73.348 401.594 73.3481ZM392.188 71.8169V67.6606C392.188 67.4286 392.28 67.206 392.444 67.0419C392.608 66.8778 392.831 66.7856 393.063 66.7856H398.313C398.37 66.7856 398.427 66.7969 398.48 66.8188C398.534 66.8408 398.582 66.873 398.623 66.9136L401.685 69.9761C401.726 70.0168 401.758 70.065 401.78 70.1181C401.802 70.1713 401.813 70.2282 401.813 70.2856V71.8169C401.813 71.8749 401.79 71.9306 401.749 71.9716C401.708 72.0126 401.652 72.0356 401.594 72.0356H392.407C392.349 72.0356 392.293 72.0126 392.252 71.9716C392.211 71.9306 392.188 71.8749 392.188 71.8169ZM398.313 70.2856H400.719L398.313 67.8794V70.2856Z" fill="#175A5A"/>
<path d="M422.091 78.4731H418.148V66.8368H422.17C423.326 66.8368 424.318 67.0697 425.148 67.5356C425.981 67.9978 426.621 68.6625 427.068 69.53C427.515 70.3974 427.739 71.4353 427.739 72.6436C427.739 73.8557 427.513 74.8974 427.062 75.7686C426.616 76.6398 425.97 77.3084 425.125 77.7743C424.284 78.2402 423.273 78.4731 422.091 78.4731ZM420.256 76.6493H421.989C422.799 76.6493 423.475 76.5016 424.017 76.2061C424.559 75.9069 424.966 75.4618 425.239 74.8709C425.511 74.2762 425.648 73.5338 425.648 72.6436C425.648 71.7534 425.511 71.0148 425.239 70.4277C424.966 69.8368 424.563 69.3955 424.028 69.1038C423.498 68.8084 422.839 68.6606 422.051 68.6606H420.256V76.6493ZM438.423 69.297H439.747C439.747 69.9258 439.656 70.4542 439.474 70.8822C439.296 71.3065 438.991 71.6266 438.56 71.8425C438.128 72.0584 437.531 72.1663 436.77 72.1663V71.1322C437.277 71.1322 437.647 71.0678 437.878 70.9391C438.109 70.8065 438.257 70.6038 438.321 70.3311C438.385 70.0584 438.42 69.7137 438.423 69.297ZM435.247 74.8027V69.7459H437.31V78.4731H435.31V76.922H435.219C435.022 77.4106 434.698 77.8103 434.247 78.1209C433.8 78.4315 433.249 78.5868 432.594 78.5868C432.022 78.5868 431.516 78.4599 431.077 78.2061C430.641 77.9485 430.3 77.5754 430.054 77.0868C429.808 76.5944 429.685 75.9997 429.685 75.3027V69.7459H431.741V74.9845C431.745 75.5375 431.897 75.9769 432.196 76.3027C432.499 76.6284 432.897 76.7913 433.389 76.7913C433.692 76.7913 433.986 76.7175 434.27 76.5697C434.558 76.422 434.793 76.2023 434.974 75.9106C435.16 75.6152 435.251 75.2459 435.247 74.8027ZM431.838 68.6834L430.594 68.655C430.594 67.9807 430.768 67.4523 431.116 67.0697C431.465 66.6872 431.895 66.4959 432.406 66.4959C432.652 66.4959 432.866 66.5375 433.048 66.6209C433.23 66.7004 433.397 66.7932 433.548 66.8993C433.704 67.0053 433.855 67.1 434.003 67.1834C434.151 67.2629 434.313 67.3027 434.491 67.3027C434.707 67.3027 434.878 67.2213 435.003 67.0584C435.132 66.8955 435.198 66.6872 435.202 66.4334L436.423 66.4845C436.42 67.1625 436.243 67.6891 435.895 68.0641C435.546 68.4353 435.118 68.6228 434.611 68.6266C434.338 68.6303 434.109 68.5906 433.923 68.5072C433.738 68.4239 433.575 68.3292 433.435 68.2231C433.298 68.1171 433.16 68.0243 433.02 67.9447C432.88 67.8614 432.715 67.8197 432.526 67.8197C432.325 67.8197 432.16 67.8993 432.031 68.0584C431.902 68.2175 431.838 68.4258 431.838 68.6834ZM446.551 66.8368V78.4731H444.494V66.8368H446.551ZM448.666 78.4731V69.7459H450.723V78.4731H448.666ZM449.7 68.5072C449.375 68.5072 449.094 68.3993 448.859 68.1834C448.625 67.9637 448.507 67.7004 448.507 67.3936C448.507 67.083 448.625 66.8197 448.859 66.6038C449.094 66.3841 449.375 66.2743 449.7 66.2743C450.03 66.2743 450.31 66.3841 450.541 66.6038C450.776 66.8197 450.893 67.083 450.893 67.3936C450.893 67.7004 450.776 67.9637 450.541 68.1834C450.31 68.3993 450.03 68.5072 449.7 68.5072ZM456.702 78.6436C455.827 78.6436 455.071 78.4618 454.435 78.0981C453.802 77.7307 453.315 77.2118 452.974 76.5413C452.634 75.8671 452.463 75.0735 452.463 74.1606C452.463 73.2629 452.634 72.475 452.974 71.797C453.319 71.1152 453.8 70.5849 454.418 70.2061C455.035 69.8235 455.76 69.6322 456.594 69.6322C457.132 69.6322 457.639 69.7194 458.116 69.8936C458.598 70.0641 459.022 70.3292 459.389 70.6891C459.76 71.0489 460.052 71.5072 460.264 72.0641C460.476 72.6171 460.582 73.2762 460.582 74.0413V74.672H453.429V73.2856H458.611C458.607 72.8917 458.522 72.5413 458.355 72.2345C458.188 71.9239 457.955 71.6796 457.656 71.5016C457.361 71.3235 457.016 71.2345 456.622 71.2345C456.202 71.2345 455.832 71.3368 455.514 71.5413C455.196 71.7421 454.948 72.0072 454.77 72.3368C454.596 72.6625 454.507 73.0205 454.503 73.4106V74.6209C454.503 75.1284 454.596 75.5641 454.781 75.9277C454.967 76.2875 455.226 76.5641 455.56 76.7572C455.893 76.9466 456.283 77.0413 456.73 77.0413C457.029 77.0413 457.3 76.9997 457.543 76.9163C457.785 76.8292 457.995 76.7023 458.173 76.5356C458.351 76.369 458.486 76.1625 458.577 75.9163L460.497 76.1322C460.376 76.6398 460.145 77.083 459.804 77.4618C459.467 77.8368 459.035 78.1284 458.509 78.3368C457.982 78.5413 457.38 78.6436 456.702 78.6436ZM457.69 68.7004L456.537 67.2459L455.384 68.7004H453.582V68.6209L455.736 66.1663H457.344L459.491 68.6209V68.7004H457.69ZM456.537 81.6152C456.207 81.6152 455.925 81.5053 455.69 81.2856C455.459 81.0659 455.344 80.8027 455.344 80.4959C455.344 80.1891 455.459 79.9258 455.69 79.7061C455.925 79.4864 456.205 79.3766 456.531 79.3766C456.861 79.3766 457.141 79.4864 457.372 79.7061C457.607 79.9258 457.724 80.1891 457.724 80.4959C457.724 80.8027 457.607 81.0659 457.372 81.2856C457.141 81.5053 456.863 81.6152 456.537 81.6152ZM467.885 74.8027V69.7459H469.942V78.4731H467.947V76.922H467.857C467.66 77.4106 467.336 77.8103 466.885 78.1209C466.438 78.4315 465.887 78.5868 465.232 78.5868C464.66 78.5868 464.154 78.4599 463.714 78.2061C463.279 77.9485 462.938 77.5754 462.692 77.0868C462.446 76.5944 462.322 75.9997 462.322 75.3027V69.7459H464.379V74.9845C464.379 75.5375 464.531 75.9769 464.834 76.3027C465.137 76.6284 465.535 76.7913 466.027 76.7913C466.33 76.7913 466.624 76.7175 466.908 76.5697C467.192 76.422 467.425 76.2023 467.607 75.9106C467.792 75.6152 467.885 75.2459 467.885 74.8027Z" fill="#292929"/>
<path d="M33 141.946C33 132.587 40.5871 125 49.9462 125H134.054C143.413 125 151 132.587 151 141.946V157C151 166.359 143.413 173.946 134.054 173.946H49.9462C40.5871 173.946 33 166.359 33 157V141.946Z" fill="#EFEFF4"/>
<rect x="49" y="137.473" width="24" height="24" rx="4" fill="#FFEC00"/>
<path d="M65.6855 146.976L62.623 143.914C62.5824 143.873 62.5341 143.841 62.481 143.819C62.4279 143.797 62.371 143.786 62.3135 143.786H57.0635C56.8314 143.786 56.6089 143.878 56.4448 144.042C56.2807 144.206 56.1885 144.429 56.1885 144.661V148.817C56.1885 148.875 56.2115 148.931 56.2526 148.972C56.2936 149.013 56.3492 149.036 56.4072 149.036H65.5947C65.6528 149.036 65.7084 149.013 65.7494 148.972C65.7904 148.931 65.8135 148.875 65.8135 148.817V147.286C65.8135 147.228 65.8023 147.171 65.7803 147.118C65.7583 147.065 65.7261 147.017 65.6855 146.976ZM62.3135 147.286V144.879L64.7197 147.286H62.3135ZM58.8036 153.209C58.7866 153.376 58.7327 153.538 58.6458 153.682C58.5589 153.826 58.4412 153.949 58.3011 154.042C58.0172 154.231 57.6651 154.286 57.3446 154.286C57.0651 154.284 56.787 154.247 56.5166 154.176C56.4062 154.144 56.313 154.069 56.2571 153.969C56.2012 153.868 56.1873 153.75 56.2182 153.639C56.2491 153.528 56.3225 153.434 56.4223 153.377C56.5222 153.32 56.6406 153.304 56.7518 153.334C56.9913 153.399 57.5694 153.481 57.8209 153.314C57.869 153.282 57.921 153.231 57.9379 153.099C57.9571 152.953 57.8991 152.875 57.239 152.684C56.7277 152.536 55.8719 152.288 55.9812 151.42C55.9983 151.256 56.0512 151.098 56.1362 150.956C56.2213 150.815 56.3364 150.694 56.4734 150.602C57.1209 150.165 58.1534 150.421 58.2688 150.452C58.3811 150.481 58.477 150.554 58.5355 150.654C58.594 150.754 58.6103 150.874 58.5808 150.986C58.5513 151.098 58.4784 151.194 58.3781 151.253C58.2779 151.311 58.1585 151.328 58.0462 151.298C57.8012 151.234 57.2133 151.158 56.9618 151.329C56.9288 151.351 56.9017 151.381 56.8826 151.416C56.8636 151.451 56.8532 151.49 56.8524 151.529C56.8464 151.579 56.8447 151.589 56.9136 151.633C57.04 151.715 57.2658 151.78 57.4851 151.843C58.0205 151.998 58.9261 152.262 58.8036 153.209ZM62.2883 150.933L61.2001 153.98C61.1738 154.058 61.1269 154.127 61.0642 154.18C61.0016 154.233 60.9257 154.268 60.8446 154.281C60.7447 154.296 60.6429 154.275 60.5565 154.223C60.4701 154.171 60.4044 154.09 60.3704 153.995L59.2833 150.95C59.2425 150.841 59.2454 150.721 59.2913 150.614C59.3371 150.508 59.4225 150.423 59.5294 150.378C59.5839 150.357 59.6422 150.347 59.7007 150.348C59.7592 150.35 59.8169 150.363 59.8702 150.387C59.9235 150.412 59.9713 150.446 60.011 150.49C60.0506 150.533 60.0811 150.583 60.1008 150.639L60.7822 152.547L61.4637 150.639C61.5027 150.529 61.5835 150.44 61.6884 150.39C61.7932 150.341 61.9135 150.335 62.0228 150.374C62.1321 150.413 62.2214 150.493 62.2711 150.598C62.3208 150.703 62.3268 150.823 62.2878 150.933H62.2883ZM65.8135 152.536V153.458C65.8135 153.572 65.7691 153.681 65.6899 153.763C65.5377 153.926 65.3538 154.057 65.1494 154.147C64.945 154.237 64.7243 154.284 64.501 154.286C63.5363 154.286 62.751 153.402 62.751 152.317C62.751 151.231 63.5363 150.348 64.501 150.348C64.8139 150.349 65.1198 150.441 65.3809 150.614C65.4757 150.673 65.545 150.766 65.5754 150.873C65.6057 150.981 65.5949 151.096 65.545 151.196C65.5162 151.25 65.4764 151.297 65.4281 151.335C65.3797 151.373 65.324 151.4 65.2645 151.415C65.205 151.43 65.143 151.432 65.0826 151.421C65.0222 151.411 64.9647 151.388 64.9139 151.353C64.7927 151.269 64.6487 151.224 64.501 151.223C64.0187 151.223 63.626 151.715 63.626 152.317C63.626 152.918 64.0187 153.411 64.501 153.411C64.659 153.41 64.8125 153.358 64.9385 153.262V152.973C64.8785 152.973 64.8192 152.961 64.7641 152.937C64.709 152.914 64.6594 152.879 64.6184 152.835C64.5774 152.791 64.5458 152.739 64.5256 152.683C64.5054 152.627 64.497 152.567 64.501 152.507C64.5108 152.394 64.5628 152.289 64.6466 152.214C64.7304 152.138 64.8397 152.097 64.9527 152.098H65.376C65.492 152.098 65.6033 152.144 65.6854 152.226C65.7674 152.308 65.8135 152.42 65.8135 152.536Z" fill="#175A5A"/>
<path d="M86.0909 155.473H82.1477V143.837H86.1705C87.3258 143.837 88.3182 144.07 89.1477 144.536C89.9811 144.998 90.6212 145.663 91.0682 146.53C91.5152 147.397 91.7386 148.435 91.7386 149.644C91.7386 150.856 91.5133 151.897 91.0625 152.769C90.6155 153.64 89.9697 154.308 89.125 154.774C88.2841 155.24 87.2727 155.473 86.0909 155.473ZM84.2557 153.649H85.9886C86.7992 153.649 87.4754 153.502 88.017 153.206C88.5587 152.907 88.9659 152.462 89.2386 151.871C89.5114 151.276 89.6477 150.534 89.6477 149.644C89.6477 148.753 89.5114 148.015 89.2386 147.428C88.9659 146.837 88.5625 146.395 88.0284 146.104C87.4981 145.808 86.839 145.661 86.0511 145.661H84.2557V153.649ZM102.423 146.297H103.747C103.747 146.926 103.656 147.454 103.474 147.882C103.296 148.306 102.991 148.627 102.56 148.842C102.128 149.058 101.531 149.166 100.77 149.166V148.132C101.277 148.132 101.647 148.068 101.878 147.939C102.109 147.806 102.257 147.604 102.321 147.331C102.385 147.058 102.42 146.714 102.423 146.297ZM99.2472 151.803V146.746H101.31V155.473H99.3097V153.922H99.2188C99.0218 154.411 98.6979 154.81 98.2472 155.121C97.8002 155.431 97.2491 155.587 96.5938 155.587C96.0218 155.587 95.5161 155.46 95.0767 155.206C94.6411 154.949 94.3002 154.575 94.054 154.087C93.8078 153.594 93.6847 153 93.6847 152.303V146.746H95.7415V151.985C95.7453 152.538 95.8968 152.977 96.196 153.303C96.4991 153.628 96.8968 153.791 97.3892 153.791C97.6922 153.791 97.9858 153.717 98.2699 153.57C98.5578 153.422 98.7926 153.202 98.9744 152.911C99.16 152.615 99.2509 152.246 99.2472 151.803ZM95.8381 145.683L94.5938 145.655C94.5938 144.981 94.768 144.452 95.1165 144.07C95.465 143.687 95.8949 143.496 96.4062 143.496C96.6525 143.496 96.8665 143.538 97.0483 143.621C97.2301 143.7 97.3968 143.793 97.5483 143.899C97.7036 144.005 97.8551 144.1 98.0028 144.183C98.1506 144.263 98.3134 144.303 98.4915 144.303C98.7074 144.303 98.8778 144.221 99.0028 144.058C99.1316 143.895 99.1979 143.687 99.2017 143.433L100.423 143.485C100.42 144.163 100.243 144.689 99.8949 145.064C99.5464 145.435 99.1184 145.623 98.6108 145.627C98.3381 145.63 98.1089 145.591 97.9233 145.507C97.7377 145.424 97.5748 145.329 97.4347 145.223C97.2983 145.117 97.16 145.024 97.0199 144.945C96.8797 144.861 96.715 144.82 96.5256 144.82C96.3248 144.82 96.16 144.899 96.0312 145.058C95.9025 145.217 95.8381 145.426 95.8381 145.683ZM110.551 143.837V155.473H108.494V143.837H110.551ZM112.666 155.473V146.746H114.723V155.473H112.666ZM113.7 145.507C113.375 145.507 113.094 145.399 112.859 145.183C112.625 144.964 112.507 144.7 112.507 144.394C112.507 144.083 112.625 143.82 112.859 143.604C113.094 143.384 113.375 143.274 113.7 143.274C114.03 143.274 114.31 143.384 114.541 143.604C114.776 143.82 114.893 144.083 114.893 144.394C114.893 144.7 114.776 144.964 114.541 145.183C114.31 145.399 114.03 145.507 113.7 145.507ZM120.702 155.644C119.827 155.644 119.071 155.462 118.435 155.098C117.802 154.731 117.315 154.212 116.974 153.541C116.634 152.867 116.463 152.074 116.463 151.161C116.463 150.263 116.634 149.475 116.974 148.797C117.319 148.115 117.8 147.585 118.418 147.206C119.035 146.824 119.76 146.632 120.594 146.632C121.132 146.632 121.639 146.719 122.116 146.894C122.598 147.064 123.022 147.329 123.389 147.689C123.76 148.049 124.052 148.507 124.264 149.064C124.476 149.617 124.582 150.276 124.582 151.041V151.672H117.429V150.286H122.611C122.607 149.892 122.522 149.541 122.355 149.235C122.188 148.924 121.955 148.68 121.656 148.502C121.361 148.324 121.016 148.235 120.622 148.235C120.202 148.235 119.832 148.337 119.514 148.541C119.196 148.742 118.948 149.007 118.77 149.337C118.596 149.663 118.507 150.02 118.503 150.411V151.621C118.503 152.128 118.596 152.564 118.781 152.928C118.967 153.288 119.226 153.564 119.56 153.757C119.893 153.947 120.283 154.041 120.73 154.041C121.029 154.041 121.3 154 121.543 153.916C121.785 153.829 121.995 153.702 122.173 153.536C122.351 153.369 122.486 153.163 122.577 152.916L124.497 153.132C124.376 153.64 124.145 154.083 123.804 154.462C123.467 154.837 123.035 155.128 122.509 155.337C121.982 155.541 121.38 155.644 120.702 155.644ZM121.69 145.7L120.537 144.246L119.384 145.7H117.582V145.621L119.736 143.166H121.344L123.491 145.621V145.7H121.69ZM120.537 158.615C120.207 158.615 119.925 158.505 119.69 158.286C119.459 158.066 119.344 157.803 119.344 157.496C119.344 157.189 119.459 156.926 119.69 156.706C119.925 156.486 120.205 156.377 120.531 156.377C120.861 156.377 121.141 156.486 121.372 156.706C121.607 156.926 121.724 157.189 121.724 157.496C121.724 157.803 121.607 158.066 121.372 158.286C121.141 158.505 120.863 158.615 120.537 158.615ZM131.885 151.803V146.746H133.942V155.473H131.947V153.922H131.857C131.66 154.411 131.336 154.81 130.885 155.121C130.438 155.431 129.887 155.587 129.232 155.587C128.66 155.587 128.154 155.46 127.714 155.206C127.279 154.949 126.938 154.575 126.692 154.087C126.446 153.594 126.322 153 126.322 152.303V146.746H128.379V151.985C128.379 152.538 128.531 152.977 128.834 153.303C129.137 153.628 129.535 153.791 130.027 153.791C130.33 153.791 130.624 153.717 130.908 153.57C131.192 153.422 131.425 153.202 131.607 152.911C131.792 152.615 131.885 152.246 131.885 151.803Z" fill="#292929"/>
<line x1="271" y1="48" x2="271" y2="213" stroke="url(#paint16_linear_534_4374)" stroke-width="6"/>
<path d="M375 141.946C375 132.587 382.587 125 391.946 125H476.054C485.413 125 493 132.587 493 141.946V157C493 166.359 485.413 173.946 476.054 173.946H391.946C382.587 173.946 375 166.359 375 157V141.946Z" fill="#EFEFF4"/>
<rect x="391" y="137.473" width="24" height="24" rx="4" fill="#175A5A"/>
<path d="M408.25 150.815C408.241 150.927 408.189 151.032 408.105 151.108C408.022 151.183 407.912 151.225 407.799 151.223H407.157V153.833C407.158 153.946 407.117 154.056 407.041 154.139C406.965 154.223 406.861 154.275 406.748 154.285C406.688 154.289 406.628 154.28 406.572 154.26C406.515 154.24 406.464 154.208 406.42 154.167C406.376 154.126 406.341 154.077 406.318 154.021C406.294 153.966 406.282 153.907 406.282 153.847V151.223H405.64C405.527 151.225 405.418 151.183 405.334 151.108C405.251 151.032 405.199 150.927 405.189 150.815C405.185 150.755 405.193 150.695 405.214 150.638C405.234 150.582 405.265 150.53 405.307 150.486C405.348 150.443 405.397 150.408 405.452 150.384C405.507 150.36 405.567 150.348 405.627 150.348H407.814C407.874 150.348 407.933 150.36 407.988 150.384C408.043 150.408 408.093 150.443 408.133 150.487C408.174 150.53 408.206 150.582 408.226 150.639C408.246 150.695 408.254 150.755 408.25 150.815ZM401.032 151.926C401.007 152.759 400.301 153.411 399.468 153.411H399.063V153.833C399.065 153.946 399.024 154.056 398.948 154.14C398.872 154.224 398.767 154.276 398.654 154.286C398.595 154.29 398.535 154.281 398.478 154.261C398.422 154.241 398.37 154.209 398.326 154.168C398.282 154.127 398.248 154.078 398.224 154.023C398.2 153.967 398.188 153.908 398.188 153.848V150.786C398.188 150.67 398.234 150.558 398.316 150.476C398.398 150.394 398.509 150.348 398.625 150.348H399.5C399.706 150.348 399.909 150.389 400.097 150.469C400.286 150.549 400.457 150.666 400.6 150.813C400.743 150.96 400.855 151.134 400.929 151.326C401.003 151.517 401.038 151.721 401.032 151.926ZM400.157 151.817C400.138 151.651 400.058 151.499 399.933 151.39C399.809 151.28 399.647 151.221 399.481 151.223H399.063V152.536H399.5C399.592 152.536 399.683 152.517 399.767 152.48C399.851 152.443 399.927 152.389 399.988 152.322C400.05 152.254 400.097 152.174 400.126 152.087C400.155 152 400.166 151.907 400.157 151.816V151.817ZM404.75 151.926C404.725 152.759 404.02 153.411 403.186 153.411H402.782V153.833C402.783 153.946 402.742 154.056 402.666 154.139C402.59 154.223 402.486 154.275 402.373 154.285C402.313 154.289 402.253 154.28 402.197 154.26C402.14 154.24 402.089 154.208 402.045 154.167C402.001 154.126 401.966 154.077 401.943 154.021C401.919 153.966 401.907 153.907 401.907 153.847V150.786C401.907 150.67 401.953 150.558 402.035 150.476C402.117 150.394 402.228 150.348 402.344 150.348H403.219C403.424 150.348 403.627 150.389 403.816 150.469C404.005 150.549 404.176 150.666 404.319 150.813C404.462 150.96 404.573 151.134 404.648 151.326C404.722 151.517 404.757 151.721 404.75 151.926ZM403.875 151.817C403.857 151.651 403.777 151.499 403.652 151.39C403.527 151.28 403.366 151.221 403.2 151.223H402.782V152.536H403.219C403.311 152.536 403.402 152.517 403.486 152.48C403.57 152.443 403.645 152.389 403.707 152.322C403.769 152.254 403.816 152.174 403.845 152.087C403.874 152 403.884 151.907 403.875 151.816V151.817ZM398.188 148.817V144.661C398.188 144.429 398.28 144.206 398.444 144.042C398.608 143.878 398.831 143.786 399.063 143.786H404.313C404.37 143.786 404.427 143.797 404.48 143.819C404.534 143.841 404.582 143.873 404.623 143.914L407.685 146.976C407.726 147.017 407.758 147.065 407.78 147.118C407.802 147.171 407.813 147.228 407.813 147.286V148.817C407.813 148.875 407.79 148.931 407.749 148.972C407.708 149.013 407.652 149.036 407.594 149.036H398.407C398.349 149.036 398.293 149.013 398.252 148.972C398.211 148.931 398.188 148.875 398.188 148.817ZM404.313 147.286H406.719L404.313 144.879V147.286Z" fill="white"/>
<path d="M428.091 155.473H424.148V143.837H428.17C429.326 143.837 430.318 144.07 431.148 144.536C431.981 144.998 432.621 145.663 433.068 146.53C433.515 147.397 433.739 148.435 433.739 149.644C433.739 150.856 433.513 151.897 433.062 152.769C432.616 153.64 431.97 154.308 431.125 154.774C430.284 155.24 429.273 155.473 428.091 155.473ZM426.256 153.649H427.989C428.799 153.649 429.475 153.502 430.017 153.206C430.559 152.907 430.966 152.462 431.239 151.871C431.511 151.276 431.648 150.534 431.648 149.644C431.648 148.753 431.511 148.015 431.239 147.428C430.966 146.837 430.563 146.395 430.028 146.104C429.498 145.808 428.839 145.661 428.051 145.661H426.256V153.649ZM444.423 146.297H445.747C445.747 146.926 445.656 147.454 445.474 147.882C445.296 148.306 444.991 148.627 444.56 148.842C444.128 149.058 443.531 149.166 442.77 149.166V148.132C443.277 148.132 443.647 148.068 443.878 147.939C444.109 147.806 444.257 147.604 444.321 147.331C444.385 147.058 444.42 146.714 444.423 146.297ZM441.247 151.803V146.746H443.31V155.473H441.31V153.922H441.219C441.022 154.411 440.698 154.81 440.247 155.121C439.8 155.431 439.249 155.587 438.594 155.587C438.022 155.587 437.516 155.46 437.077 155.206C436.641 154.949 436.3 154.575 436.054 154.087C435.808 153.594 435.685 153 435.685 152.303V146.746H437.741V151.985C437.745 152.538 437.897 152.977 438.196 153.303C438.499 153.628 438.897 153.791 439.389 153.791C439.692 153.791 439.986 153.717 440.27 153.57C440.558 153.422 440.793 153.202 440.974 152.911C441.16 152.615 441.251 152.246 441.247 151.803ZM437.838 145.683L436.594 145.655C436.594 144.981 436.768 144.452 437.116 144.07C437.465 143.687 437.895 143.496 438.406 143.496C438.652 143.496 438.866 143.538 439.048 143.621C439.23 143.7 439.397 143.793 439.548 143.899C439.704 144.005 439.855 144.1 440.003 144.183C440.151 144.263 440.313 144.303 440.491 144.303C440.707 144.303 440.878 144.221 441.003 144.058C441.132 143.895 441.198 143.687 441.202 143.433L442.423 143.485C442.42 144.163 442.243 144.689 441.895 145.064C441.546 145.435 441.118 145.623 440.611 145.627C440.338 145.63 440.109 145.591 439.923 145.507C439.738 145.424 439.575 145.329 439.435 145.223C439.298 145.117 439.16 145.024 439.02 144.945C438.88 144.861 438.715 144.82 438.526 144.82C438.325 144.82 438.16 144.899 438.031 145.058C437.902 145.217 437.838 145.426 437.838 145.683ZM452.551 143.837V155.473H450.494V143.837H452.551ZM454.666 155.473V146.746H456.723V155.473H454.666ZM455.7 145.507C455.375 145.507 455.094 145.399 454.859 145.183C454.625 144.964 454.507 144.7 454.507 144.394C454.507 144.083 454.625 143.82 454.859 143.604C455.094 143.384 455.375 143.274 455.7 143.274C456.03 143.274 456.31 143.384 456.541 143.604C456.776 143.82 456.893 144.083 456.893 144.394C456.893 144.7 456.776 144.964 456.541 145.183C456.31 145.399 456.03 145.507 455.7 145.507ZM462.702 155.644C461.827 155.644 461.071 155.462 460.435 155.098C459.802 154.731 459.315 154.212 458.974 153.541C458.634 152.867 458.463 152.074 458.463 151.161C458.463 150.263 458.634 149.475 458.974 148.797C459.319 148.115 459.8 147.585 460.418 147.206C461.035 146.824 461.76 146.632 462.594 146.632C463.132 146.632 463.639 146.719 464.116 146.894C464.598 147.064 465.022 147.329 465.389 147.689C465.76 148.049 466.052 148.507 466.264 149.064C466.476 149.617 466.582 150.276 466.582 151.041V151.672H459.429V150.286H464.611C464.607 149.892 464.522 149.541 464.355 149.235C464.188 148.924 463.955 148.68 463.656 148.502C463.361 148.324 463.016 148.235 462.622 148.235C462.202 148.235 461.832 148.337 461.514 148.541C461.196 148.742 460.948 149.007 460.77 149.337C460.596 149.663 460.507 150.02 460.503 150.411V151.621C460.503 152.128 460.596 152.564 460.781 152.928C460.967 153.288 461.226 153.564 461.56 153.757C461.893 153.947 462.283 154.041 462.73 154.041C463.029 154.041 463.3 154 463.543 153.916C463.785 153.829 463.995 153.702 464.173 153.536C464.351 153.369 464.486 153.163 464.577 152.916L466.497 153.132C466.376 153.64 466.145 154.083 465.804 154.462C465.467 154.837 465.035 155.128 464.509 155.337C463.982 155.541 463.38 155.644 462.702 155.644ZM463.69 145.7L462.537 144.246L461.384 145.7H459.582V145.621L461.736 143.166H463.344L465.491 145.621V145.7H463.69ZM462.537 158.615C462.207 158.615 461.925 158.505 461.69 158.286C461.459 158.066 461.344 157.803 461.344 157.496C461.344 157.189 461.459 156.926 461.69 156.706C461.925 156.486 462.205 156.377 462.531 156.377C462.861 156.377 463.141 156.486 463.372 156.706C463.607 156.926 463.724 157.189 463.724 157.496C463.724 157.803 463.607 158.066 463.372 158.286C463.141 158.505 462.863 158.615 462.537 158.615ZM473.885 151.803V146.746H475.942V155.473H473.947V153.922H473.857C473.66 154.411 473.336 154.81 472.885 155.121C472.438 155.431 471.887 155.587 471.232 155.587C470.66 155.587 470.154 155.46 469.714 155.206C469.279 154.949 468.938 154.575 468.692 154.087C468.446 153.594 468.322 153 468.322 152.303V146.746H470.379V151.985C470.379 152.538 470.531 152.977 470.834 153.303C471.137 153.628 471.535 153.791 472.027 153.791C472.33 153.791 472.624 153.717 472.908 153.57C473.192 153.422 473.425 153.202 473.607 152.911C473.792 152.615 473.885 152.246 473.885 151.803Z" fill="#292929"/>
<path d="M141.671 103.481L140.481 104.671C140.377 104.776 140.253 104.859 140.116 104.916C139.979 104.973 139.833 105.002 139.685 105.002C139.536 105.002 139.39 104.973 139.253 104.916C139.116 104.859 138.992 104.776 138.888 104.671L133.584 99.3674L131.781 104.07L131.769 104.101C131.654 104.369 131.463 104.597 131.22 104.756C130.976 104.916 130.691 105.001 130.4 105H130.326C130.023 104.987 129.73 104.881 129.489 104.697C129.247 104.513 129.068 104.258 128.975 103.969L124.075 88.9612C123.989 88.6986 123.978 88.4173 124.042 88.1485C124.106 87.8798 124.244 87.6341 124.439 87.4387C124.634 87.2433 124.88 87.1059 125.149 87.0417C125.418 86.9775 125.699 86.989 125.961 87.0749L140.969 91.9752C141.256 92.0712 141.507 92.2516 141.689 92.4928C141.872 92.734 141.977 93.0247 141.991 93.3268C142.006 93.629 141.928 93.9283 141.769 94.1857C141.611 94.443 141.378 94.6464 141.101 94.769L141.07 94.7812L136.368 96.5877L141.671 101.89C141.882 102.101 142.001 102.387 142.001 102.686C142.001 102.984 141.882 103.27 141.671 103.481Z" fill="#FFEC00"/>
<g filter="url(#filter1_f_534_4374)">
<path d="M87.4388 254.438L87.6907 254.547C90.2442 255.733 91.4463 258.727 90.3798 261.366L78.6338 290.439C77.5328 293.164 74.4304 294.481 71.7053 293.38L42.633 281.634C39.9079 280.533 38.5911 277.43 39.6921 274.705L51.438 245.633C52.5391 242.908 55.6414 241.591 58.3665 242.692L87.4388 254.438Z" fill="black" stroke="#0045AD" stroke-width="2"/>
<path d="M78.2382 270.374C79.6636 268.7 80.2976 266.493 79.9779 264.318C79.5184 260.994 76.9645 258.348 73.6588 257.772C72.9215 255.701 71.3275 254.048 69.2842 253.237C66.1778 251.974 62.6102 252.861 60.4583 255.433C58.2956 255.035 56.0662 255.589 54.3414 256.953C51.6935 259.013 50.679 262.548 51.8322 265.698C50.4067 267.371 49.7728 269.579 50.0924 271.754C50.5518 275.078 53.1057 277.724 56.4115 278.3C57.1479 280.371 58.7427 282.023 60.7864 282.834C63.8942 284.099 67.4635 283.21 69.6164 280.635C71.7791 281.033 74.0085 280.48 75.7333 279.115C78.3795 277.055 79.3919 273.522 78.2396 270.372L78.2382 270.374ZM61.5379 280.979C60.2923 280.478 59.2624 279.555 58.629 278.371C58.6818 278.365 58.7741 278.354 58.835 278.344L65.8087 277.363C66.1643 277.315 66.4662 277.079 66.5988 276.746L69.8194 268.775L71.6515 271.12C71.6722 271.143 71.6791 271.174 71.6711 271.204L69.0041 277.805C67.8147 280.739 64.4759 282.159 61.5379 280.979ZM52.0781 271.477C51.8895 270.147 52.1752 268.794 52.8842 267.655C52.9159 267.697 52.9712 267.772 53.0114 267.823L57.3463 273.373C57.5652 273.656 57.9201 273.8 58.2754 273.748L66.7887 272.551L65.6737 275.311C65.664 275.34 65.6396 275.362 65.6102 275.371L58.5614 276.362C55.4233 276.799 52.524 274.614 52.079 271.477L52.0781 271.477ZM55.5766 258.533C56.6337 257.705 57.9477 257.276 59.2886 257.319C59.2689 257.368 59.2314 257.453 59.2071 257.513L56.568 264.045C56.4321 264.376 56.4853 264.756 56.7073 265.037L62 271.811L59.0528 272.225C59.0224 272.231 58.9912 272.222 58.9692 272.199L54.5872 266.587C52.6412 264.089 53.083 260.487 55.5754 258.534L55.5766 258.533ZM73.3644 271.035L68.072 264.26L71.0188 263.846C71.0493 263.84 71.0805 263.849 71.1025 263.872L75.4855 269.481C77.4364 271.98 76.9933 275.588 74.4947 277.539C73.4374 278.365 72.1243 278.794 70.7839 278.753L73.5018 272.025C73.6386 271.695 73.586 271.316 73.3652 271.035L73.3644 271.035L73.3644 271.035ZM77.1888 268.416C77.1575 268.373 77.1018 268.299 77.0616 268.248L72.7266 262.698C72.5078 262.414 72.1528 262.271 71.7976 262.323L63.2843 263.52L64.3993 260.76C64.409 260.731 64.4334 260.709 64.4627 260.7L71.5105 259.712C74.6497 259.272 77.5514 261.461 77.9901 264.6C78.1759 265.927 77.8916 267.276 77.1869 268.415L77.1888 268.416ZM60.2486 267.293L58.4155 264.947C58.3948 264.925 58.388 264.893 58.3959 264.863L61.0629 258.262C62.2522 255.324 65.5987 253.905 68.537 255.095C69.7802 255.597 70.807 256.52 71.4415 257.701C71.3888 257.706 71.2974 257.718 71.2355 257.728L64.2618 258.709C63.9062 258.756 63.6047 258.992 63.472 259.325L60.2494 267.291L60.2487 267.293L60.2486 267.293ZM62.6775 265.019L66.4696 264.486L68.8273 267.503L67.3929 271.053L63.6011 271.585L61.2435 268.568L62.6775 265.019Z" fill="white"/>
</g>
<g filter="url(#filter2_d_534_4374)">
<rect x="391" y="247.906" width="63" height="60" rx="30" transform="rotate(-28.3399 391 247.906)" fill="white" shape-rendering="crispEdges"/>
<path d="M446.118 244.205L434.288 250.6L423.011 243.275C422.221 242.762 421.201 243.442 421.371 244.368L423.797 257.595L413.345 266.056C412.613 266.649 412.945 267.829 413.878 267.954L427.207 269.734L432.025 282.289C432.362 283.168 433.587 283.217 433.994 282.368L439.806 270.241L453.235 269.54C454.176 269.49 454.601 268.34 453.919 267.691L444.182 258.416L447.664 245.427C447.908 244.518 446.946 243.758 446.118 244.205Z" fill="#FFDC64"/>
<path d="M423.011 243.275C422.221 242.762 421.201 243.442 421.371 244.368L423.797 257.595L413.345 266.056C412.613 266.649 412.945 267.829 413.878 267.954L427.207 269.734L432.025 282.289C432.362 283.168 433.587 283.217 433.994 282.368L435.291 279.662C427.432 267.23 427.372 254.825 428.587 246.897L423.011 243.275Z" fill="#FFC850"/>
</g>
<path d="M214 16.9462C214 7.58709 221.587 0 230.946 0H315.054C324.413 0 332 7.58709 332 16.9462V32.0538C332 41.4129 324.413 49 315.054 49H230.946C221.587 49 214 41.4129 214 32.0538V16.9462Z" fill="#EFEFF4"/>
<rect x="230" y="12.5" width="24" height="24" rx="4" fill="#175A5A"/>
<path d="M237.406 24.0625H246.594C246.652 24.0625 246.707 24.0395 246.748 23.9984C246.789 23.9574 246.812 23.9018 246.812 23.8438V22.3125C246.813 22.255 246.801 22.1981 246.779 22.145C246.757 22.0919 246.725 22.0436 246.685 22.003L243.622 18.9405C243.581 18.8999 243.533 18.8676 243.48 18.8457C243.427 18.8237 243.37 18.8125 243.312 18.8125H238.062C237.83 18.8125 237.608 18.9047 237.444 19.0688C237.28 19.2329 237.187 19.4554 237.187 19.6875V23.8438C237.187 23.9018 237.211 23.9574 237.252 23.9984C237.293 24.0395 237.348 24.0625 237.406 24.0625ZM243.312 19.9063L245.719 22.3125H243.312V19.9063ZM237.625 27.3438C237.625 27.9453 238.018 28.4375 238.5 28.4375C238.604 28.4356 238.706 28.4128 238.801 28.3704C238.895 28.328 238.98 28.267 239.051 28.1909C239.126 28.1109 239.229 28.0617 239.339 28.0527C239.449 28.0436 239.558 28.0753 239.646 28.1416C239.694 28.1794 239.733 28.2267 239.762 28.2806C239.79 28.3345 239.807 28.3937 239.811 28.4545C239.816 28.5153 239.807 28.5764 239.786 28.6337C239.766 28.6911 239.733 28.7434 239.691 28.7875C239.539 28.9515 239.355 29.0826 239.15 29.1729C238.945 29.2632 238.724 29.3107 238.5 29.3125C237.535 29.3125 236.75 28.4293 236.75 27.3438C236.75 26.2582 237.535 25.375 238.5 25.375C238.719 25.3767 238.935 25.422 239.136 25.5084C239.337 25.5948 239.518 25.7205 239.67 25.8781C239.751 25.956 239.8 26.0613 239.807 26.1734C239.815 26.2855 239.78 26.3963 239.71 26.4841C239.67 26.5311 239.621 26.5692 239.566 26.596C239.511 26.6228 239.45 26.6377 239.389 26.6396C239.328 26.6416 239.266 26.6306 239.21 26.6074C239.153 26.5841 239.101 26.5492 239.059 26.5048C238.988 26.4265 238.902 26.3635 238.806 26.3197C238.71 26.2759 238.606 26.2522 238.5 26.25C238.018 26.25 237.625 26.7422 237.625 27.3438ZM243.531 27.3727C243.521 27.4852 243.47 27.5898 243.386 27.6655C243.302 27.7413 243.193 27.7826 243.08 27.7812H242.437V28.4227C242.439 28.5356 242.398 28.6449 242.322 28.7286C242.246 28.8123 242.141 28.8642 242.029 28.8739C241.969 28.8779 241.909 28.8695 241.853 28.8493C241.796 28.8291 241.744 28.7975 241.701 28.7565C241.657 28.7155 241.622 28.6659 241.598 28.6108C241.575 28.5557 241.562 28.4964 241.562 28.4364V27.7812H240.921C240.808 27.7826 240.699 27.7413 240.615 27.6655C240.532 27.5898 240.48 27.4852 240.47 27.3727C240.466 27.3129 240.474 27.2529 240.494 27.1964C240.515 27.1399 240.546 27.0882 240.587 27.0445C240.628 27.0007 240.678 26.9659 240.733 26.9421C240.788 26.9183 240.847 26.9061 240.907 26.9062H241.564V26.2648C241.562 26.1519 241.603 26.0426 241.679 25.9589C241.755 25.8752 241.86 25.8233 241.972 25.8136C242.032 25.8096 242.092 25.818 242.148 25.8382C242.205 25.8584 242.257 25.89 242.3 25.931C242.344 25.972 242.379 26.0216 242.403 26.0767C242.427 26.1318 242.439 26.1911 242.439 26.2511V26.9073H243.095C243.155 26.9074 243.214 26.9197 243.269 26.9434C243.323 26.9672 243.373 27.002 243.414 27.0456C243.455 27.0892 243.486 27.1407 243.506 27.197C243.527 27.2533 243.535 27.3131 243.531 27.3727ZM247.25 27.3727C247.24 27.4852 247.188 27.5898 247.105 27.6655C247.021 27.7413 246.912 27.7826 246.799 27.7812H246.156V28.4227C246.158 28.5356 246.116 28.6449 246.041 28.7286C245.965 28.8123 245.86 28.8642 245.748 28.8739C245.688 28.8779 245.628 28.8695 245.571 28.8493C245.515 28.8291 245.463 28.7975 245.419 28.7565C245.376 28.7155 245.341 28.6659 245.317 28.6108C245.293 28.5557 245.281 28.4964 245.281 28.4364V27.7812H244.64C244.527 27.7826 244.418 27.7413 244.334 27.6655C244.25 27.5898 244.198 27.4852 244.189 27.3727C244.185 27.3129 244.193 27.2529 244.213 27.1964C244.233 27.1399 244.265 27.0882 244.306 27.0445C244.347 27.0007 244.397 26.9659 244.452 26.9421C244.507 26.9183 244.566 26.9061 244.626 26.9062H245.282V26.2648C245.281 26.1519 245.322 26.0426 245.398 25.9589C245.474 25.8752 245.578 25.8233 245.691 25.8136C245.751 25.8096 245.811 25.818 245.867 25.8382C245.924 25.8584 245.975 25.89 246.019 25.931C246.063 25.972 246.098 26.0216 246.121 26.0767C246.145 26.1318 246.157 26.1911 246.157 26.2511V26.9073H246.814C246.873 26.9074 246.933 26.9197 246.987 26.9434C247.042 26.9672 247.092 27.002 247.133 27.0456C247.173 27.0892 247.205 27.1407 247.225 27.197C247.245 27.2533 247.254 27.3131 247.25 27.3727Z" fill="white"/>
<path d="M267.091 30.5H263.148V18.8636H267.17C268.326 18.8636 269.318 19.0966 270.148 19.5625C270.981 20.0246 271.621 20.6894 272.068 21.5568C272.515 22.4242 272.739 23.4621 272.739 24.6705C272.739 25.8826 272.513 26.9242 272.062 27.7955C271.616 28.6667 270.97 29.3352 270.125 29.8011C269.284 30.267 268.273 30.5 267.091 30.5ZM265.256 28.6761H266.989C267.799 28.6761 268.475 28.5284 269.017 28.233C269.559 27.9337 269.966 27.4886 270.239 26.8977C270.511 26.303 270.648 25.5606 270.648 24.6705C270.648 23.7803 270.511 23.0417 270.239 22.4545C269.966 21.8636 269.563 21.4223 269.028 21.1307C268.498 20.8352 267.839 20.6875 267.051 20.6875H265.256V28.6761ZM283.423 21.3239H284.747C284.747 21.9527 284.656 22.4811 284.474 22.9091C284.296 23.3333 283.991 23.6534 283.56 23.8693C283.128 24.0852 282.531 24.1932 281.77 24.1932V23.1591C282.277 23.1591 282.647 23.0947 282.878 22.9659C283.109 22.8333 283.257 22.6307 283.321 22.358C283.385 22.0852 283.42 21.7405 283.423 21.3239ZM280.247 26.8295V21.7727H282.31V30.5H280.31V28.9489H280.219C280.022 29.4375 279.698 29.8371 279.247 30.1477C278.8 30.4583 278.249 30.6136 277.594 30.6136C277.022 30.6136 276.516 30.4867 276.077 30.233C275.641 29.9754 275.3 29.6023 275.054 29.1136C274.808 28.6212 274.685 28.0265 274.685 27.3295V21.7727H276.741V27.0114C276.745 27.5644 276.897 28.0038 277.196 28.3295C277.499 28.6553 277.897 28.8182 278.389 28.8182C278.692 28.8182 278.986 28.7443 279.27 28.5966C279.558 28.4489 279.793 28.2292 279.974 27.9375C280.16 27.642 280.251 27.2727 280.247 26.8295ZM276.838 20.7102L275.594 20.6818C275.594 20.0076 275.768 19.4792 276.116 19.0966C276.465 18.714 276.895 18.5227 277.406 18.5227C277.652 18.5227 277.866 18.5644 278.048 18.6477C278.23 18.7273 278.397 18.8201 278.548 18.9261C278.704 19.0322 278.855 19.1269 279.003 19.2102C279.151 19.2898 279.313 19.3295 279.491 19.3295C279.707 19.3295 279.878 19.2481 280.003 19.0852C280.132 18.9223 280.198 18.714 280.202 18.4602L281.423 18.5114C281.42 19.1894 281.243 19.7159 280.895 20.0909C280.546 20.4621 280.118 20.6496 279.611 20.6534C279.338 20.6572 279.109 20.6174 278.923 20.5341C278.738 20.4508 278.575 20.3561 278.435 20.25C278.298 20.1439 278.16 20.0511 278.02 19.9716C277.88 19.8883 277.715 19.8466 277.526 19.8466C277.325 19.8466 277.16 19.9261 277.031 20.0852C276.902 20.2443 276.838 20.4527 276.838 20.7102ZM291.551 18.8636V30.5H289.494V18.8636H291.551ZM293.666 30.5V21.7727H295.723V30.5H293.666ZM294.7 20.5341C294.375 20.5341 294.094 20.4261 293.859 20.2102C293.625 19.9905 293.507 19.7273 293.507 19.4205C293.507 19.1098 293.625 18.8466 293.859 18.6307C294.094 18.411 294.375 18.3011 294.7 18.3011C295.03 18.3011 295.31 18.411 295.541 18.6307C295.776 18.8466 295.893 19.1098 295.893 19.4205C295.893 19.7273 295.776 19.9905 295.541 20.2102C295.31 20.4261 295.03 20.5341 294.7 20.5341ZM301.702 30.6705C300.827 30.6705 300.071 30.4886 299.435 30.125C298.802 29.7576 298.315 29.2386 297.974 28.5682C297.634 27.8939 297.463 27.1004 297.463 26.1875C297.463 25.2898 297.634 24.5019 297.974 23.8239C298.319 23.142 298.8 22.6117 299.418 22.233C300.035 21.8504 300.76 21.6591 301.594 21.6591C302.132 21.6591 302.639 21.7462 303.116 21.9205C303.598 22.0909 304.022 22.3561 304.389 22.7159C304.76 23.0758 305.052 23.5341 305.264 24.0909C305.476 24.6439 305.582 25.303 305.582 26.0682V26.6989H298.429V25.3125H303.611C303.607 24.9186 303.522 24.5682 303.355 24.2614C303.188 23.9508 302.955 23.7064 302.656 23.5284C302.361 23.3504 302.016 23.2614 301.622 23.2614C301.202 23.2614 300.832 23.3636 300.514 23.5682C300.196 23.7689 299.948 24.0341 299.77 24.3636C299.596 24.6894 299.507 25.0473 299.503 25.4375V26.6477C299.503 27.1553 299.596 27.5909 299.781 27.9545C299.967 28.3144 300.226 28.5909 300.56 28.7841C300.893 28.9735 301.283 29.0682 301.73 29.0682C302.029 29.0682 302.3 29.0265 302.543 28.9432C302.785 28.8561 302.995 28.7292 303.173 28.5625C303.351 28.3958 303.486 28.1894 303.577 27.9432L305.497 28.1591C305.376 28.6667 305.145 29.1098 304.804 29.4886C304.467 29.8636 304.035 30.1553 303.509 30.3636C302.982 30.5682 302.38 30.6705 301.702 30.6705ZM302.69 20.7273L301.537 19.2727L300.384 20.7273H298.582V20.6477L300.736 18.1932H302.344L304.491 20.6477V20.7273H302.69ZM301.537 33.642C301.207 33.642 300.925 33.5322 300.69 33.3125C300.459 33.0928 300.344 32.8295 300.344 32.5227C300.344 32.2159 300.459 31.9527 300.69 31.733C300.925 31.5133 301.205 31.4034 301.531 31.4034C301.861 31.4034 302.141 31.5133 302.372 31.733C302.607 31.9527 302.724 32.2159 302.724 32.5227C302.724 32.8295 302.607 33.0928 302.372 33.3125C302.141 33.5322 301.863 33.642 301.537 33.642ZM312.885 26.8295V21.7727H314.942V30.5H312.947V28.9489H312.857C312.66 29.4375 312.336 29.8371 311.885 30.1477C311.438 30.4583 310.887 30.6136 310.232 30.6136C309.66 30.6136 309.154 30.4867 308.714 30.233C308.279 29.9754 307.938 29.6023 307.692 29.1136C307.446 28.6212 307.322 28.0265 307.322 27.3295V21.7727H309.379V27.0114C309.379 27.5644 309.531 28.0038 309.834 28.3295C310.137 28.6553 310.535 28.8182 311.027 28.8182C311.33 28.8182 311.624 28.7443 311.908 28.5966C312.192 28.4489 312.425 28.2292 312.607 27.9375C312.792 27.642 312.885 27.2727 312.885 26.8295Z" fill="#292929"/>
</g>
<defs>
<filter id="filter0_d_534_4374" x="-11.1" y="37.9" width="143.732" height="80.4131" filterUnits="userSpaceOnUse" color-interpolation-filters="sRGB">
<feFlood flood-opacity="0" result="BackgroundImageFix"/>
<feColorMatrix in="SourceAlpha" type="matrix" values="0 0 0 0 0 0 0 0 0 0 0 0 0 0 0 0 0 0 127 0" result="hardAlpha"/>
<feOffset dy="10"/>
<feGaussianBlur stdDeviation="5.55"/>
<feComposite in2="hardAlpha" operator="out"/>
<feColorMatrix type="matrix" values="0 0 0 0 0 0 0 0 0 0 0 0 0 0 0 0 0 0 0.25 0"/>
<feBlend mode="normal" in2="BackgroundImageFix" result="effect1_dropShadow_534_4374"/>
<feBlend mode="normal" in="SourceGraphic" in2="effect1_dropShadow_534_4374" result="shape"/>
</filter>
<filter id="filter1_f_534_4374" x="32.3027" y="235.303" width="65.4663" height="65.4661" filterUnits="userSpaceOnUse" color-interpolation-filters="sRGB">
<feFlood flood-opacity="0" result="BackgroundImageFix"/>
<feBlend mode="normal" in="SourceGraphic" in2="BackgroundImageFix" result="shape"/>
<feGaussianBlur stdDeviation="3" result="effect1_foregroundBlur_534_4374"/>
</filter>
<filter id="filter2_d_534_4374" x="359.6" y="190.292" width="146.731" height="145.515" filterUnits="userSpaceOnUse" color-interpolation-filters="sRGB">
<feFlood flood-opacity="0" result="BackgroundImageFix"/>
<feColorMatrix in="SourceAlpha" type="matrix" values="0 0 0 0 0 0 0 0 0 0 0 0 0 0 0 0 0 0 127 0" result="hardAlpha"/>
<feOffset dy="3.69231"/>
<feGaussianBlur stdDeviation="15.7"/>
<feComposite in2="hardAlpha" operator="out"/>
<feColorMatrix type="matrix" values="0 0 0 0 0 0 0 0 0 0 0 0 0 0 0 0 0 0 0.1 0"/>
<feBlend mode="normal" in2="BackgroundImageFix" result="effect1_dropShadow_534_4374"/>
<feBlend mode="normal" in="SourceGraphic" in2="effect1_dropShadow_534_4374" result="shape"/>
</filter>
<linearGradient id="paint0_linear_534_4374" x1="486.5" y1="325.002" x2="485.5" y2="68.0019" gradientUnits="userSpaceOnUse">
<stop stop-color="#9DBEF9"/>
<stop offset="1" stop-color="#FDFDFD"/>
</linearGradient>
<linearGradient id="paint1_linear_534_4374" x1="449.5" y1="325.002" x2="448.5" y2="68.0019" gradientUnits="userSpaceOnUse">
<stop stop-color="#9DBEF9"/>
<stop offset="1" stop-color="#FDFDFD"/>
</linearGradient>
<linearGradient id="paint2_linear_534_4374" x1="412.5" y1="324.002" x2="411.5" y2="67.0019" gradientUnits="userSpaceOnUse">
<stop stop-color="#9DBEF9"/>
<stop offset="1" stop-color="#FDFDFD"/>
</linearGradient>
<linearGradient id="paint3_linear_534_4374" x1="556.002" y1="291.5" x2="299" y2="291.5" gradientUnits="userSpaceOnUse">
<stop stop-color="#9DBEF9"/>
<stop offset="1" stop-color="#FDFDFD"/>
</linearGradient>
<linearGradient id="paint4_linear_534_4374" x1="556.002" y1="255.5" x2="299" y2="255.5" gradientUnits="userSpaceOnUse">
<stop stop-color="#9DBEF9"/>
<stop offset="1" stop-color="#FDFDFD"/>
</linearGradient>
<linearGradient id="paint5_linear_534_4374" x1="559.002" y1="216.5" x2="302" y2="216.5" gradientUnits="userSpaceOnUse">
<stop stop-color="#9DBEF9"/>
<stop offset="1" stop-color="#FDFDFD"/>
</linearGradient>
<linearGradient id="paint6_linear_534_4374" x1="109.5" y1="155.002" x2="108.5" y2="-101.998" gradientUnits="userSpaceOnUse">
<stop stop-color="#9DBEF9"/>
<stop offset="1" stop-color="#FDFDFD"/>
</linearGradient>
<linearGradient id="paint7_linear_534_4374" x1="72.5" y1="154.002" x2="71.5" y2="-102.998" gradientUnits="userSpaceOnUse">
<stop stop-color="#9DBEF9"/>
<stop offset="1" stop-color="#FDFDFD"/>
</linearGradient>
<linearGradient id="paint8_linear_534_4374" x1="35.5" y1="154.002" x2="34.5" y2="-102.998" gradientUnits="userSpaceOnUse">
<stop stop-color="#9DBEF9"/>
<stop offset="1" stop-color="#FDFDFD"/>
</linearGradient>
<linearGradient id="paint9_linear_534_4374" x1="142.002" y1="120.5" x2="-115" y2="120.5" gradientUnits="userSpaceOnUse">
<stop stop-color="#9DBEF9"/>
<stop offset="1" stop-color="#FDFDFD"/>
</linearGradient>
<linearGradient id="paint10_linear_534_4374" x1="142.002" y1="84.5" x2="-115" y2="84.5" gradientUnits="userSpaceOnUse">
<stop stop-color="#9DBEF9"/>
<stop offset="1" stop-color="#FDFDFD"/>
</linearGradient>
<linearGradient id="paint11_linear_534_4374" x1="145.002" y1="45.5" x2="-112" y2="45.5" gradientUnits="userSpaceOnUse">
<stop stop-color="#9DBEF9"/>
<stop offset="1" stop-color="#FDFDFD"/>
</linearGradient>
<linearGradient id="paint12_linear_534_4374" x1="269.22" y1="275.279" x2="269.457" y2="150.279" gradientUnits="userSpaceOnUse">
<stop stop-color="#FFF9C8"/>
<stop offset="1" stop-color="#175A5A" stop-opacity="0.1"/>
</linearGradient>
<linearGradient id="paint13_linear_534_4374" x1="269.22" y1="274.555" x2="269.604" y2="72.2793" gradientUnits="userSpaceOnUse">
<stop stop-color="#FFF9C8"/>
<stop offset="1" stop-color="#175A5A" stop-opacity="0.1"/>
</linearGradient>
<linearGradient id="paint14_linear_534_4374" x1="260.195" y1="274.279" x2="259.958" y2="149.279" gradientUnits="userSpaceOnUse">
<stop stop-color="#FFF9C8"/>
<stop offset="1" stop-color="#175A5A" stop-opacity="0.1"/>
</linearGradient>
<linearGradient id="paint15_linear_534_4374" x1="260.316" y1="274.279" x2="259.932" y2="72.0029" gradientUnits="userSpaceOnUse">
<stop stop-color="#FFF9C8"/>
<stop offset="1" stop-color="#175A5A" stop-opacity="0.1"/>
</linearGradient>
<linearGradient id="paint16_linear_534_4374" x1="268" y1="48" x2="268" y2="213" gradientUnits="userSpaceOnUse">
<stop stop-color="#FFF9C8"/>
<stop offset="1" stop-color="#175A5A" stop-opacity="0.1"/>
</linearGradient>
<clipPath id="clip0_534_4374">
<rect width="520" height="326" fill="white"/>
</clipPath>
<clipPath id="clip1_534_4374">
<rect width="14" height="14" fill="white" transform="translate(22.3281 64.1636) rotate(-4.58)"/>
</clipPath>
<clipPath id="clip2_534_4374">
<rect width="68" height="68" fill="white" transform="translate(234.5 235.5)"/>
</clipPath>
</defs>
</svg>
