<svg xmlns="http://www.w3.org/2000/svg" fill="none" viewBox="0 0 520 326">
  <g clip-path="url(#a)">
    <g opacity=".4"/>
    <g opacity=".4">
      <path stroke="url(#k)" d="M142.002 120H-115"/>
      <path stroke="url(#l)" d="M142.002 84H-115"/>
      <path stroke="url(#m)" d="M145.002 45H-112"/>
    </g>
    <path stroke="url(#n)" stroke-width="6" d="m269.22 275.279-56.748-.108c-9.941-.019-17.988-8.093-17.972-18.034l.139-89c.015-9.941-8.031-18.015-17.972-18.034L122.542 150"/>
    <path stroke="url(#o)" stroke-width="6" d="m269.22 274.555-56.748-.108c-9.941-.019-17.988-8.093-17.972-18.034l.26-166.276c.015-9.9411-8.031-18.0153-17.972-18.0342L122.663 72"/>
    <g filter="url(#p)">
      <rect width="118" height="48.9462" y="48.4234" fill="#ffec00" rx="16.9462" shape-rendering="crispEdges" transform="rotate(-4.5805 0 48.4234)"/>
      <rect width="24" height="24" x="16.9453" y="59.5788" fill="#fff" rx="4" transform="rotate(-4.58 16.9453 59.5788)"/>
      <g clip-path="url(#q)">
        <path fill="#175a5a" d="m25.2506 70.5129 9.1582-.7336c.0578-.0046.1114-.032.149-.0762.0377-.0442.0562-.1015.0516-.1593l-.1223-1.5264c-.0046-.0573-.0204-.1131-.0465-.1643s-.0621-.0967-.1058-.134l-3.2973-2.8082c-.0437-.0372-.0944-.0655-.1491-.0831s-.1123-.0243-.1696-.0197l-5.2333.4192c-.2313.0185-.4458.1282-.5962.3049-.1505.1766-.2246.4059-.2061.6372l.3319 4.143c.0046.0578.032.1114.0762.149s.1015.0562.1593.0515m5.5555-4.6146 2.5907 2.2065-2.3985.1921zm4.3989 5.6019c-.0008.1129-.0442.2213-.1216.3035-.0773.0822-.1829.1321-.2955.1398l-1.2947.1037.0699.8722.8574-.0687c.1125-.0106.2247.0219.3142.0907.0895.0689.1496.1691.1682.2805.0087.0593.0052.1198-.0104.1777-.0157.0579-.043.112-.0804.1589-.0374.0468-.0841.0855-.1371.1136s-.1112.045-.171.0497l-.8711.0698.0687.8575c.0105.1124-.0219.2246-.0907.3141-.0689.0895-.1691.1496-.2805.1682-.0593.0088-.1198.0052-.1777-.0104-.0579-.0157-.112-.043-.1589-.0804s-.0855-.0841-.1136-.1371c-.0281-.0529-.045-.1111-.0497-.1709l-.2445-3.0517c-.0092-.1156.0278-.2302.1031-.3186.0752-.0883.1825-.1431.2981-.1524l1.7444-.1397c.0598-.005.1199.0025.1767.0218s.109.05.1534.0904c.0444.0403.08.0893.1047.144.0246.0547.0378.1138.0386.1738m-8.7593.2337-.8722.0699c-.1157.0093-.2229.0641-.2982.1524-.0752.0884-.1123.203-.103.3186l.2434 3.038c.0072.1129.057.2188.1393.2964.0822.0777.1909.1212.304.1218.06-.0008.1191-.0139.1738-.0386.0547-.0246.1037-.0602.144-.1046.0404-.0444.0711-.0966.0904-.1534s.0268-.117.0218-.1767l-.0349-.4361.4034-.0323c.8308-.0666 1.4819-.7727 1.44-1.6049-.0102-.2048-.0614-.4054-.1505-.59-.0892-.1846-.2145-.3495-.3685-.4847-.1541-.1353-.3337-.2383-.5283-.3028-.1946-.0646-.4002-.0894-.6045-.073m.1556 2.1821-.4171.0334-.1048-1.3083.4361-.035c.0915-.0077.1836.0038.2703.0338.0867.0301.1662.078.2333.1406.067.0627.1202.1388.156.2233.0359.0845.0536.1755.0521.2673-.0059.1659-.0732.3238-.1888.4429-.1157.1192-.2714.1912-.4371.202m3.3332-2.4616-.8722.0699c-.1157.0093-.2229.0641-.2982.1524-.0752.0884-.1122.203-.103.3186l.2446 3.0528c.0092.1156.0641.2229.1524.2981s.2029.1123.3186.103l.8351-.0669c1.0718-.0858 1.9063-1.0019 1.8456-2.0751-.0146-.2622-.0815-.5187-.1968-.7546s-.2765-.4464-.4744-.619c-.1978-.1726-.4281-.304-.6774-.3863-.2493-.0822-.5126-.1138-.7743-.0929m.2178 3.0549-.4094.0328-.1746-2.1805.4361-.035c.1467-.0118.2944.0061.4341.0526.1397.0466.2685.1209.3788.2185s.1997.2164.2629.3494c.0633.1329.099.2773.1051.4244.0244.5917-.4426 1.0905-1.033 1.1378"/>
      </g>
      <path fill="#175a5a" d="m55.3552 74.5592-3.9306.3149-.9291-11.5992 4.0098-.3213c1.1517-.0922 2.1595.0608 3.0236.4589.8676.3941 1.5588 1.0057 2.0736 1.8346.5148.829.8204 1.8457.9169 3.0502.0968 1.2082-.0447 2.2646-.4244 3.169q-.564 1.35615-1.7712 2.154c-.801.5316-1.7905.8445-2.9686.9389m-1.975-1.6715 1.7274-.1384c.8081-.0647 1.4702-.2659 1.9866-.6037.516-.3415.8864-.8177 1.1111-1.4285.2243-.6146.301-1.3655.2299-2.2528-.0711-.8874-.266-1.6127-.5847-2.1762-.3191-.5673-.7564-.9749-1.3121-1.223-.5522-.2522-1.221-.3468-2.0064-.2839l-1.7897.1434zm17.5225-8.7795 1.3197-.1057c.0502.6268.0018 1.1608-.1453 1.6019q-.2154.65565-.8352 1.0302c-.4132.2497-.9992.405-1.7582.4658l-.0825-1.0308c.5059-.0405.8689-.1342 1.0889-.281q.3297-.2259.3933-.6414c.0424-.277.0488-.6234.0193-1.039m-2.7263 5.7417-.4038-5.0406 2.0559-.1647.6969 8.6994-1.9936.1597-.1239-1.5462-.0906.0072c-.1573.5029-.4482.9271-.8728 1.2727-.4207.3453-.9577.5441-1.6109.5964q-.85515.06855-1.5426-.2583-.6822-.333-1.1088-1.0341c-.2848-.4712-.455-1.0542-.5106-1.7489l-.4437-5.5391 2.0502-.1642.4183 5.2219c.0479.551.2341.9769.5584 1.2777.328.3005.7375.4311 1.2284.3918.302-.0242.5887-.1213.8601-.2912.2752-.1703.4917-.408.6497-.7133.1614-.3093.2225-.6847.1834-1.1262m-3.8869-5.8275-1.2426.071c-.0538-.6721.0777-1.2127.3945-1.6219s.7301-.6342 1.2398-.675c.2455-.0197.4621.0048.65.0733.1876.0648.3611.144.5206.2376q.24495.13995.4758.2469c.1536.0675.3192.0941.4966.0799.2153-.0172.3787-.112.4903-.2844.1153-.1726.1648-.3856.1483-.6388l1.2217-.0466q.0756 1.0143-.4005 1.6167c-.3178.3978-.7295.6189-1.2351.6632-.2716.0256-.5032.0042-.6949-.064-.1916-.0683-.3615-.1496-.5097-.2442-.1444-.0948-.2896-.1763-.4357-.2444-.1464-.0719-.3139-.1002-.5027-.0851-.2001.016-.358.1085-.4737.2773-.1157.1689-.1632.3817-.1427.6385m14.5187-3.0156.9292 11.5992-2.0503.1643-.9292-11.5992zm3.0375 11.4303-.6969-8.6994 2.0502-.1642.6969 8.6994zm.235-10.0166c-.3248.026-.6128-.0592-.8641-.2557-.2517-.2002-.3897-.4533-.4142-.7591q-.0372-.4644.288-.8154c.2166-.2378.4872-.3696.812-.3956.3284-.0264.6166.0608.8645.2613.2513.1965.3894.4495.4142.7591.0245.3059-.0715.5777-.2881.8154-.2131.2337-.4838.3637-.8123.39m7.7884 9.5449c-.8722.0699-1.64-.051-2.3033-.3627-.6599-.3157-1.1866-.7941-1.5799-1.4352-.3937-.6449-.627-1.4223-.6999-2.3323-.0716-.8948.0354-1.6938.321-2.3969.2892-.7072.7264-1.2742 1.3116-1.7011.5849-.4306 1.2927-.6792 2.1233-.7458.5362-.0429 1.0491.0034 1.5388.139.4931.1315.9372.3619 1.3322.6913.3987.329.7261.7626.982 1.3007.2556.5343.4139 1.1828.475 1.9456l.0504.6286-7.1306.5712-.1107-1.3819 5.1653-.4138c-.0353-.3924-.1482-.7348-.3388-1.0273-.191-.2964-.4427-.5213-.7552-.6749q-.46305-.2307-1.0521-.1836c-.4191.0336-.7791.165-1.0799.3943-.3011.2256-.5273.5097-.6784.8524-.1477.3386-.2079.7025-.1805 1.0917l.0967 1.2064c.0405.506.1678.9328.3818 1.2804.2138.3439.4945.5988.8422.7648.3474.1621.7439.2254 1.1894.1897.2983-.0239.5649-.0871.7999-.1895.2347-.1062.4341-.2495.5983-.4298.1641-.1804.2817-.3969.3527-.6496l1.9315.0619c-.0803.5156-.2752.9758-.5848 1.3806-.3061.4008-.7132.726-1.2214.9757-.5085.2459-1.1007.396-1.7766.4501m.1915-9.9904-1.2658-1.3578-1.0336 1.542-1.7954.1439-.0064-.0793 1.9506-2.6187 1.6028-.1284 2.3369 2.2752.0063.0793zm-.1184 12.9657c-.3285.0263-.6186-.0607-.8702-.2609q-.37185-.3009-.4086-.7596c-.0245-.3058.0696-.5775.2824-.8149.2166-.2378.4872-.3697.8119-.3957.3285-.0263.6167.0608.8646.2614.2516.2002.3897.4533.4142.7591s-.0715.5776-.2881.8154c-.2128.2374-.4815.3692-.8062.3952m10.7678-7.6969-.404-5.0407 2.05-.1642.697 8.6994-1.988.1592-.124-1.5462-.09.0073c-.157.5028-.448.927-.8729 1.2726-.4207.3453-.9577.5441-1.6109.5965-.5702.0456-1.0844-.0405-1.5426-.2584-.4548-.2219-.8244-.5666-1.1089-1.0341-.2847-.4711-.4549-1.0541-.5106-1.7489l-.4437-5.539 2.0503-.1643.4183 5.2219c.0441.5513.2303.9772.5583 1.2777.3281.3005.7376.4311 1.2284.3918.3021-.0242.5888-.1213.8602-.2912.2711-.1699.4861-.4075.6441-.7128.161-.3093.224-.6849.189-1.1266"/>
    </g>
    <path stroke="url(#r)" stroke-width="6" d="m260.195 274.279 56.748-.108c9.941-.019 17.988-8.093 17.972-18.034l-.139-89c-.015-9.941 8.031-18.015 17.972-18.034l54.125-.103"/>
    <path stroke="url(#s)" stroke-width="6" d="m260.315 274.279 56.748-.108c9.941-.019 17.988-8.093 17.972-18.034l-.259-166.2763c-.016-9.9411 8.03-18.0153 17.971-18.0341l54.126-.1029"/>
    <rect width="112" height="112" x="212.5" y="213.5" stroke="#5494f2" rx="56"/>
    <g clip-path="url(#t)">
      <path fill="#e8edfc" d="M268.501 302.367c9.389 0 17-14.715 17-32.867s-7.611-32.867-17-32.867-17 14.715-17 32.867 7.611 32.867 17 32.867"/>
      <path fill="#cad9fc" fill-rule="evenodd" d="M268.501 236.633c-.571.001-1.14.056-1.7.165 8.59 1.649 15.3 15.66 15.3 32.702s-6.71 31.053-15.3 32.702c.56.109 1.129.164 1.7.165 9.388 0 17-14.716 17-32.867s-7.612-32.867-17-32.867" clip-rule="evenodd"/>
      <path fill="#e8edfc" fill-rule="evenodd" d="M298.148 282.239c.408-3.786-1.167-8.251-4.318-12.739-2.562-3.541-5.606-6.707-9.044-9.407-2.453-1.971-5.056-3.748-7.786-5.315-2.721-1.578-5.558-2.946-8.488-4.091h-.012c-4.054-1.622-8.315-2.67-12.659-3.117-5.882-.521-10.835.51-13.872 3.173l-3.117 6.018c-.408 3.786 1.168 8.251 4.318 12.739 2.563 3.541 5.607 6.707 9.044 9.407 2.454 1.971 5.057 3.748 7.786 5.315 2.722 1.578 5.559 2.946 8.489 4.091h.011c4.055 1.622 8.316 2.67 12.66 3.117 5.882.521 10.834-.51 13.872-3.173z" clip-rule="evenodd"/>
      <path fill="#cad9fc" fill-rule="evenodd" d="M293.831 269.5c-2.562-3.541-5.606-6.707-9.044-9.407-2.453-1.971-5.056-3.748-7.786-5.315-2.721-1.578-5.559-2.946-8.488-4.091h-.012c-4.055-1.622-8.315-2.671-12.659-3.117-1.524-.138-3.055-.16-4.582-.067.393.02.779.032 1.182.067 4.344.446 8.604 1.495 12.659 3.117h.012c2.929 1.145 5.767 2.513 8.488 4.091 2.73 1.567 5.333 3.344 7.786 5.315 3.438 2.7 6.482 5.866 9.044 9.407 3.151 4.488 4.726 8.953 4.318 12.739l-3.116 6.018c-2.208 1.935-5.44 2.998-9.294 3.24 5.357.288 9.86-.76 12.694-3.24l3.116-6.018c.408-3.786-1.167-8.251-4.318-12.739" clip-rule="evenodd"/>
      <path fill="#e8edfc" fill-rule="evenodd" d="M298.148 256.761c.408 3.786-1.167 8.251-4.318 12.739-2.562 3.541-5.606 6.707-9.044 9.407-2.453 1.971-5.056 3.748-7.786 5.315-2.725 1.578-5.566 2.946-8.5 4.091h-.011c-4.051 1.62-8.308 2.669-12.648 3.117-5.882.521-10.835-.51-13.872-3.173l-3.117-6.018c-.408-3.786 1.168-8.251 4.318-12.739 2.563-3.541 5.607-6.707 9.044-9.407 2.454-1.971 5.057-3.748 7.786-5.315 2.725-1.578 5.567-2.946 8.5-4.091h.012c4.051-1.62 8.308-2.669 12.648-3.117 5.882-.521 10.834.51 13.872 3.173z" clip-rule="evenodd"/>
      <path fill="#cad9fc" fill-rule="evenodd" d="m298.149 256.761-3.116-6.018c-2.834-2.481-7.334-3.528-12.694-3.24 3.854.241 7.082 1.305 9.294 3.24l3.116 6.018c.408 3.786-1.167 8.251-4.318 12.739-2.562 3.541-5.606 6.707-9.044 9.407-2.453 1.971-5.056 3.748-7.786 5.315-2.725 1.578-5.566 2.946-8.5 4.091h-.011c-4.051 1.62-8.308 2.669-12.648 3.117-.403.035-.794.046-1.182.067 1.527.093 3.058.071 4.582-.067 4.34-.448 8.597-1.497 12.648-3.117h.011c2.934-1.145 5.775-2.513 8.5-4.091 2.73-1.567 5.333-3.344 7.786-5.315 3.438-2.7 6.482-5.866 9.044-9.407 3.151-4.488 4.726-8.953 4.318-12.739" clip-rule="evenodd"/>
      <path fill="#e8edfc" d="M240.168 257.033c1.877 0 3.4-1.522 3.4-3.4 0-1.877-1.523-3.4-3.4-3.4-1.878 0-3.4 1.523-3.4 3.4 0 1.878 1.522 3.4 3.4 3.4M296.835 288.767c1.877 0 3.4-1.523 3.4-3.4 0-1.878-1.523-3.4-3.4-3.4-1.878 0-3.4 1.522-3.4 3.4 0 1.877 1.522 3.4 3.4 3.4M240.168 288.767c1.877 0 3.4-1.523 3.4-3.4 0-1.878-1.523-3.4-3.4-3.4-1.878 0-3.4 1.522-3.4 3.4 0 1.877 1.522 3.4 3.4 3.4M296.835 257.033c1.877 0 3.4-1.522 3.4-3.4 0-1.877-1.523-3.4-3.4-3.4-1.878 0-3.4 1.523-3.4 3.4 0 1.878 1.522 3.4 3.4 3.4"/>
      <path fill="#e8edfc" fill-rule="evenodd" d="M285.501 269.5c0 2.063-.102 4.08-.283 6.041-.114 1.144-.25 2.266-.431 3.366-1.235.997-2.539 1.96-3.91 2.89-1.235.838-2.527 1.654-3.876 2.425-2.725 1.578-5.567 2.946-8.5 4.091h-.011c-.556-.215-1.122-.442-1.689-.691-2.334-.994-4.605-2.129-6.8-3.4-2.73-1.567-5.333-3.344-7.786-5.315-.952-6.235-.952-12.579 0-18.814 2.453-1.971 5.056-3.748 7.786-5.315 2.199-1.271 4.474-2.406 6.811-3.4.567-.249 1.134-.476 1.689-.691h.011c2.93 1.145 5.768 2.513 8.489 4.091 1.349.771 2.641 1.587 3.876 2.425 1.371.93 2.675 1.893 3.91 2.89.181 1.1.317 2.222.431 3.366.181 1.961.283 3.978.283 6.041" clip-rule="evenodd"/>
      <path fill="#cad9fc" fill-rule="evenodd" d="M285.217 263.459c-.113-1.144-.249-2.266-.43-3.366-1.236-.997-2.539-1.96-3.91-2.89-1.236-.838-2.528-1.654-3.876-2.425-2.722-1.578-5.559-2.946-8.489-4.091h-.011c-.556.215-1.122.442-1.689.691h-.009c2.333.996 4.603 2.131 6.8 3.4 1.349.771 2.641 1.587 3.876 2.425 1.371.93 2.675 1.893 3.91 2.89.181 1.1.317 2.222.431 3.366.181 1.961.283 3.978.283 6.041s-.102 4.08-.283 6.041c-.114 1.144-.25 2.266-.431 3.366-1.235.997-2.539 1.96-3.91 2.89-1.235.838-2.527 1.654-3.876 2.425-2.199 1.27-4.472 2.405-6.808 3.4h.008c.567.249 1.133.476 1.689.691h.009c2.933-1.145 5.775-2.513 8.5-4.091 1.348-.771 2.64-1.587 3.876-2.425 1.371-.93 2.674-1.893 3.91-2.89.181-1.1.317-2.222.43-3.366.182-1.961.284-3.978.284-6.041s-.102-4.08-.284-6.041" clip-rule="evenodd"/>
      <path fill="#fff" fill-rule="evenodd" d="M285.541 247.513c-.34-.018-.68-.038-1.032-.044.017.035.035.068.051.103.333-.031.656-.044.981-.059M284.56 291.43c-.016.035-.034.068-.051.103.351-.006.692-.026 1.033-.044-.326-.017-.648-.03-.982-.059M298.431 250.743l.007.014c.031-.019.065-.034.095-.052-.147-.087-.3-.163-.459-.227.119.095.246.169.357.265M298.431 288.257c-.113.096-.241.175-.357.268.159-.063.312-.139.459-.226-.03-.019-.064-.033-.095-.053zM236.767 285.367c0 1.877 1.522 3.4 3.4 3.4.598-.003 1.185-.166 1.7-.472-1.119-.642-1.775-1.865-1.693-3.152s.887-2.416 2.078-2.912c-.406-3.778 1.17-8.246 4.318-12.731-3.148-4.486-4.724-8.948-4.318-12.731-1.191-.496-1.996-1.625-2.078-2.912-.082-1.288.574-2.51 1.693-3.152-.515-.306-1.102-.469-1.7-.472-1.62 0-3.015 1.142-3.334 2.73-.32 1.588.525 3.18 2.019 3.806-.406 3.783 1.17 8.245 4.318 12.731-3.148 4.485-4.724 8.953-4.318 12.731-1.263.529-2.085 1.766-2.085 3.136M250.198 246.446l.226 2.255c-2.803.159-5.492 1.169-7.706 2.895l-1.495-1.703c2.567-2.042 5.7-3.246 8.975-3.447" clip-rule="evenodd"/>
      <path fill="#428dff" fill-rule="evenodd" d="M245.9 249.651c-.626.003-1.136-.502-1.139-1.128s.502-1.136 1.127-1.139h.012c.626 0 1.133.508 1.133 1.133 0 .626-.507 1.134-1.133 1.134" clip-rule="evenodd"/>
      <path fill="#428dff" d="M256.73 277.346c.278.116.59.117.868.002.278-.114.499-.334.615-.612l1.598-3.836h6.045l1.598 3.836c.241.578.905.851 1.482.61.578-.241.851-.905.61-1.482l-5.667-13.6c-.176-.423-.588-.698-1.046-.698-.457 0-.87.275-1.046.698l-5.666 13.6c-.116.277-.117.589-.003.867.115.278.335.499.612.615m6.103-11.699 2.078 4.986h-4.155z"/>
      <path fill="#428dff" fill-rule="evenodd" d="M271.901 275.167c-.626 0-1.133.507-1.133 1.133s.507 1.133 1.133 1.133h6.8c.626 0 1.133-.507 1.133-1.133s-.507-1.133-1.133-1.133h-2.267v-11.334h2.267c.626 0 1.133-.507 1.133-1.133s-.507-1.133-1.133-1.133h-6.8c-.626 0-1.133.507-1.133 1.133s.507 1.133 1.133 1.133h2.267v11.334z" clip-rule="evenodd"/>
      <path fill="#428dff" d="M235.634 285.367c0 2.503 2.03 4.533 4.533 4.533.568-.002 1.13-.112 1.657-.324 2.679 2.051 6.46 3.121 11.107 3.121.7 0 1.428-.033 2.166-.08 3.291 6.725 8.04 10.883 13.404 10.883s10.112-4.158 13.405-10.88c.739.048 1.465.08 2.166.08 4.646 0 8.427-1.069 11.106-3.121.527.211 1.089.32 1.656.321 2.001-.006 3.761-1.323 4.332-3.24.571-1.918-.183-3.983-1.856-5.082.159-3.649-1.252-7.791-4.124-12.078 2.872-4.286 4.283-8.427 4.124-12.078 1.96-1.264 2.637-3.811 1.564-5.882-1.073-2.07-3.544-2.985-5.707-2.114-3.079-2.356-7.626-3.4-13.26-3.032-3.289-6.731-8.04-10.894-13.406-10.894-5.367 0-10.114 4.159-13.405 10.886-1.632-.117-3.27-.097-4.899.06-.306.024-.589.175-.781.415-.191.241-.274.551-.228.855.09.602.631 1.032 1.238.985 1.222-.12 2.451-.153 3.678-.097-1.406 3.511-2.403 7.172-2.969 10.911-2.931 2.361-5.584 5.047-7.908 8.007-1.914-2.777-3.052-6.015-3.298-9.379.081 0 .157.024.238.024 2.262.009 4.187-1.644 4.52-3.88.334-2.237-1.025-4.379-3.191-5.03-2.165-.652-4.48.386-5.436 2.436-.955 2.049-.26 4.49 1.631 5.729-.16 3.648 1.252 7.789 4.124 12.078-2.872 4.287-4.284 8.429-4.124 12.078-1.282.834-2.056 2.259-2.057 3.789m4.533-34c1.252 0 2.267 1.014 2.267 2.266s-1.015 2.267-2.267 2.267-2.266-1.015-2.266-2.267 1.014-2.266 2.266-2.266m-2.266 34c0-1.252 1.014-2.267 2.266-2.267s2.267 1.015 2.267 2.267-1.015 2.266-2.267 2.266c-.601 0-1.177-.238-1.602-.664-.426-.425-.664-1.001-.664-1.602m18.597-36.584c3.017.361 5.989 1.028 8.871 1.991-2.028.905-4.009 1.914-5.935 3.021-1.932 1.116-3.804 2.333-5.608 3.646.594-2.969 1.49-5.87 2.672-8.658m-3.242 11.937c2.312-1.832 4.755-3.49 7.311-4.961 2.55-1.474 5.204-2.762 7.94-3.853 2.735 1.091 5.386 2.379 7.934 3.853 2.556 1.471 4.999 3.129 7.31 4.961.414 2.908.62 5.842.616 8.78.002 2.938-.205 5.872-.622 8.78-2.311 1.832-4.755 3.49-7.311 4.961-2.548 1.473-5.199 2.76-7.933 3.851-2.734-1.091-5.386-2.379-7.934-3.854-2.555-1.471-4.999-3.129-7.31-4.96-.829-5.824-.829-11.736 0-17.56zm29.92-3.279c-1.804-1.313-3.676-2.531-5.609-3.646-1.923-1.106-3.9-2.114-5.925-3.021 2.879-.962 5.849-1.63 8.863-1.991 1.181 2.788 2.075 5.689 2.669 8.658zm-2.672 32.776c-3.017-.361-5.99-1.028-8.872-1.991 2.029-.905 4.01-1.914 5.935-3.021 1.933-1.116 3.805-2.333 5.608-3.646-.594 2.969-1.489 5.87-2.671 8.658m5.796-27.355c2.258 2.002 4.309 4.225 6.122 6.638-1.812 2.412-3.862 4.636-6.12 6.638.223-2.206.333-4.421.332-6.638.001-2.217-.111-4.432-.334-6.638m-26.866 22.343c1.923 1.106 3.9 2.114 5.925 3.021-2.879.962-5.849 1.63-8.863 1.991-1.181-2.788-2.076-5.689-2.67-8.658 1.804 1.313 3.675 2.53 5.608 3.646m9.067 16.028c-4.257 0-8.125-3.376-10.978-8.852 3.756-.533 7.439-1.492 10.978-2.861 3.539 1.369 7.224 2.329 10.982 2.861-2.859 5.476-6.726 8.852-10.982 8.852m28.333-13.6c-1.252 0-2.267-1.014-2.267-2.266s1.015-2.267 2.267-2.267 2.267 1.015 2.267 2.267-1.015 2.266-2.267 2.266m.238-6.776c-.08 0-.156-.024-.238-.024-2.504 0-4.533 2.03-4.533 4.534.004 1.013.351 1.995.985 2.787-2.469 1.628-6.072 2.402-10.387 2.24 1.405-3.51 2.401-7.171 2.968-10.909 2.931-2.361 5.584-5.047 7.907-8.008 1.914 2.778 3.052 6.016 3.298 9.38m2.029-27.224c0 1.252-1.015 2.267-2.267 2.267s-2.267-1.015-2.267-2.267 1.015-2.266 2.267-2.266 2.267 1.014 2.267 2.266m-5.815-2.787c-.634.792-.981 1.774-.985 2.787 0 2.504 2.029 4.534 4.533 4.534.082 0 .158-.02.238-.024-.246 3.364-1.384 6.602-3.298 9.38-2.323-2.961-4.977-5.647-7.908-8.008-.568-3.738-1.565-7.399-2.972-10.909 4.319-.163 7.924.607 10.392 2.24m-24.785-13.079c4.256 0 8.125 3.376 10.977 8.852-3.754.533-7.435 1.493-10.972 2.861-3.54-1.369-7.224-2.329-10.982-2.862 2.853-5.475 6.72-8.851 10.977-8.851m-17.794 25.095c-.445 4.414-.445 8.862 0 13.276-2.261-2.001-4.314-4.225-6.128-6.638 1.815-2.413 3.868-4.637 6.128-6.638m-7.48 8.613c2.325 2.961 4.978 5.647 7.91 8.007.567 3.74 1.564 7.402 2.97 10.913-4.313.163-7.918-.613-10.387-2.241.632-.792.978-1.774.981-2.787 0-2.504-2.03-4.534-4.534-4.534-.081 0-.157.021-.238.024.246-3.364 1.385-6.602 3.298-9.379z"/>
    </g>
    <path fill="#efeff4" d="M369 64.9462C369 55.5871 376.587 48 385.946 48h84.108C479.413 48 487 55.5871 487 64.9462V80c0 9.3592-7.587 16.9462-16.946 16.9462h-84.108C376.587 96.9462 369 89.3591 369 80z"/>
    <rect width="24" height="24" x="385" y="60.4731" fill="#ffec00" rx="4"/>
    <path fill="#175a5a" d="m398.44 74.0547-.901 1.2622.904 1.2655c.066.0904.096.2023.083.3137-.012.1114-.066.2141-.15.2878-.046.0388-.1.0676-.158.0846-.058.0169-.119.0218-.178.0142-.06-.0076-.118-.0275-.17-.0584-.051-.0309-.096-.0722-.131-.1213l-.738-1.0336-.738 1.033c-.035.0491-.08.0903-.131.1213-.052.0309-.11.0508-.169.0585-.06.0076-.121.0028-.179-.0141-.057-.0169-.111-.0455-.157-.0842-.085-.0735-.139-.1762-.151-.2876-.013-.1115.017-.2235.083-.3139l.904-1.2655-.901-1.2622c-.069-.0933-.099-.2095-.084-.3245.015-.1149.074-.2197.164-.2924.047-.0355.1-.0613.157-.0759.056-.0145.115-.0175.173-.0088s.114.029.164.0596.093.071.127.1186l.738 1.0331.738-1.0331c.034-.0476.077-.088.127-.1186s.106-.0509.164-.0596c.057-.0087.117-.0057.173.0088.057.0146.11.0404.157.0759.09.0727.149.1775.164.2924.015.115-.015.2312-.084.3245m-3.845-.7066h-2.173c-.113-.0016-.223.0396-.306.1154-.084.0758-.136.1805-.146.2932-.004.0598.004.1198.024.1763.021.0565.052.1082.093.1519.041.0438.091.0786.146.1024s.114.036.174.0358h.656v2.6103c-.001.1131.04.2226.116.3066.075.0839.18.136.293.1456.06.004.12-.0044.176-.0246.057-.0202.109-.0518.152-.0928.044-.041.079-.0906.103-.1457.023-.055.036-.1144.035-.1744v-2.625h.642c.113.0017.222-.0395.306-.1153s.136-.1805.146-.2932c.004-.0598-.004-.1198-.024-.1763-.021-.0565-.052-.1082-.093-.1519-.041-.0438-.091-.0786-.146-.1024s-.114-.036-.174-.0359m7 0h-2.173c-.113-.0013-.222.04-.306.1157-.083.0758-.135.1804-.145.2929-.004.0598.004.1198.024.1763.021.0565.052.1082.093.1519.041.0438.091.0786.146.1024s.114.036.174.0358h.657v2.6103c-.002.1129.039.2222.115.3059s.181.1356.293.1453c.06.0039.12-.0044.176-.0246.057-.0203.109-.0518.152-.0929.044-.041.079-.0906.103-.1456.023-.0551.036-.1145.036-.1744v-2.624h.641c.113.0014.222-.0399.306-.1157.083-.0757.135-.1803.145-.2928.004-.0598-.004-.1198-.024-.1763-.021-.0565-.052-.1082-.093-.1519-.041-.0438-.091-.0786-.146-.1024s-.114-.036-.174-.0359m-9.407-1.5312v-4.1563c0-.232.093-.4546.257-.6187s.386-.2563.618-.2563h5.25c.058 0 .115.0113.168.0332.053.022.101.0542.142.0948l3.062 3.0625c.041.0407.073.0889.095.142.022.0532.034.1101.033.1675v1.5313c0 .058-.023.1137-.064.1547s-.096.064-.154.064h-9.188c-.058 0-.113-.023-.154-.064s-.065-.0967-.065-.1547m6.125-1.5313h2.407l-2.407-2.4062z"/>
    <path fill="#292929" d="M422.091 78.4731h-3.943V66.8368h4.022c1.156 0 2.148.2329 2.978.6988.833.4622 1.473 1.1269 1.92 1.9944.447.8674.671 1.9053.671 3.1136 0 1.2121-.226 2.2538-.677 3.125-.446.8712-1.092 1.5398-1.937 2.0057-.841.4659-1.852.6988-3.034.6988m-1.835-1.8238h1.733c.81 0 1.486-.1477 2.028-.4432.542-.2992.949-.7443 1.222-1.3352.272-.5947.409-1.3371.409-2.2273s-.137-1.6288-.409-2.2159c-.273-.5909-.676-1.0322-1.211-1.3239-.53-.2954-1.189-.4432-1.977-.4432h-1.795zm18.167-7.3523h1.324q0 .9432-.273 1.5852c-.178.4243-.483.7444-.914.9603-.432.2159-1.029.3238-1.79.3238v-1.0341c.507 0 .877-.0644 1.108-.1931.231-.1326.379-.3353.443-.608s.099-.6174.102-1.0341m-3.176 5.5057v-5.0568h2.063v8.7272h-2V76.922h-.091c-.197.4886-.521.8883-.972 1.1989q-.6705.4659-1.653.4659c-.572 0-1.078-.1269-1.517-.3807q-.654-.3864-1.023-1.1193-.369-.7386-.369-1.7841v-5.5568h2.056v5.2386c.004.553.156.9924.455 1.3182.303.3257.701.4886 1.193.4886.303 0 .597-.0738.881-.2216.288-.1477.523-.3674.704-.6591q.279-.4431.273-1.1079m-3.409-6.1193-1.244-.0284c0-.6743.174-1.2027.522-1.5853.349-.3825.779-.5738 1.29-.5738.246 0 .46.0416.642.125.182.0795.349.1723.5.2784.156.106.307.2007.455.2841.148.0795.31.1193.488.1193.216 0 .387-.0814.512-.2443.129-.1629.195-.3712.199-.625l1.221.0511c-.003.678-.18 1.2046-.528 1.5796q-.5235.5568-1.284.5625c-.273.0037-.502-.036-.688-.1194-.185-.0833-.348-.178-.488-.2841-.137-.106-.275-.1988-.415-.2784-.14-.0833-.305-.125-.494-.125-.201 0-.366.0796-.495.2387s-.193.3674-.193.625m14.713-1.8466v11.6363h-2.057V66.8368zm2.115 11.6363v-8.7272h2.057v8.7272zm1.034-9.9659c-.325 0-.606-.1079-.841-.3238-.234-.2197-.352-.483-.352-.7898 0-.3106.118-.5739.352-.7898.235-.2197.516-.3295.841-.3295.33 0 .61.1098.841.3295.235.2159.352.4792.352.7898 0 .3068-.117.5701-.352.7898-.231.2159-.511.3238-.841.3238m7.002 10.1364c-.875 0-1.631-.1818-2.267-.5455-.633-.3674-1.12-.8863-1.461-1.5568-.34-.6742-.511-1.4678-.511-2.3807 0-.8977.171-1.6856.511-2.3636.345-.6818.826-1.2121 1.444-1.5909.617-.3826 1.342-.5739 2.176-.5739.538 0 1.045.0872 1.522.2614.482.1705.906.4356 1.273.7955.371.3598.663.8181.875 1.375.212.553.318 1.2121.318 1.9772v.6307h-7.153v-1.3864h5.182c-.004-.3939-.089-.7443-.256-1.0511q-.2505-.4659-.699-.7329c-.295-.1781-.64-.2671-1.034-.2671-.42 0-.79.1023-1.108.3068-.318.2008-.566.4659-.744.7955-.174.3257-.263.6837-.267 1.0738v1.2103c0 .5075.093.9432.278 1.3068.186.3598.445.6364.779.8295q.4995.2841 1.17.2841c.299 0 .57-.0416.813-.125q.363-.13065.63-.3807c.178-.1666.313-.3731.404-.6193l1.92.2159q-.1815.7614-.693 1.3296c-.337.375-.769.6666-1.295.875-.527.2045-1.129.3068-1.807.3068m.988-9.9432-1.153-1.4545-1.153 1.4545h-1.802v-.0795l2.154-2.4546h1.608l2.147 2.4546v.0795zm-1.153 12.9148c-.33 0-.612-.1099-.847-.3296-.231-.2197-.346-.4829-.346-.7897s.115-.5701.346-.7898c.235-.2197.515-.3295.841-.3295.33 0 .61.1098.841.3295.235.2197.352.483.352.7898s-.117.57-.352.7897c-.231.2197-.509.3296-.835.3296m11.348-6.8125v-5.0568h2.057v8.7272h-1.995V76.922h-.09c-.197.4886-.521.8883-.972 1.1989q-.6705.4659-1.653.4659-.858 0-1.518-.3807c-.435-.2576-.776-.6307-1.022-1.1193-.246-.4924-.37-1.0871-.37-1.7841v-5.5568h2.057v5.2386c0 .553.152.9924.455 1.3182.303.3257.701.4886 1.193.4886.303 0 .597-.0738.881-.2216q.426-.22155.699-.6591c.185-.2954.278-.6647.278-1.1079"/>
    <path fill="#efeff4" d="M214 16.9462C214 7.58709 221.587 0 230.946 0h84.108C324.413 0 332 7.58709 332 16.9462v15.1076C332 41.4129 324.413 49 315.054 49h-84.108C221.587 49 214 41.4129 214 32.0538z"/>
    <rect width="24" height="24" x="230" y="12.5" fill="#175a5a" rx="4"/>
    <path fill="#fff" d="M237.406 24.0625h9.188c.058 0 .113-.023.154-.0641.041-.041.064-.0966.064-.1546v-1.5313c.001-.0575-.011-.1144-.033-.1675s-.054-.1014-.094-.142l-3.063-3.0625c-.041-.0406-.089-.0729-.142-.0948-.053-.022-.11-.0332-.168-.0332h-5.25c-.232 0-.454.0922-.618.2563s-.257.3866-.257.6187v4.1563c0 .058.024.1136.065.1546.041.0411.096.0641.154.0641m5.906-4.1562 2.407 2.4062h-2.407zm-5.687 7.4375c0 .6015.393 1.0937.875 1.0937.104-.0019.206-.0247.301-.0671.094-.0424.179-.1034.25-.1795.075-.08.178-.1292.288-.1382.11-.0091.219.0226.307.0889.048.0378.087.0851.116.139.028.0539.045.1131.049.1739.005.0608-.004.1219-.025.1792-.02.0574-.053.1097-.095.1538-.152.164-.336.2951-.541.3854s-.426.1378-.65.1396c-.965 0-1.75-.8832-1.75-1.9687 0-1.0856.785-1.9688 1.75-1.9688.219.0017.435.047.636.1334s.382.2121.534.3697c.081.0779.13.1832.137.2953.008.1121-.027.2229-.097.3107-.04.047-.089.0851-.144.1119s-.116.0417-.177.0436c-.061.002-.123-.009-.179-.0322-.057-.0233-.109-.0582-.151-.1026-.071-.0783-.157-.1413-.253-.1851s-.2-.0675-.306-.0697c-.482 0-.875.4922-.875 1.0938m5.906.0289c-.01.1125-.061.2171-.145.2928-.084.0758-.193.1171-.306.1157h-.643v.6415c.002.1129-.039.2222-.115.3059s-.181.1356-.293.1453c-.06.004-.12-.0044-.176-.0246-.057-.0202-.109-.0518-.152-.0928-.044-.041-.079-.0906-.103-.1457-.023-.0551-.036-.1144-.036-.1744v-.6552h-.641c-.113.0014-.222-.0399-.306-.1157-.083-.0757-.135-.1803-.145-.2928-.004-.0598.004-.1198.024-.1763.021-.0565.052-.1082.093-.1519.041-.0438.091-.0786.146-.1024s.114-.036.174-.0359h.657v-.6414c-.002-.1129.039-.2222.115-.3059s.181-.1356.293-.1453c.06-.004.12.0044.176.0246.057.0202.109.0518.152.0928.044.041.079.0906.103.1457s.036.1144.036.1744v.6562h.656c.06.0001.119.0124.174.0361.054.0238.104.0586.145.1022s.072.0951.092.1514c.021.0563.029.1161.025.1757m3.719 0c-.01.1125-.062.2171-.145.2928-.084.0758-.193.1171-.306.1157h-.643v.6415c.002.1129-.04.2222-.115.3059-.076.0837-.181.1356-.293.1453-.06.004-.12-.0044-.177-.0246-.056-.0202-.108-.0518-.152-.0928-.043-.041-.078-.0906-.102-.1457s-.036-.1144-.036-.1744v-.6552h-.641c-.113.0014-.222-.0399-.306-.1157-.084-.0757-.136-.1803-.145-.2928-.004-.0598.004-.1198.024-.1763s.052-.1082.093-.1519c.041-.0438.091-.0786.146-.1024s.114-.036.174-.0359h.656v-.6414c-.001-.1129.04-.2222.116-.3059s.18-.1356.293-.1453c.06-.004.12.0044.176.0246.057.0202.108.0518.152.0928s.079.0906.102.1457c.024.0551.036.1144.036.1744v.6562h.657c.059.0001.119.0124.173.0361.055.0238.105.0586.146.1022.04.0436.072.0951.092.1514s.029.1161.025.1757"/>
    <path fill="#292929" d="M267.091 30.5h-3.943V18.8636h4.022c1.156 0 2.148.233 2.978.6989.833.4621 1.473 1.1269 1.92 1.9943s.671 1.9053.671 3.1137c0 1.2121-.226 2.2537-.677 3.125-.446.8712-1.092 1.5397-1.937 2.0056-.841.4659-1.852.6989-3.034.6989m-1.835-1.8239h1.733q1.215 0 2.028-.4431c.542-.2993.949-.7444 1.222-1.3353.272-.5947.409-1.3371.409-2.2272 0-.8902-.137-1.6288-.409-2.216-.273-.5909-.676-1.0322-1.211-1.3238-.53-.2955-1.189-.4432-1.977-.4432h-1.795zm18.167-7.3522h1.324q0 .9432-.273 1.5852c-.178.4242-.483.7443-.914.9602-.432.2159-1.029.3239-1.79.3239v-1.0341c.507 0 .877-.0644 1.108-.1932.231-.1326.379-.3352.443-.6079.064-.2728.099-.6175.102-1.0341m-3.176 5.5056v-5.0568h2.063V30.5h-2v-1.5511h-.091q-.2955.7329-.972 1.1988-.6705.4659-1.653.4659c-.572 0-1.078-.1269-1.517-.3806-.436-.2576-.777-.6307-1.023-1.1194q-.369-.7386-.369-1.7841v-5.5568h2.056v5.2387c.004.553.156.9924.455 1.3181.303.3258.701.4887 1.193.4887.303 0 .597-.0739.881-.2216.288-.1477.523-.3674.704-.6591.186-.2955.277-.6648.273-1.108m-3.409-6.1193-1.244-.0284q0-1.0113.522-1.5852.5235-.5739 1.29-.5739c.246 0 .46.0417.642.125.182.0796.349.1724.5.2784.156.1061.307.2008.455.2841.148.0796.31.1193.488.1193.216 0 .387-.0814.512-.2443.129-.1629.195-.3712.199-.625l1.221.0512c-.003.678-.18 1.2045-.528 1.5795q-.5235.5568-1.284.5625c-.273.0038-.502-.036-.688-.1193-.185-.0833-.348-.178-.488-.2841-.137-.1061-.275-.1989-.415-.2784-.14-.0833-.305-.125-.494-.125-.201 0-.366.0795-.495.2386s-.193.3675-.193.625m14.713-1.8466V30.5h-2.057V18.8636zM293.666 30.5v-8.7273h2.057V30.5zm1.034-9.9659c-.325 0-.606-.108-.841-.3239-.234-.2197-.352-.4829-.352-.7897 0-.3107.118-.5739.352-.7898.235-.2197.516-.3296.841-.3296.33 0 .61.1099.841.3296.235.2159.352.4791.352.7898 0 .3068-.117.57-.352.7897-.231.2159-.511.3239-.841.3239m7.002 10.1364c-.875 0-1.631-.1819-2.267-.5455-.633-.3674-1.12-.8864-1.461-1.5568-.34-.6743-.511-1.4678-.511-2.3807 0-.8977.171-1.6856.511-2.3636.345-.6819.826-1.2122 1.444-1.5909.617-.3826 1.342-.5739 2.176-.5739.538 0 1.045.0871 1.522.2614.482.1704.906.4356 1.273.7954.371.3599.663.8182.875 1.375q.318.8295.318 1.9773v.6307h-7.153v-1.3864h5.182c-.004-.3939-.089-.7443-.256-1.0511-.167-.3106-.4-.555-.699-.733-.295-.178-.64-.267-1.034-.267-.42 0-.79.1022-1.108.3068-.318.2007-.566.4659-.744.7954-.174.3258-.263.6837-.267 1.0739v1.2102c0 .5076.093.9432.278 1.3068.186.3599.445.6364.779.8296q.4995.2841 1.17.2841c.299 0 .57-.0417.813-.125q.363-.13065.63-.3807c.178-.1667.313-.3731.404-.6193l1.92.2159c-.121.5076-.352.9507-.693 1.3295-.337.375-.769.6667-1.295.875-.527.2046-1.129.3069-1.807.3069m.988-9.9432-1.153-1.4546-1.153 1.4546h-1.802v-.0796l2.154-2.4545h1.608l2.147 2.4545v.0796zm-1.153 12.9147c-.33 0-.612-.1098-.847-.3295-.231-.2197-.346-.483-.346-.7898s.115-.57.346-.7897c.235-.2197.515-.3296.841-.3296.33 0 .61.1099.841.3296.235.2197.352.4829.352.7897s-.117.5701-.352.7898c-.231.2197-.509.3295-.835.3295m11.348-6.8125v-5.0568h2.057V30.5h-1.995v-1.5511h-.09q-.2955.7329-.972 1.1988-.6705.4659-1.653.4659c-.572 0-1.078-.1269-1.518-.3806-.435-.2576-.776-.6307-1.022-1.1194-.246-.4924-.37-1.0871-.37-1.7841v-5.5568h2.057v5.2387c0 .553.152.9924.455 1.3181.303.3258.701.4887 1.193.4887.303 0 .597-.0739.881-.2216q.426-.22155.699-.6591c.185-.2955.278-.6648.278-1.108"/>
    <path fill="#efeff4" d="M33 141.946C33 132.587 40.5871 125 49.9462 125h84.1078c9.359 0 16.946 7.587 16.946 16.946V157c0 9.359-7.587 16.946-16.946 16.946H49.9462C40.5871 173.946 33 166.359 33 157z"/>
    <rect width="24" height="24" x="49" y="137.473" fill="#ffec00" rx="4"/>
    <path fill="#175a5a" d="m65.6855 146.976-3.0625-3.062c-.0406-.041-.0889-.073-.142-.095s-.11-.033-.1675-.033h-5.25c-.2321 0-.4546.092-.6187.256s-.2563.387-.2563.619v4.156c0 .058.023.114.0641.155.041.041.0966.064.1546.064h9.1875c.0581 0 .1137-.023.1547-.064s.0641-.097.0641-.155v-1.531c0-.058-.0112-.115-.0332-.168s-.0542-.101-.0948-.142m-3.372.31v-2.407l2.4062 2.407zm-3.5099 5.923c-.017.167-.0709.329-.1578.473s-.2046.267-.3447.36c-.2839.189-.636.244-.9565.244-.2795-.002-.5576-.039-.828-.11-.1104-.032-.2036-.107-.2595-.207-.0559-.101-.0698-.219-.0389-.33s.1043-.205.2041-.262c.0999-.057.2183-.073.3295-.043.2395.065.8176.147 1.0691-.02.0481-.032.1001-.083.117-.215.0192-.146-.0388-.224-.6989-.415-.5113-.148-1.3671-.396-1.2578-1.264.0171-.164.07-.322.155-.464.0851-.141.2002-.262.3372-.354.6475-.437 1.68-.181 1.7954-.15.1123.029.2082.102.2667.202s.0748.22.0453.332-.1024.208-.2027.267c-.1002.058-.2196.075-.3319.045-.245-.064-.8329-.14-1.0844.031-.033.022-.0601.052-.0792.087-.019.035-.0294.074-.0302.113-.006.05-.0077.06.0612.104.1264.082.3522.147.5715.21.5354.155 1.441.419 1.3185 1.366m3.4847-2.276-1.0882 3.047c-.0263.078-.0732.147-.1359.2-.0626.053-.1385.088-.2196.101-.0999.015-.2017-.006-.2881-.058s-.1521-.133-.1861-.228l-1.0871-3.045c-.0408-.109-.0379-.229.008-.336.0458-.106.1312-.191.2381-.236.0545-.021.1128-.031.1713-.03.0585.002.1162.015.1695.039.0533.025.1011.059.1408.103.0396.043.0701.093.0898.149l.6814 1.908.6815-1.908c.039-.11.1198-.199.2247-.249.1048-.049.2251-.055.3344-.016s.1986.119.2483.224.0557.225.0167.335zm3.5252 1.603v.922c0 .114-.0444.223-.1236.305-.1522.163-.3361.294-.5405.384s-.4251.137-.6484.139c-.9647 0-1.75-.884-1.75-1.969 0-1.086.7853-1.969 1.75-1.969.3129.001.6188.093.8799.266.0948.059.1641.152.1945.259.0303.108.0195.223-.0304.323-.0288.054-.0686.101-.1169.139-.0484.038-.1041.065-.1636.08s-.1215.017-.1819.006c-.0604-.01-.1179-.033-.1687-.068-.1212-.084-.2652-.129-.4129-.13-.4823 0-.875.492-.875 1.094 0 .601.3927 1.094.875 1.094.158-.001.3115-.053.4375-.149v-.289c-.06 0-.1193-.012-.1744-.036-.0551-.023-.1047-.058-.1457-.102s-.0726-.096-.0928-.152-.0286-.116-.0246-.176c.0098-.113.0618-.218.1456-.293.0838-.076.1931-.117.3061-.116h.4233c.116 0 .2273.046.3094.128.082.082.1281.194.1281.31"/>
    <path fill="#292929" d="M86.0909 155.473h-3.9432v-11.636h4.0228q1.73295 0 2.9772.699c.8334.462 1.4735 1.127 1.9205 1.994s.6704 1.905.6704 3.114c0 1.212-.2253 2.253-.6761 3.125-.447.871-1.0928 1.539-1.9375 2.005-.8409.466-1.8523.699-3.0341.699m-1.8352-1.824h1.7329c.8106 0 1.4868-.147 2.0284-.443q.81255-.4485 1.2216-1.335c.2728-.595.4091-1.337.4091-2.227 0-.891-.1363-1.629-.4091-2.216-.2727-.591-.6761-1.033-1.2102-1.324-.5303-.296-1.1894-.443-1.9773-.443h-1.7954zm18.1673-7.352h1.324c0 .629-.091 1.157-.273 1.585-.178.424-.483.745-.914.96-.432.216-1.029.324-1.79.324v-1.034c.507 0 .877-.064 1.108-.193.231-.133.379-.335.443-.608s.099-.617.102-1.034m-3.1758 5.506v-5.057h2.0628v8.727h-2.0003v-1.551h-.0909c-.197.489-.5209.888-.9716 1.199-.447.31-.9981.466-1.6534.466q-.858 0-1.5171-.381c-.4356-.257-.7765-.631-1.0227-1.119-.2462-.493-.3693-1.087-.3693-1.784v-5.557h2.0568v5.239c.0038.553.1553.992.4545 1.318.3031.325.7008.488 1.1932.488.303 0 .5966-.074.8807-.221.2879-.148.5227-.368.7045-.659.1856-.296.2765-.665.2728-1.108m-3.4091-6.12-1.2443-.028c0-.674.1742-1.203.5227-1.585.3485-.383.7784-.574 1.2897-.574.2463 0 .4603.042.6421.125.1818.079.3485.172.5.278.1553.106.3068.201.4545.284.1478.08.3106.12.4887.12.2159 0 .3863-.082.5113-.245.1288-.163.1951-.371.1989-.625l1.2213.052c-.003.678-.18 1.204-.5281 1.579-.3485.371-.7765.559-1.2841.563-.2727.003-.5019-.036-.6875-.12-.1856-.083-.3485-.178-.4886-.284-.1364-.106-.2747-.199-.4148-.278-.1402-.084-.3049-.125-.4943-.125-.2008 0-.3656.079-.4944.238-.1287.159-.1931.368-.1931.625m14.7129-1.846v11.636h-2.057v-11.636zm2.115 11.636v-8.727h2.057v8.727zm1.034-9.966c-.325 0-.606-.108-.841-.324-.234-.219-.352-.483-.352-.789 0-.311.118-.574.352-.79.235-.22.516-.33.841-.33.33 0 .61.11.841.33.235.216.352.479.352.79 0 .306-.117.57-.352.789-.231.216-.511.324-.841.324m7.002 10.137c-.875 0-1.631-.182-2.267-.546q-.9495-.5505-1.461-1.557c-.34-.674-.511-1.467-.511-2.38 0-.898.171-1.686.511-2.364.345-.682.826-1.212 1.444-1.591.617-.382 1.342-.574 2.176-.574.538 0 1.045.087 1.522.262.482.17.906.435 1.273.795.371.36.663.818.875 1.375q.318.8295.318 1.977v.631h-7.153v-1.386h5.182c-.004-.394-.089-.745-.256-1.051-.167-.311-.4-.555-.699-.733-.295-.178-.64-.267-1.034-.267-.42 0-.79.102-1.108.306-.318.201-.566.466-.744.796-.174.326-.263.683-.267 1.074v1.21c0 .507.093.943.278 1.307.186.36.445.636.779.829.333.19.723.284 1.17.284.299 0 .57-.041.813-.125.242-.087.452-.214.63-.38.178-.167.313-.373.404-.62l1.92.216c-.121.508-.352.951-.693 1.33-.337.375-.769.666-1.295.875-.527.204-1.129.307-1.807.307m.988-9.944-1.153-1.454-1.153 1.454h-1.802v-.079l2.154-2.455h1.608l2.147 2.455v.079zm-1.153 12.915c-.33 0-.612-.11-.847-.329-.231-.22-.346-.483-.346-.79s.115-.57.346-.79c.235-.22.515-.329.841-.329.33 0 .61.109.841.329.235.22.352.483.352.79s-.117.57-.352.79c-.231.219-.509.329-.835.329m11.348-6.812v-5.057h2.057v8.727h-1.995v-1.551h-.09c-.197.489-.521.888-.972 1.199-.447.31-.998.466-1.653.466q-.858 0-1.518-.381c-.435-.257-.776-.631-1.022-1.119-.246-.493-.37-1.087-.37-1.784v-5.557h2.057v5.239c0 .553.152.992.455 1.318.303.325.701.488 1.193.488.303 0 .597-.074.881-.221.284-.148.517-.368.699-.659.185-.296.278-.665.278-1.108"/>
    <path stroke="url(#u)" stroke-width="6" d="M271 48v165"/>
    <path fill="#efeff4" d="M375 141.946c0-9.359 7.587-16.946 16.946-16.946h84.108c9.359 0 16.946 7.587 16.946 16.946V157c0 9.359-7.587 16.946-16.946 16.946h-84.108c-9.359 0-16.946-7.587-16.946-16.946z"/>
    <rect width="24" height="24" x="391" y="137.473" fill="#175a5a" rx="4"/>
    <path fill="#fff" d="M408.251 150.815c-.01.112-.062.217-.145.293-.084.075-.193.117-.306.115h-.643v2.61c.002.113-.04.223-.115.306-.076.084-.181.136-.293.146-.06.004-.12-.005-.177-.025-.056-.02-.108-.052-.152-.093-.043-.041-.078-.09-.102-.146-.024-.055-.036-.114-.036-.174v-2.624h-.641c-.113.002-.222-.04-.306-.115-.084-.076-.136-.181-.145-.293-.004-.06.004-.12.024-.177.02-.056.052-.108.093-.152.041-.043.091-.078.146-.102s.114-.036.174-.036h2.188c.059 0 .119.012.174.036s.104.059.145.103c.041.043.072.095.092.152.021.056.029.116.025.176m-7.219 1.111c-.025.833-.73 1.485-1.564 1.485h-.405v.422c.002.113-.039.223-.115.307s-.18.136-.293.146c-.06.004-.12-.005-.176-.025-.057-.02-.109-.052-.152-.093-.044-.041-.079-.09-.103-.145-.023-.056-.036-.115-.036-.175v-3.062c0-.116.047-.228.129-.31s.193-.128.309-.128h.875c.205 0 .408.041.597.121s.36.197.503.344c.142.147.254.321.328.513.074.191.109.395.103.6m-.875-.109c-.019-.166-.098-.318-.223-.427-.125-.11-.286-.169-.452-.167h-.419v1.313h.438c.092 0 .183-.019.267-.056s.159-.091.221-.158c.062-.068.109-.148.138-.235s.039-.18.03-.271zm4.594.109c-.025.833-.731 1.485-1.564 1.485h-.405v.422c.002.113-.04.223-.115.306-.076.084-.181.136-.293.146-.06.004-.12-.005-.177-.025-.056-.02-.108-.052-.152-.093-.043-.041-.078-.09-.102-.146-.024-.055-.036-.114-.036-.174v-3.061c0-.116.046-.228.128-.31s.194-.128.31-.128h.875c.205 0 .408.041.597.121s.359.197.502.344.255.321.329.513c.074.191.109.395.103.6m-.875-.109c-.019-.166-.099-.318-.223-.427-.125-.11-.286-.169-.452-.167h-.419v1.313h.438c.092 0 .182-.019.266-.056s.16-.091.222-.158c.062-.068.108-.148.137-.235s.04-.18.031-.271zm-5.688-3v-4.156c0-.232.093-.455.257-.619s.386-.256.618-.256h5.25c.058 0 .115.011.168.033s.101.054.142.095l3.063 3.062c.04.041.072.089.094.142s.034.11.033.168v1.531c0 .058-.023.114-.064.155s-.096.064-.154.064h-9.188c-.058 0-.113-.023-.154-.064s-.065-.097-.065-.155m6.125-1.531h2.407l-2.407-2.407z"/>
    <path fill="#292929" d="M428.091 155.473h-3.943v-11.636h4.022c1.156 0 2.148.233 2.978.699.833.462 1.473 1.127 1.92 1.994s.671 1.905.671 3.114c0 1.212-.226 2.253-.677 3.125-.446.871-1.092 1.539-1.937 2.005-.841.466-1.852.699-3.034.699m-1.835-1.824h1.733c.81 0 1.486-.147 2.028-.443.542-.299.949-.744 1.222-1.335.272-.595.409-1.337.409-2.227 0-.891-.137-1.629-.409-2.216-.273-.591-.676-1.033-1.211-1.324-.53-.296-1.189-.443-1.977-.443h-1.795zm18.167-7.352h1.324c0 .629-.091 1.157-.273 1.585-.178.424-.483.745-.914.96-.432.216-1.029.324-1.79.324v-1.034c.507 0 .877-.064 1.108-.193.231-.133.379-.335.443-.608s.099-.617.102-1.034m-3.176 5.506v-5.057h2.063v8.727h-2v-1.551h-.091c-.197.489-.521.888-.972 1.199-.447.31-.998.466-1.653.466-.572 0-1.078-.127-1.517-.381-.436-.257-.777-.631-1.023-1.119-.246-.493-.369-1.087-.369-1.784v-5.557h2.056v5.239c.004.553.156.992.455 1.318.303.325.701.488 1.193.488.303 0 .597-.074.881-.221.288-.148.523-.368.704-.659.186-.296.277-.665.273-1.108m-3.409-6.12-1.244-.028c0-.674.174-1.203.522-1.585.349-.383.779-.574 1.29-.574.246 0 .46.042.642.125.182.079.349.172.5.278.156.106.307.201.455.284.148.08.31.12.488.12.216 0 .387-.082.512-.245.129-.163.195-.371.199-.625l1.221.052c-.003.678-.18 1.204-.528 1.579-.349.371-.777.559-1.284.563-.273.003-.502-.036-.688-.12-.185-.083-.348-.178-.488-.284-.137-.106-.275-.199-.415-.278-.14-.084-.305-.125-.494-.125-.201 0-.366.079-.495.238s-.193.368-.193.625m14.713-1.846v11.636h-2.057v-11.636zm2.115 11.636v-8.727h2.057v8.727zm1.034-9.966c-.325 0-.606-.108-.841-.324-.234-.219-.352-.483-.352-.789 0-.311.118-.574.352-.79.235-.22.516-.33.841-.33.33 0 .61.11.841.33.235.216.352.479.352.79 0 .306-.117.57-.352.789-.231.216-.511.324-.841.324m7.002 10.137c-.875 0-1.631-.182-2.267-.546q-.9495-.5505-1.461-1.557c-.34-.674-.511-1.467-.511-2.38 0-.898.171-1.686.511-2.364.345-.682.826-1.212 1.444-1.591.617-.382 1.342-.574 2.176-.574.538 0 1.045.087 1.522.262.482.17.906.435 1.273.795.371.36.663.818.875 1.375q.318.8295.318 1.977v.631h-7.153v-1.386h5.182c-.004-.394-.089-.745-.256-1.051-.167-.311-.4-.555-.699-.733-.295-.178-.64-.267-1.034-.267-.42 0-.79.102-1.108.306-.318.201-.566.466-.744.796-.174.326-.263.683-.267 1.074v1.21c0 .507.093.943.278 1.307.186.36.445.636.779.829.333.19.723.284 1.17.284.299 0 .57-.041.813-.125.242-.087.452-.214.63-.38.178-.167.313-.373.404-.62l1.92.216c-.121.508-.352.951-.693 1.33-.337.375-.769.666-1.295.875-.527.204-1.129.307-1.807.307m.988-9.944-1.153-1.454-1.153 1.454h-1.802v-.079l2.154-2.455h1.608l2.147 2.455v.079zm-1.153 12.915c-.33 0-.612-.11-.847-.329-.231-.22-.346-.483-.346-.79s.115-.57.346-.79c.235-.22.515-.329.841-.329.33 0 .61.109.841.329.235.22.352.483.352.79s-.117.57-.352.79c-.231.219-.509.329-.835.329m11.348-6.812v-5.057h2.057v8.727h-1.995v-1.551h-.09c-.197.489-.521.888-.972 1.199-.447.31-.998.466-1.653.466q-.858 0-1.518-.381c-.435-.257-.776-.631-1.022-1.119-.246-.493-.37-1.087-.37-1.784v-5.557h2.057v5.239c0 .553.152.992.455 1.318.303.325.701.488 1.193.488.303 0 .597-.074.881-.221.284-.148.517-.368.699-.659.185-.296.278-.665.278-1.108"/>
    <path fill="#ffec00" d="m141.671 103.481-1.19 1.19c-.104.105-.228.188-.365.245s-.283.086-.431.086c-.149 0-.295-.029-.432-.086s-.261-.14-.365-.245l-5.304-5.3035-1.803 4.7025-.012.031c-.115.268-.306.496-.549.655-.244.16-.529.245-.82.244h-.074c-.303-.013-.596-.118-.837-.303-.242-.184-.421-.439-.514-.728l-4.9-15.0077c-.086-.2626-.097-.5439-.033-.8127.064-.2687.202-.5144.397-.7098s.441-.3328.71-.397.55-.0527.812.0332l15.008 4.9003c.287.096.538.2764.72.5176.183.2412.288.532.302.8341.015.3021-.063.6015-.222.8588-.158.2574-.391.4607-.668.5833l-.031.0122-4.702 1.8065 5.303 5.3022c.211.211.33.497.33.796 0 .298-.119.584-.33.795"/>
    <g filter="url(#v)">
      <path fill="#000" stroke="#0045ad" stroke-width="2" d="m87.4388 254.438.2519.109c2.5535 1.186 3.7556 4.18 2.6891 6.819l-11.746 29.073c-1.101 2.725-4.2034 4.042-6.9285 2.941L42.633 281.634c-2.7251-1.101-4.0419-4.204-2.9409-6.929l11.7459-29.072c1.1011-2.725 4.2034-4.042 6.9285-2.941z"/>
      <path fill="#fff" d="M78.2382 270.374c1.4254-1.673 2.0594-3.881 1.7397-6.056-.4595-3.324-3.0134-5.97-6.3191-6.546-.7373-2.071-2.3313-3.724-4.3746-4.535-3.1064-1.263-6.674-.376-8.8259 2.196-2.1627-.398-4.3921.156-6.1169 1.52-2.6479 2.06-3.6624 5.595-2.5092 8.745-1.4255 1.673-2.0594 3.881-1.7398 6.056.4594 3.324 3.0133 5.97 6.3191 6.546.7364 2.071 2.3312 3.724 4.3749 4.534 3.1078 1.265 6.6771.376 8.83-2.199 2.1627.398 4.3921-.155 6.1169-1.52 2.6462-2.06 3.6586-5.593 2.5063-8.743zm-16.7003 10.605c-1.2456-.501-2.2755-1.424-2.9089-2.608.0528-.006.1451-.017.206-.027l6.9737-.981c.3556-.047.6575-.284.7901-.617l3.2206-7.971 1.8321 2.345c.0207.023.0276.055.0196.084l-2.667 6.601c-1.1894 2.934-4.5282 4.354-7.4662 3.174m-9.4598-9.502c-.1886-1.33.0971-2.683.8061-3.822.0317.042.087.117.1272.168l4.3349 5.55c.2189.283.5738.427.9291.375l8.5133-1.197-1.115 2.76c-.0097.029-.0341.051-.0635.06l-7.0488.991c-3.1381.437-6.0374-1.748-6.4824-4.885zm3.4985-12.944c1.0571-.828 2.3711-1.257 3.712-1.214-.0197.049-.0572.134-.0815.194l-2.6391 6.532c-.1359.331-.0827.711.1393.992L62 271.811l-2.9472.414c-.0304.006-.0616-.003-.0836-.025l-4.382-5.613c-1.946-2.497-1.5042-6.1.9882-8.053zm17.7878 12.502-5.2924-6.775 2.9468-.414c.0305-.006.0617.004.0837.026l4.383 5.61c1.9509 2.498 1.5078 6.106-.9908 8.057-1.0573.826-2.3704 1.256-3.7108 1.214l2.7179-6.727c.1368-.331.0842-.71-.1366-.991zm3.8244-2.619c-.0313-.043-.087-.117-.1272-.168l-4.335-5.55c-.2188-.284-.5738-.427-.929-.375l-8.5133 1.197 1.115-2.76c.0097-.029.0341-.051.0634-.06l7.0478-.988c3.1392-.44 6.0409 1.749 6.4796 4.889.1858 1.326-.0985 2.676-.8032 3.814zm-16.9402-1.123-1.8331-2.345c-.0207-.023-.0275-.055-.0196-.085l2.667-6.601c1.1893-2.938 4.5358-4.356 7.4741-3.167 1.2432.502 2.27 1.425 2.9045 2.606-.0527.005-.1441.017-.206.027l-6.9737.981c-.3556.047-.6571.283-.7898.616l-3.2226 7.967-.0007.001zm2.4289-2.274 3.7921-.533 2.3577 3.017-1.4344 3.55-3.7918.532-2.3576-3.017z"/>
    </g>
    <g filter="url(#w)">
      <rect width="63" height="60" x="391" y="247.906" fill="#fff" rx="30" shape-rendering="crispEdges" transform="rotate(-28.3399 391 247.906)"/>
      <path fill="#ffdc64" d="m446.118 244.205-11.83 6.395-11.277-7.326c-.79-.513-1.81.167-1.64 1.094l2.426 13.227-10.452 8.461c-.732.592-.4 1.773.533 1.897l13.329 1.78 4.818 12.556c.337.879 1.562.928 1.969.079l5.812-12.127 13.429-.702c.941-.049 1.366-1.199.684-1.848l-9.737-9.275 3.482-12.989c.244-.91-.718-1.67-1.546-1.222"/>
      <path fill="#ffc850" d="M423.011 243.274c-.79-.513-1.81.167-1.64 1.094l2.426 13.227-10.452 8.461c-.732.592-.4 1.773.533 1.897l13.329 1.78 4.818 12.556c.337.879 1.562.928 1.969.079l1.297-2.707c-7.859-12.431-7.919-24.836-6.704-32.765z"/>
    </g>
  </g>
  <defs>
    <linearGradient id="b" x1="486.5" x2="485.5" y1="325.002" y2="68.0019" gradientUnits="userSpaceOnUse">
      <stop stop-color="#9dbef9"/>
      <stop offset="1" stop-color="#fdfdfd"/>
    </linearGradient>
    <linearGradient id="c" x1="449.5" x2="448.5" y1="325.002" y2="68.0019" gradientUnits="userSpaceOnUse">
      <stop stop-color="#9dbef9"/>
      <stop offset="1" stop-color="#fdfdfd"/>
    </linearGradient>
    <linearGradient id="d" x1="412.5" x2="411.5" y1="324.002" y2="67.0019" gradientUnits="userSpaceOnUse">
      <stop stop-color="#9dbef9"/>
      <stop offset="1" stop-color="#fdfdfd"/>
    </linearGradient>
    <linearGradient id="e" x1="556.002" x2="299" y1="291.5" y2="291.5" gradientUnits="userSpaceOnUse">
      <stop stop-color="#9dbef9"/>
      <stop offset="1" stop-color="#fdfdfd"/>
    </linearGradient>
    <linearGradient id="f" x1="556.002" x2="299" y1="255.5" y2="255.5" gradientUnits="userSpaceOnUse">
      <stop stop-color="#9dbef9"/>
      <stop offset="1" stop-color="#fdfdfd"/>
    </linearGradient>
    <linearGradient id="g" x1="559.002" x2="302" y1="216.5" y2="216.5" gradientUnits="userSpaceOnUse">
      <stop stop-color="#9dbef9"/>
      <stop offset="1" stop-color="#fdfdfd"/>
    </linearGradient>
    <linearGradient id="h" x1="109.5" x2="108.5" y1="155.002" y2="-101.998" gradientUnits="userSpaceOnUse">
      <stop stop-color="#9dbef9"/>
      <stop offset="1" stop-color="#fdfdfd"/>
    </linearGradient>
    <linearGradient id="i" x1="72.5" x2="71.5" y1="154.002" y2="-102.998" gradientUnits="userSpaceOnUse">
      <stop stop-color="#9dbef9"/>
      <stop offset="1" stop-color="#fdfdfd"/>
    </linearGradient>
    <linearGradient id="j" x1="35.5" x2="34.5" y1="154.002" y2="-102.998" gradientUnits="userSpaceOnUse">
      <stop stop-color="#9dbef9"/>
      <stop offset="1" stop-color="#fdfdfd"/>
    </linearGradient>
    <linearGradient id="k" x1="142.002" x2="-115" y1="120.5" y2="120.5" gradientUnits="userSpaceOnUse">
      <stop stop-color="#9dbef9"/>
      <stop offset="1" stop-color="#fdfdfd"/>
    </linearGradient>
    <linearGradient id="l" x1="142.002" x2="-115" y1="84.5" y2="84.5" gradientUnits="userSpaceOnUse">
      <stop stop-color="#9dbef9"/>
      <stop offset="1" stop-color="#fdfdfd"/>
    </linearGradient>
    <linearGradient id="m" x1="145.002" x2="-112" y1="45.5" y2="45.5" gradientUnits="userSpaceOnUse">
      <stop stop-color="#9dbef9"/>
      <stop offset="1" stop-color="#fdfdfd"/>
    </linearGradient>
    <linearGradient id="n" x1="269.317" x2="122.444" y1="212.779" y2="212.55" gradientUnits="userSpaceOnUse">
      <stop stop-color="#acd7ff" stop-opacity=".1"/>
      <stop offset="1" stop-color="#f3f3f3"/>
    </linearGradient>
    <linearGradient id="o" x1="269.378" x2="122.504" y1="173.417" y2="173.188" gradientUnits="userSpaceOnUse">
      <stop stop-color="#acd7ff" stop-opacity=".1"/>
      <stop offset="1" stop-color="#f3f3f3"/>
    </linearGradient>
    <linearGradient id="r" x1="260.098" x2="406.971" y1="211.779" y2="211.55" gradientUnits="userSpaceOnUse">
      <stop stop-color="#acd7ff" stop-opacity=".1"/>
      <stop offset="1" stop-color="#f3f3f3"/>
    </linearGradient>
    <linearGradient id="s" x1="260.157" x2="407.031" y1="173.141" y2="172.911" gradientUnits="userSpaceOnUse">
      <stop stop-color="#acd7ff" stop-opacity=".1"/>
      <stop offset="1" stop-color="#f3f3f3"/>
    </linearGradient>
    <linearGradient id="u" x1="268" x2="268" y1="48" y2="213" gradientUnits="userSpaceOnUse">
      <stop stop-color="#f3f3f3"/>
      <stop offset="1" stop-color="#acd7ff" stop-opacity=".1"/>
    </linearGradient>
    <clipPath id="a">
      <path fill="#fff" d="M0 0h520v326H0z"/>
    </clipPath>
    <clipPath id="q">
      <path fill="#fff" d="m22.3281 64.1636 13.9552954-1.1179137 1.1179137 13.9552954-13.9552954 1.1179137z"/>
    </clipPath>
    <clipPath id="t">
      <path fill="#fff" d="M234.5 235.5h68v68h-68z"/>
    </clipPath>
    <filter id="p" width="143.732" height="80.4133" x="-11.1" y="37.9" color-interpolation-filters="sRGB" filterUnits="userSpaceOnUse">
      <feFlood flood-opacity="0" result="BackgroundImageFix"/>
      <feColorMatrix in="SourceAlpha" result="hardAlpha" values="0 0 0 0 0 0 0 0 0 0 0 0 0 0 0 0 0 0 127 0"/>
      <feOffset dy="10"/>
      <feGaussianBlur stdDeviation="5.55"/>
      <feComposite in2="hardAlpha" operator="out"/>
      <feColorMatrix values="0 0 0 0 0 0 0 0 0 0 0 0 0 0 0 0 0 0 0.25 0"/>
      <feBlend in2="BackgroundImageFix" result="effect1_dropShadow_23_754"/>
      <feBlend in="SourceGraphic" in2="effect1_dropShadow_23_754" result="shape"/>
    </filter>
    <filter id="v" width="65.4663" height="65.4662" x="32.3027" y="235.303" color-interpolation-filters="sRGB" filterUnits="userSpaceOnUse">
      <feFlood flood-opacity="0" result="BackgroundImageFix"/>
      <feBlend in="SourceGraphic" in2="BackgroundImageFix" result="shape"/>
      <feGaussianBlur result="effect1_foregroundBlur_23_754" stdDeviation="3"/>
    </filter>
    <filter id="w" width="146.732" height="145.515" x="359.6" y="190.292" color-interpolation-filters="sRGB" filterUnits="userSpaceOnUse">
      <feFlood flood-opacity="0" result="BackgroundImageFix"/>
      <feColorMatrix in="SourceAlpha" result="hardAlpha" values="0 0 0 0 0 0 0 0 0 0 0 0 0 0 0 0 0 0 127 0"/>
      <feOffset dy="3.69231"/>
      <feGaussianBlur stdDeviation="15.7"/>
      <feComposite in2="hardAlpha" operator="out"/>
      <feColorMatrix values="0 0 0 0 0 0 0 0 0 0 0 0 0 0 0 0 0 0 0.1 0"/>
      <feBlend in2="BackgroundImageFix" result="effect1_dropShadow_23_754"/>
      <feBlend in="SourceGraphic" in2="effect1_dropShadow_23_754" result="shape"/>
    </filter>
  </defs>
</svg>
