<svg xmlns="http://www.w3.org/2000/svg" viewBox="0 0 1554.88 1387.69"><defs><style>.cls-1{fill:#175a5a;}.cls-2{fill:#fff;}.cls-3{fill:#ffec00;}.cls-4{fill:#ff0;}</style></defs><g id="Layer_2" data-name="Layer 2"><g id="E_copy_2" data-name="E copy 2"><path class="cls-1" d="M389.44,1082.77a389.44,389.44,0,1,1,0-778.87,391.93,391.93,0,0,1,79.37,8,263.55,263.55,0,0,0,231.79-64,75.81,75.81,0,0,1,110.66,102.9,263.64,263.64,0,0,0-47.07,236,389.33,389.33,0,0,1-374.75,495.9Z"/><circle class="cls-2" cx="834.78" cy="248.14" r="116.66" transform="translate(69.04 662.96) rotate(-45)"/><path class="cls-1" d="M834.78,149.27a98.87,98.87,0,1,1-98.86,98.87,98.88,98.88,0,0,1,98.86-98.87m0-35.59a134.45,134.45,0,1,0,95.08,39.38,133.6,133.6,0,0,0-95.08-39.38Z"/><path class="cls-3" d="M389.44,1030.71a336.56,336.56,0,1,1,131.33-26.54A335.29,335.29,0,0,1,389.44,1030.71Z"/><path class="cls-1" d="M389.44,408c157.57,0,285.3,127.74,285.3,285.31S547,978.64,389.44,978.64,104.13,850.9,104.13,693.34,231.87,408,389.44,408m0-104.13a388.46,388.46,0,1,0,151.62,30.64A387.19,387.19,0,0,0,389.44,303.9Z"/><path class="cls-1" d="M537.13,579.12V498.94H300.29L241.74,557.5V829.18l58.55,58.55H537.13v-80.2H340.38V725.26H517.64V650.93H340.41V579.17Z"/></g><g id="T_Full_copy" data-name="T Full copy"><path class="cls-1" d="M1269.58,570.61A284.39,284.39,0,0,1,1067.84,487a286.68,286.68,0,0,1-36.75-45A263.64,263.64,0,0,0,826.22,323.79,73.54,73.54,0,0,1,801.43,318a75.83,75.83,0,0,1,0-139.67,74.3,74.3,0,0,1,29.51-6,80.66,80.66,0,0,1,8.59.46,262.48,262.48,0,0,0,28.77,1.58,263.61,263.61,0,0,0,192.61-83.65c2.25-2.4,4.58-4.81,6.93-7.17a285.38,285.38,0,1,1,201.74,487.05Z"/><path class="cls-4" d="M1269.58,531.11a245.81,245.81,0,0,1-173.81-419.62,245.8,245.8,0,0,1,347.62,347.62A244.19,244.19,0,0,1,1269.58,531.11Z"/><path class="cls-1" d="M1269.58,79a206.3,206.3,0,1,1-145.88,60.43A205,205,0,0,1,1269.58,79m0-79C1112,0,984.28,127.73,984.28,285.3S1112,570.61,1269.58,570.61s285.3-127.74,285.3-285.31S1427.15,0,1269.58,0Z"/><polygon class="cls-1" points="1160.56 151.91 1160.56 212.03 1233.34 212.03 1233.34 418.7 1305.83 418.7 1305.83 212.03 1378.6 212.03 1378.6 151.91 1160.56 151.91"/></g><g id="E_copy_3" data-name="E copy 3"><path class="cls-1" d="M751.72,1159.58a75.54,75.54,0,0,1-51.12-19.82,263.57,263.57,0,0,0-231.8-64,391.76,391.76,0,0,1-79.36,8,388.85,388.85,0,1,1,374.75-283,263.64,263.64,0,0,0,47.08,236,75.77,75.77,0,0,1-59.55,122.72Z"/><circle class="cls-2" cx="834.78" cy="1139.55" r="116.66" transform="translate(-423.77 1781.02) rotate(-80.78)"/><path class="cls-1" d="M834.78,1040.69a98.87,98.87,0,1,1-98.86,98.86,98.87,98.87,0,0,1,98.86-98.86m0-35.59a134.45,134.45,0,1,0,95.08,39.38,133.6,133.6,0,0,0-95.08-39.38Z"/><path class="cls-3" d="M389.44,1031.72a336.49,336.49,0,1,1,131.33-26.53A335.28,335.28,0,0,1,389.44,1031.72Z"/><path class="cls-1" d="M389.44,409.05c157.57,0,285.3,127.73,285.3,285.3S547,979.66,389.44,979.66,104.13,851.92,104.13,694.35s127.74-285.3,285.31-285.3m0-104.14a388.53,388.53,0,1,0,151.62,30.65,387.2,387.2,0,0,0-151.62-30.65Z"/></g><g id="Layer_7" data-name="Layer 7"><path class="cls-1" d="M537.13,579.12V498.94H300.29L241.74,557.5V829.18l58.55,58.55H537.13v-80.2H340.38V725.26H517.64V650.93H340.41V579.17Z"/></g><g id="T_Full_copy_2" data-name="T Full copy 2"><path class="cls-1" d="M1269.58,1387.69a284.43,284.43,0,0,1-201.74-83.56c-2.35-2.36-4.69-4.77-6.95-7.19a263.44,263.44,0,0,0-221.34-82,80.9,80.9,0,0,1-8.61.46,75.81,75.81,0,0,1-29.51-145.63,73.48,73.48,0,0,1,24.79-5.82,263.66,263.66,0,0,0,204.87-118.25,287.21,287.21,0,0,1,36.75-45,285.38,285.38,0,1,1,201.74,487.05Z"/><path class="cls-4" d="M1269.58,1348.19a245.79,245.79,0,1,1,173.81-72A244.22,244.22,0,0,1,1269.58,1348.19Z"/><path class="cls-1" d="M1269.58,896.08a206.3,206.3,0,1,1-145.88,60.43,204.94,204.94,0,0,1,145.88-60.43m0-79c-157.57,0-285.3,127.74-285.3,285.31s127.73,285.3,285.3,285.3,285.3-127.74,285.3-285.3-127.73-285.31-285.3-285.31Z"/></g><g id="Layer_38" data-name="Layer 38"><path class="cls-1" d="M1168.19,1232.57v-53h135.66l12.36-12.36v-29l-12.36-12.36H1197.16L1158,1086.31v-74.89l39.21-39.21h170.28v53H1235.31L1223,1037.56v23l12.36,12.37H1342l39.21,39.21v81.25L1342,1232.57Z"/></g></g></svg>