<svg width="141" height="141" viewBox="0 0 141 141" fill="none" xmlns="http://www.w3.org/2000/svg">
<rect width="140.074" height="140.074" rx="70.037" fill="url(#paint0_linear_534_7955)"/>
<g filter="url(#filter0_d_534_7955)">
<rect x="9.18506" y="9.18506" width="121.704" height="121.704" rx="60.8519" fill="white" fill-opacity="0.5" shape-rendering="crispEdges"/>
<path d="M70.2259 91.7536C67.7582 91.7536 65.5292 91.3953 63.5391 90.6789C61.549 89.9226 59.8773 88.8679 58.524 87.5146C57.2105 86.1215 56.295 84.4896 55.7776 82.6189L63.3003 80.4098C63.5789 80.8875 63.957 81.4845 64.4346 82.201C64.9123 82.8776 65.569 83.4547 66.4049 83.9324C67.2407 84.41 68.3353 84.6488 69.6886 84.6488C71.6787 84.6488 73.2509 84.1115 74.4052 83.0368C75.5992 81.9223 76.1963 80.4895 76.1963 78.7381C76.1963 77.5441 75.8978 76.4893 75.3007 75.5738C74.7037 74.6584 73.7285 73.9618 72.3752 73.4842C71.0618 72.9668 69.3304 72.7081 67.181 72.7081H64.6735V67.1556H66.8825C69.2706 67.1556 71.5195 67.4541 73.629 68.0512C75.7386 68.6084 77.5894 69.4443 79.1815 70.5587C80.8134 71.6334 82.087 72.9469 83.0025 74.4992C83.918 76.0117 84.3757 77.7431 84.3757 79.6934C84.3757 82.201 83.7189 84.3702 82.4055 86.2011C81.092 87.9922 79.3606 89.3654 77.2112 90.3207C75.0619 91.2759 72.7335 91.7536 70.2259 91.7536ZM64.6735 71.2155V66.0213H67.181C69.9672 66.0213 72.0369 65.5436 73.3902 64.5884C74.7435 63.6331 75.4201 62.3196 75.4201 60.6479C75.4201 59.6927 75.1813 58.8369 74.7037 58.0807C74.2261 57.3244 73.5494 56.7274 72.6738 56.2896C71.7981 55.8517 70.7831 55.6328 69.6289 55.6328C68.8726 55.6328 68.0965 55.7721 67.3004 56.0507C66.5044 56.2896 65.768 56.7075 65.0914 57.3045C64.4545 57.8618 63.9371 58.6777 63.5391 59.7524L56.1358 57.5433C56.6931 55.593 57.6483 53.9611 59.0016 52.6476C60.3947 51.2943 62.0465 50.2794 63.957 49.6027C65.8675 48.8863 67.8378 48.5281 69.8677 48.5281C72.4548 48.5281 74.7833 49.0256 76.853 50.0207C78.9227 50.9759 80.5546 52.3093 81.7487 54.0208C82.9428 55.7323 83.5398 57.7025 83.5398 59.9315C83.5398 61.842 83.0821 63.4938 82.1666 64.8869C81.2512 66.28 79.9974 67.4541 78.4053 68.4094C76.853 69.3647 75.0818 70.0811 73.0917 70.5587C71.1016 70.9966 69.0318 71.2155 66.8825 71.2155H64.6735Z" fill="#457B7B"/>
</g>
<defs>
<filter id="filter0_d_534_7955" x="9.18506" y="9.18506" width="126.296" height="126.296" filterUnits="userSpaceOnUse" color-interpolation-filters="sRGB">
<feFlood flood-opacity="0" result="BackgroundImageFix"/>
<feColorMatrix in="SourceAlpha" type="matrix" values="0 0 0 0 0 0 0 0 0 0 0 0 0 0 0 0 0 0 127 0" result="hardAlpha"/>
<feOffset dx="4.59259" dy="4.59259"/>
<feComposite in2="hardAlpha" operator="out"/>
<feColorMatrix type="matrix" values="0 0 0 0 0 0 0 0 0 0 0 0 0 0 0 0 0 0 0.04 0"/>
<feBlend mode="normal" in2="BackgroundImageFix" result="effect1_dropShadow_534_7955"/>
<feBlend mode="normal" in="SourceGraphic" in2="effect1_dropShadow_534_7955" result="shape"/>
</filter>
<linearGradient id="paint0_linear_534_7955" x1="0" y1="70.037" x2="140.074" y2="70.037" gradientUnits="userSpaceOnUse">
<stop stop-color="#C0CEA3"/>
<stop offset="1" stop-color="#A6BC9D"/>
</linearGradient>
</defs>
</svg>
