<svg width="100" height="60" viewBox="0 0 100 60" fill="none" xmlns="http://www.w3.org/2000/svg">
<path d="M49.3855 3.9172L49.3855 6.29646C49.3855 6.62586 49.6517 6.89229 49.9805 6.89229C50.3082 6.89229 50.5747 6.62586 50.5747 6.29646L50.5747 3.9172C50.5747 3.5899 50.3082 3.32342 49.9805 3.32342C49.6517 3.32342 49.3855 3.5899 49.3855 3.9172ZM49.3855 9.86533L49.3855 12.2445C49.3855 12.5739 49.6517 12.8383 49.9805 12.8383C50.3082 12.8383 50.5747 12.5739 50.5747 12.2445L50.5747 9.86533C50.5747 9.53803 50.3082 9.27155 49.9805 9.27155C49.6517 9.27155 49.3855 9.53803 49.3855 9.86533ZM49.3855 15.8134L49.3855 18.1927C49.3855 18.52 49.6517 18.7864 49.9805 18.7864C50.3082 18.7864 50.5747 18.52 50.5747 18.1927L50.5747 15.8134C50.5747 15.484 50.3082 15.2176 49.9805 15.2176C49.6517 15.2176 49.3855 15.484 49.3855 15.8134ZM49.3855 21.7594L49.3855 24.1387C49.3855 24.4681 49.6517 24.7345 49.9805 24.7345C50.3082 24.7345 50.5747 24.4681 50.5747 24.1387L50.5747 21.7594C50.5747 21.4321 50.3082 21.1657 49.9805 21.1657C49.6517 21.1657 49.3855 21.4321 49.3855 21.7594ZM49.3855 27.7075L49.3855 30.0868C49.3855 30.4162 49.6517 30.6827 49.9805 30.6827C50.3082 30.6827 50.5747 30.4162 50.5747 30.0868L50.5747 27.7075C50.5747 27.3802 50.3082 27.1138 49.9805 27.1138C49.6517 27.1138 49.3855 27.3802 49.3855 27.7075ZM49.3855 33.6557L49.3855 36.0349C49.3855 36.3622 49.6517 36.6286 49.9805 36.6286C50.3082 36.6286 50.5747 36.3622 50.5747 36.0349L50.5747 33.6557C50.5747 33.3263 50.3082 33.0598 49.9805 33.0598C49.6517 33.0598 49.3855 33.3263 49.3855 33.6557ZM49.3855 39.6038L49.3855 41.9809C49.3855 42.3103 49.6517 42.5768 49.9805 42.5768C50.3082 42.5768 50.5747 42.3103 50.5747 41.9809L50.5747 39.6038C50.5747 39.2744 50.3082 39.0079 49.9805 39.0079C49.6517 39.0079 49.3855 39.2744 49.3855 39.6038ZM49.3855 45.5498L49.3855 47.929C49.3855 48.2584 49.6517 48.5249 49.9805 48.5249C50.3082 48.5249 50.5747 48.2584 50.5747 47.929L50.5747 45.5498C50.5747 45.2225 50.3082 44.956 49.9805 44.956C49.6517 44.956 49.3855 45.2225 49.3855 45.5498ZM49.3855 51.4979L49.3855 53.8771C49.3855 54.2044 49.6517 54.4709 49.9805 54.4709C50.3082 54.4709 50.5747 54.2044 50.5747 53.8771L50.5747 51.4979C50.5747 51.1685 50.3082 50.902 49.9805 50.902C49.6517 50.902 49.3855 51.1685 49.3855 51.4979ZM49.3855 57.446L49.3855 58.8664C49.3855 59.1958 49.6517 59.4623 49.9805 59.4623C50.3082 59.4623 50.5747 59.1958 50.5747 58.8664L50.5747 57.446C50.5747 57.1166 50.3082 56.8501 49.9805 56.8501C49.6517 56.8501 49.3855 57.1166 49.3855 57.446Z" fill="#323232"/>
<path fill-rule="evenodd" clip-rule="evenodd" d="M54.3325 7.38128L45.6288 7.38128L49.7994 0.000180007L54.3325 7.38128Z" fill="#323232"/>
<path d="M99.4058 58.2726L0.595848 58.2726C0.266449 58.2726 -2.32915e-08 58.5391 -5.19053e-08 58.8664C-8.07025e-08 59.1958 0.266449 59.4622 0.595848 59.4622L99.4058 59.4622C99.7346 59.4622 100 59.1958 100 58.8664C100 58.5391 99.7346 58.2726 99.4058 58.2726Z" fill="#323232"/>
</svg>
