<svg width="100" height="60" viewBox="0 0 100 60" fill="none" xmlns="http://www.w3.org/2000/svg">
<path d="M50.6145 55.5449V53.1656C50.6145 52.8362 50.3483 52.5698 50.0195 52.5698C49.6918 52.5698 49.4253 52.8362 49.4253 53.1656V55.5449C49.4253 55.8722 49.6918 56.1387 50.0195 56.1387C50.3483 56.1387 50.6145 55.8722 50.6145 55.5449ZM50.6145 49.5968V47.2176C50.6145 46.8882 50.3483 46.6238 50.0195 46.6238C49.6918 46.6238 49.4253 46.8882 49.4253 47.2176V49.5968C49.4253 49.9241 49.6918 50.1905 50.0195 50.1905C50.3483 50.1905 50.6145 49.9241 50.6145 49.5968ZM50.6145 43.6487V41.2694C50.6145 40.9421 50.3483 40.6757 50.0195 40.6757C49.6918 40.6757 49.4253 40.9421 49.4253 41.2694V43.6487C49.4253 43.9781 49.6918 44.2445 50.0195 44.2445C50.3483 44.2445 50.6145 43.9781 50.6145 43.6487ZM50.6145 37.7027V35.3234C50.6145 34.994 50.3483 34.7276 50.0195 34.7276C49.6918 34.7276 49.4253 34.994 49.4253 35.3234V37.7027C49.4253 38.03 49.6918 38.2964 50.0195 38.2964C50.3483 38.2964 50.6145 38.03 50.6145 37.7027ZM50.6145 31.7546V29.3753C50.6145 29.0459 50.3483 28.7794 50.0195 28.7794C49.6918 28.7794 49.4253 29.0459 49.4253 29.3753V31.7546C49.4253 32.0819 49.6918 32.3483 50.0195 32.3483C50.3483 32.3483 50.6145 32.0819 50.6145 31.7546ZM50.6145 25.8064V23.4272C50.6145 23.0999 50.3483 22.8335 50.0195 22.8335C49.6918 22.8335 49.4253 23.0999 49.4253 23.4272V25.8064C49.4253 26.1358 49.6918 26.4023 50.0195 26.4023C50.3483 26.4023 50.6145 26.1358 50.6145 25.8064ZM50.6145 19.8583V17.4812C50.6145 17.1518 50.3483 16.8853 50.0195 16.8853C49.6918 16.8853 49.4253 17.1518 49.4253 17.4812V19.8583C49.4253 20.1877 49.6918 20.4542 50.0195 20.4542C50.3483 20.4542 50.6145 20.1877 50.6145 19.8583ZM50.6145 13.9123V11.5331C50.6145 11.2037 50.3483 10.9372 50.0195 10.9372C49.6918 10.9372 49.4253 11.2037 49.4253 11.5331V13.9123C49.4253 14.2396 49.6918 14.5061 50.0195 14.5061C50.3483 14.5061 50.6145 14.2396 50.6145 13.9123ZM50.6145 7.9642V5.58499C50.6145 5.25769 50.3483 4.99121 50.0195 4.99121C49.6918 4.99121 49.4253 5.25769 49.4253 5.58499V7.9642C49.4253 8.2936 49.6918 8.56008 50.0195 8.56008C50.3483 8.56008 50.6145 8.2936 50.6145 7.9642ZM50.6145 2.01612V0.595707C50.6145 0.266304 50.3483 -0.000171661 50.0195 -0.000171661C49.6918 -0.000171661 49.4253 0.266304 49.4253 0.595707V2.01612C49.4253 2.34552 49.6918 2.61195 50.0195 2.61195C50.3483 2.61195 50.6145 2.34552 50.6145 2.01612Z" fill="#323232"/>
<path fill-rule="evenodd" clip-rule="evenodd" d="M45.6675 52.0813H54.3712L50.2006 59.4624L45.6675 52.0813Z" fill="#323232"/>
<path d="M0.594188 1.18994H99.4042C99.7336 1.18994 100 0.923518 100 0.596214C100 0.266813 99.7336 0.000335932 99.4042 0.000335932H0.594188C0.265416 0.000335932 0 0.266813 0 0.596214C0 0.923518 0.265416 1.18994 0.594188 1.18994Z" fill="#323232"/>
</svg>
